SplineFontDB: 3.0
FontName: LinBiolinumOB
FullName: Linux Biolinum O Bold
FamilyName: Linux Biolinum O
Weight: Bold
Copyright: Linux Libertine by Philipp H. Poll, Open Font under Terms of following Free Software Licenses:\nGPL (General Public License) with font-exception and OFL (Open Font License).\nCreated with FontForge (http://fontforge.sf.net) Sept 2003, 2004, 2005, 2006, 2007, 2008
Version: 0.4.3
ItalicAngle: 0
UnderlinePosition: -138
UnderlineWidth: 40
Ascent: 800
Descent: 200
LayerCount: 2
Layer: 0 0 "Back" 
Layer: 1 0 "Fore" 
XUID: [1021 697 1618466747 12084194]
FSType: 0
OS2Version: 3
OS2_WeightWidthSlopeOnly: 0
OS2_UseTypoMetrics: 1
CreationTime: 1156455862
ModificationTime: 1240867342
PfmFamily: 17
TTFWeight: 700
TTFWidth: 5
LineGap: 0
VLineGap: 0
Panose: 2 0 8 3 0 0 0 0 0 0
OS2TypoAscent: 94
OS2TypoAOffset: 1
OS2TypoDescent: -46
OS2TypoDOffset: 1
OS2TypoLinegap: 0
OS2WinAscent: -50
OS2WinAOffset: 1
OS2WinDescent: 2
OS2WinDOffset: 1
HheadAscent: -50
HheadAOffset: 1
HheadDescent: -2
HheadDOffset: 1
OS2SubXSize: 650
OS2SubYSize: 699
OS2SubXOff: 0
OS2SubYOff: 140
OS2SupXSize: 650
OS2SupYSize: 699
OS2SupXOff: 0
OS2SupYOff: 479
OS2StrikeYSize: 49
OS2StrikeYPos: 258
OS2FamilyClass: 261
OS2Vendor: 'PfEd'
OS2CodePages: 600001bf.00000000
OS2UnicodeRanges: e0000aff.5000e5fb.00000020.00000000
Lookup: 3 0 0 "'aalt' Access All Alternates lookup 0"  {"'aalt' Access All Alternates lookup 0 subtable"  } ['aalt' ('DFLT' <'dflt' > 'cyrl' <'dflt' > 'grek' <'dflt' > 'latn' <'AZE ' 'CRT ' 'DEU ' 'MOL ' 'ROM ' 'TRK ' 'dflt' > ) ]
Lookup: 1 0 0 "'locl' Localized Forms in Latin lookup 1"  {"'locl' Localized Forms in Latin lookup 1 subtable"  } ['locl' ('latn' <'MOL ' 'ROM ' > ) ]
Lookup: 1 0 0 "'smcp' Gemeine nach Kapit+AOQA-lchen lookup 2"  {"'smcp' Gemeine nach Kapit+AOQA-lchen lookup 2 subtable"  } ['smcp' ('DFLT' <'dflt' > 'cyrl' <'dflt' > 'grek' <'dflt' > 'latn' <'DEU ' 'MOL ' 'ROM ' 'dflt' > ) ]

StartChar: .notdef
Encoding: 65536 -1 0
Width: 500
Flags: MW
HStem: 0 50<80 420 80 500> 647 51<80 420 80 80>
VStem: 0 50<95 603 95 698> 450 50<95 603 603 603>
LayerCount: 2
Fore
SplineSet
50 603 m 1
 50 95 l 1
 220 349 l 1
 50 603 l 1
80 50 m 1
 420 50 l 1
 250 304 l 1
 80 50 l 1
280 349 m 1
 450 95 l 1
 450 603 l 1
 280 349 l 1
250 394 m 1
 420 647 l 1
 80 647 l 1
 250 394 l 1
0 0 m 1
 0 698 l 1
 500 698 l 1
 500 0 l 1
 0 0 l 1
EndSplineSet
EndChar

StartChar: exclam
Encoding: 33 33 2
Width: 250
GlyphClass: 2
Flags: MW
HStem: -11 123<123 127 123 127> 638 20G<110 137>
VStem: 63 121<552.5 610 552.5 612>
LayerCount: 2
Fore
SplineSet
122 658 m 0
 152 658 184 635 184 585 c 0
 184 520 166.073 477.991 155 392 c 0
 141.092 283.988 140 224 138 210 c 0
 137 199 133 190 122 190 c 0
 110 190 108 197 107 203 c 0
 105 224 98.9326 313.992 90 392 c 0
 79.9238 479.991 63 515 63 585 c 0
 63 639 98 658 122 658 c 0
63 48 m 1
 63 53 l 1
 74 82 90 99 123 112 c 1
 127 112 l 1
 159 101 176 84 187 53 c 1
 187 48 l 1
 175 13 158 -3 127 -11 c 1
 123 -11 l 1
 88 -3 73 12 63 48 c 1
EndSplineSet
EndChar

StartChar: quotedbl
Encoding: 34 34 3
Width: 336
GlyphClass: 2
Flags: MW
HStem: 425 220<93 147>
VStem: 61 110<600.5 602.5> 187 110<601.5 603.5>
LayerCount: 2
Fore
SplineSet
234 422 m 1
 219 426 l 1
 219 426 187 586 187 592 c 0
 187 615 209 646 252 646 c 0
 294 646 297 627 297 609 c 0
 297 594 260 428 260 428 c 1
 234 422 l 1
108 421 m 1
 93 425 l 1
 93 425 61 585 61 591 c 0
 61 614 83 645 126 645 c 0
 168 645 171 626 171 608 c 0
 171 593 134 427 134 427 c 1
 108 421 l 1
EndSplineSet
EndChar

StartChar: numbersign
Encoding: 35 35 4
Width: 463
GlyphClass: 2
Flags: MW
HStem: 181 56<25 105 17 114 185 248 324 413> 337 57<50 130 41 139 209 272 349 437>
LayerCount: 2
Fore
SplineSet
256 237 m 1
 272 337 l 1
 202 337 l 1
 185 237 l 1
 256 237 l 1
340 337 m 1
 324 237 l 1
 421 237 l 1
 413 181 l 1
 316 181 l 1
 289 13 l 1
 221 13 l 1
 248 181 l 1
 177 181 l 1
 167 125 159 67 149 13 c 1
 79 13 l 1
 105 181 l 1
 17 181 l 1
 25 237 l 1
 114 237 l 1
 120 272 125 302 130 337 c 1
 41 337 l 1
 50 394 l 1
 139 394 l 1
 166 561 l 1
 237 561 l 1
 209 394 l 1
 281 394 l 1
 290 448 298 507 307 561 c 1
 375 561 l 1
 349 394 l 1
 445 394 l 1
 437 337 l 1
 340 337 l 1
EndSplineSet
EndChar

StartChar: dollar
Encoding: 36 36 5
Width: 500
GlyphClass: 2
Flags: MW
HStem: -10 47.1655 526.521 43.916
VStem: 47 104<418.424 467.697> 224 44<-81.001 -9.99414 -9.99414 -9.99414 40.9922 236.551 347.073 525.892 571.735 626.999> 338 112<116.891 163.692>
LayerCount: 2
Fore
SplineSet
224 37.165 m 1
 224 254.37 l 1
 146.624 285.618 47 332.37 47 421.998 c 0
 47 513.396 139.331 561.437 224 570.436 c 1
 224 626.999 l 1
 268 626.999 l 1
 268 571.735 l 1
 364.184 568.323 414 532.999 414 532.999 c 1
 416 529.999 l 1
 408 503.999 402 457.999 399 426.999 c 1
 390 425.999 l 1
 368.956 473.347 321.773 516.082 268 525.892 c 1
 268 329.419 l 1
 341.351 302.972 450 258.506 450 161.999 c 0
 450 71.7832 365.915 8.77441 268 -6.44531 c 1
 268 -81.001 l 1
 224 -81.001 l 1
 224 -9.99414 l 1
 223.333 -9.99902 222.667 -10.001 222 -10.001 c 0
 124 -10.001 44 29.999 44 29.999 c 1
 42 32.999 l 1
 49 58.999 56 106.999 60 137.999 c 1
 68 138.999 l 1
 92.1484 86.8389 166.671 40.2773 224 37.165 c 1
224 347.073 m 1
 224 526.52 l 1
 179.08 519.887 151 491.17 151 444.999 c 0
 151 391.85 189.144 363.767 224 347.073 c 1
268 236.551 m 1
 268 40.9922 l 1
 309.89 50.6885 338 78.6172 338 130.999 c 0
 338 196.386 309.155 218.507 268 236.551 c 1
EndSplineSet
EndChar

StartChar: percent
Encoding: 37 37 6
Width: 637
GlyphClass: 2
Flags: MW
HStem: -19 33<467.5 503 467.5 510.513> 214 36<501.5 530> 297 33<146 178 146 187.5> 474 45<355 369> 529 36<176.5 204 149 210> 549 20G<514 514>
VStem: 53 69<372.5 421 372.5 448.5> 240 43<444 478 432 497.5> 375 68<58.4961 105.5 57.5 131.003> 562 42<129.5 183>
LayerCount: 2
Fore
SplineSet
443 77 m 0xf3c0
 443 38 458 14 477 14 c 0
 529 14 562 102 562 157 c 0
 562 209 537 214 523 214 c 0
 480 214 443 134 443 77 c 0xf3c0
375 91 m 0
 375 171.006 423 250 512 250 c 0
 560 250 604 231 604 159 c 0
 604 59.9951 550.025 -19 471 -19 c 0
 408.992 -19 375 25.9922 375 91 c 0
364 519 m 0
 406 519 473 525 514 569 c 1xf7c0
 561 548 l 1
 150 -16 l 1
 96 -4 l 1
 462 497 l 1
 423 481 384 474 354 474 c 0
 331 474 299 484 280 495 c 1
 282 487 283 482 283 474 c 0
 283 390 231 297 144 297 c 0
 82 297 53 338.97 53 406 c 0
 53 491 108 565 190 565 c 0xfbc0
 218 565 247 556 257 544 c 1
 311 519 346 519 364 519 c 0
122 392 m 0
 122 353 137 330 155 330 c 0
 201 330 240 415 240 473 c 0
 240 522 219 529 201 529 c 0xfbc0
 152 529 122 450 122 392 c 0
EndSplineSet
EndChar

StartChar: ampersand
Encoding: 38 38 7
Width: 729
GlyphClass: 2
Flags: MW
HStem: -10 41<230.5 283 230.5 291.5> -10 61<565.492 577.5> 412 20G 613 41<320.5 356.558>
VStem: 39 118<126 187> 170 100<512.5 551> 397 93<511.5 554.042>
LayerCount: 2
Fore
SplineSet
270 523 m 0x3e
 270 502 285 458 311 420 c 1
 354 454 397 488 397 527 c 0
 397 581.083 376.115 613 337 613 c 0
 304 613 270 586 270 523 c 0x3e
396 122 m 1
 347 187 276 286 253 322 c 1
 178 274 157 232.008 157 170 c 0
 157 82 205 31 256 31 c 0xbe
 310 31 349 56 396 122 c 1
451 209 m 1
 510.459 301.318 529.599 370.943 537 432 c 1
 547 429 581 429 591 429 c 0
 601 429 638 429 648 432 c 1
 609 365 513.268 189.958 491 156 c 1
 519 111 549.984 51 581 51 c 0
 609.071 51 627 61 652 109 c 1
 684 86 l 1
 637 1 600 -10 555 -10 c 0x7e
 508 -10 480 6 431 78 c 1
 386 28 336 -10 247 -10 c 0
 128 -10 39 35.9961 39 150 c 0
 39 224 80 277 232 364 c 1
 192 426 170 473.989 170 521 c 0
 170 581 233 654 347 654 c 0
 439 654 490 613.105 490 537 c 0
 490 486 428 421 342 372 c 1
 358 344 389.879 293.837 451 209 c 1
EndSplineSet
Substitution2: "'salt' Stilistische Alternativformen lookup 16 subtable" ampersand.alt
Substitution2: "'c2sc' Capitals to Small Capitals lookup 9 subtable" ampersand.alt
Substitution2: "'smcp' Gemeine nach Kapit+AOQA-lchen lookup 3 subtable" ampersand.alt
AlternateSubs2: "'aalt' Access All Alternates lookup 0 subtable" ampersand.alt
EndChar

StartChar: quotesingle
Encoding: 39 39 8
Width: 215
GlyphClass: 2
Flags: MW
HStem: 421 224<98 98>
VStem: 51 110<600.5 602.5>
LayerCount: 2
Fore
SplineSet
98 421 m 1
 83 425 l 1
 83 425 51 585 51 591 c 0
 51 614 73 645 116 645 c 0
 158 645 161 626 161 608 c 0
 161 593 124 427 124 427 c 1
 98 421 l 1
EndSplineSet
EndChar

StartChar: parenleft
Encoding: 40 40 9
Width: 338
GlyphClass: 2
Flags: MW
VStem: 44 121<208 337>
LayerCount: 2
Fore
SplineSet
44 252 m 0
 44 422 156 605 275 707 c 1
 307 679 l 1
 275 643 165 515 165 252 c 0
 165 -11 274 -139 307 -177 c 1
 275 -204 l 1
 84 -40 44 164 44 252 c 0
EndSplineSet
Substitution2: "'case' Case-Sensitive Forms lookup 21 subtable" parenleft.sc
Substitution2: "'c2sc' Capitals to Small Capitals lookup 9 subtable" parenleft.sc
Substitution2: "'sinf' Wissenschaftliche Indices lookup 8 subtable" parenleft.inferior
Substitution2: "'sups' Superscript lookup 7 subtable" parenleft.superior
AlternateSubs2: "'aalt' Access All Alternates lookup 0 subtable" parenleft.sc
EndChar

StartChar: parenright
Encoding: 41 41 10
Width: 338
GlyphClass: 2
Flags: MW
VStem: 173 121<167 296 167 383.5>
LayerCount: 2
Fore
SplineSet
294 252 m 0
 294 82 182 -101 63 -203 c 1
 31 -175 l 1
 63 -139 173 -11 173 252 c 0
 173 515 64 643 31 681 c 1
 63 708 l 1
 254 544 294 340 294 252 c 0
EndSplineSet
Substitution2: "'case' Case-Sensitive Forms lookup 21 subtable" parenright.sc
Substitution2: "'c2sc' Capitals to Small Capitals lookup 9 subtable" parenright.sc
Substitution2: "'sinf' Wissenschaftliche Indices lookup 8 subtable" parenright.inferior
Substitution2: "'sups' Superscript lookup 7 subtable" parenright.superior
AlternateSubs2: "'aalt' Access All Alternates lookup 0 subtable" parenright.sc
EndChar

StartChar: asterisk
Encoding: 42 42 11
Width: 433
GlyphClass: 2
Flags: MW
HStem: 571 69
VStem: 173 78<669.5 689.5>
LayerCount: 2
Fore
SplineSet
197 566 m 1
 184 568 171 573 156 571 c 0
 111 563 75 563 75 608 c 0
 75 622 84 640 108 640 c 0
 142 640 159 607 203 588 c 1
 199 628 173 653 173 679 c 0
 173 700 193 718 211 718 c 0
 229 718 251 707 251 683 c 0
 251 656 228 618 226 588 c 1
 271 607 282 642 315 642 c 0
 346 642 354 618 354 608 c 0
 354 578 320 568 285 568 c 0
 266 568 249 568 231 565 c 1
 265 529 316 531 316 480 c 0
 316 462 298 451 284 451 c 0
 235 451 238 513 213 552 c 1
 188 507 202 451 143 451 c 0
 126 451 114 464 114 479 c 0
 114 533 164 528 197 566 c 1
EndSplineSet
EndChar

StartChar: plus
Encoding: 43 43 12
Width: 537
GlyphClass: 2
Flags: MW
HStem: 195 73 423 21G
VStem: 232 73
LayerCount: 2
Fore
SplineSet
306 269 m 1
 477 269 l 1
 477 195 l 1
 306 195 l 1
 306 32 l 1
 232 32 l 1
 232 195 l 1
 61 195 l 1
 61 269 l 1
 232 269 l 1
 232 433 l 1
 306 433 l 1
 306 269 l 1
EndSplineSet
Substitution2: "'sinf' Wissenschaftliche Indices lookup 8 subtable" plus.inferior
Substitution2: "'sups' Superscript lookup 7 subtable" plus.superior
AlternateSubs2: "'aalt' Access All Alternates lookup 0 subtable" plus.superior plus.inferior uni2098
EndChar

StartChar: comma
Encoding: 44 44 13
Width: 242
GlyphClass: 2
Flags: MW
HStem: -146 27 -3 115<112 117 112 119>
VStem: 144 43<-41.5 -18.5>
LayerCount: 2
Fore
SplineSet
53 48 m 1
 53 53 l 1
 63 82 79 99 112 112 c 1
 117 112 l 1
 156 98 187 68 187 -3 c 0
 187 -80 121 -134 55 -146 c 1
 48 -140 46 -130 50 -119 c 1
 107 -104 144 -55 144 -32 c 0
 144 -5 126 -3 112 -3 c 1
 78 4 62 12 53 48 c 1
EndSplineSet
EndChar

StartChar: hyphen
Encoding: 45 45 14
Width: 333
GlyphClass: 2
Flags: MW
HStem: 231 63<43.5 287 58 274>
VStem: 33 268<243.5 280.5>
LayerCount: 2
Fore
SplineSet
274 231 m 2
 48 231 l 2
 39 231 33 239 33 248 c 0
 33 264 46 294 58 294 c 2
 287 294 l 2
 297 294 301 285 301 276 c 0
 301 265 287 231 274 231 c 2
EndSplineSet
Substitution2: "'case' Case-Sensitive Forms lookup 21 subtable" hyphen.cap
Substitution2: "'c2sc' Capitals to Small Capitals lookup 9 subtable" hyphen.sc
Substitution2: "'smcp' Gemeine nach Kapit+AOQA-lchen lookup 3 subtable" hyphen.sc
AlternateSubs2: "'aalt' Access All Alternates lookup 0 subtable" hyphen.sc
EndChar

StartChar: period
Encoding: 46 46 15
Width: 242
GlyphClass: 2
Flags: MW
HStem: -11 123<119 123 119 123>
VStem: 59 124<48 53 48 53>
LayerCount: 2
Fore
SplineSet
59 48 m 1
 59 53 l 1
 70 82 86 99 119 112 c 1
 123 112 l 1
 155 101 172 84 183 53 c 1
 183 48 l 1
 171 13 154 -3 123 -11 c 1
 119 -11 l 1
 84 -3 69 12 59 48 c 1
EndSplineSet
EndChar

StartChar: slash
Encoding: 47 47 16
Width: 342
GlyphClass: 3
Flags: MW
HStem: 626 20G<252 312 312 312>
VStem: 15 297
LayerCount: 2
Fore
SplineSet
312 646 m 1
 75 -59 l 1
 15 -59 l 1
 252 646 l 1
 312 646 l 1
EndSplineSet
Ligature2: "'frac' Diagonal Fractions lookup 6 subtable" uni2215
AlternateSubs2: "'aalt' Access All Alternates lookup 0 subtable" uni2215
EndChar

StartChar: zero
Encoding: 48 48 17
Width: 478
GlyphClass: 2
Flags: MW
HStem: -10 46<197 276 197 282.5> 529 49<217.5 278.6>
VStem: 37 119<227 371.5> 319 118<256.515 356.241>
LayerCount: 2
Fore
SplineSet
239 529 m 0
 196 529 156 501 156 268 c 0
 156 186 158 36 236 36 c 0
 316 36 319 208.029 319 305 c 0
 319 407.481 318.2 529 239 529 c 0
235 -10 m 0
 113 -10 37 125 37 278 c 0
 37 465 138 578 239 578 c 0
 340 578 437 472.368 437 287 c 0
 437 65 330 -10 235 -10 c 0
EndSplineSet
Substitution2: "'zero' gestrichene Null lookup 15 subtable" zero.slash
Substitution2: "'onum' Minuskelziffern lookup 14 subtable" zero.taboldstyle
Substitution2: "'pnum' Proportionalziffern lookup 13 subtable" zero.fitted
Substitution2: "'sinf' Wissenschaftliche Indices lookup 8 subtable" zero.inferior
Substitution2: "'sups' Superscript lookup 7 subtable" zero.superior
AlternateSubs2: "'aalt' Access All Alternates lookup 0 subtable" zero.oldstyle zero.fitted zero.slash zero.slashfitted perthousandzero
EndChar

StartChar: one
Encoding: 49 49 18
Width: 478
GlyphClass: 2
Flags: MW
HStem: -3 21G<199 199 332 332> 442 21G<104 104> 558 20G<327 328.75>
VStem: 208 115<179 409 409 419>
LayerCount: 2
Fore
SplineSet
323 179 m 2
 323 103.766 325.5 57 334 0 c 1
 332 -3 l 1
 332 -3 300.333 0 266 0 c 0
 231 0 199 -3 199 -3 c 1
 198 0 l 1
 206.5 53.5 208 105 208 179 c 2
 208 409 l 2
 208 443 207.5 467 191 467 c 0
 172 467 149.5 461 104 442 c 1
 89 478 l 1
 177 519 271.667 543.667 327 578 c 1
 330.5 578 333 577.75 333 573 c 0
 331.333 560 323 521 323 419 c 2
 323 179 l 2
EndSplineSet
Substitution2: "'onum' Minuskelziffern lookup 14 subtable" one.taboldstyle
Substitution2: "'pnum' Proportionalziffern lookup 13 subtable" one.fitted
Substitution2: "'sinf' Wissenschaftliche Indices lookup 8 subtable" one.inferior
Substitution2: "'sups' Superscript lookup 7 subtable" one.superior
AlternateSubs2: "'aalt' Access All Alternates lookup 0 subtable" one.oldstyle one.superior one.fitted
EndChar

StartChar: two
Encoding: 50 50 19
Width: 478
GlyphClass: 2
Flags: MW
HStem: 0 70<227 252 252 298.5> 533 45<188.5 240>
VStem: 53 78<433 499> 306 122<399.5 475.5>
LayerCount: 2
Fore
SplineSet
263 0 m 0
 191 0 137 -2 57 -4 c 1
 56 0 l 1
 56 56 64 99 157 194 c 2
 227 263 l 2
 283 320 306 369 306 430 c 0
 306 521 257 533 223 533 c 0
 154 533 131 511 131 487 c 0
 131 479 133 471 136 464 c 0
 138 457 140 450 140 442 c 0
 140 416 115 406 97 406 c 0
 73 406 53 423 53 443 c 0
 53 500 124 578 229 578 c 0
 344.017 578 428 536 428 434 c 0
 428 362 386.853 320.152 333 268 c 2
 238 176 l 2
 233 171 164 115 164 70 c 1
 252 70 l 2
 347 70 373 74 428 78 c 1
 425 66 423 53 423 41 c 0
 423 29 425 8 428 -4 c 1
 357 -1 334 0 263 0 c 0
EndSplineSet
Substitution2: "'onum' Minuskelziffern lookup 14 subtable" two.taboldstyle
Substitution2: "'pnum' Proportionalziffern lookup 13 subtable" two.fitted
Substitution2: "'sinf' Wissenschaftliche Indices lookup 8 subtable" two.inferior
Substitution2: "'sups' Superscript lookup 7 subtable" two.superior
AlternateSubs2: "'aalt' Access All Alternates lookup 0 subtable" two.oldstyle two.superior two.fitted
EndChar

StartChar: three
Encoding: 51 51 20
Width: 478
GlyphClass: 2
Flags: MW
HStem: -10 45<189 229.5 189 257.5> 289 39<176 180> 533 45<211.5 244.5>
VStem: 71 73<463 470.5> 282 111<457.994 487> 315 120<125 231.5>
LayerCount: 2
Fore
SplineSet
226 533 m 0xf8
 197 533 144 527 144 472 c 0
 144 454 133 423 104 423 c 0
 75 423 71 452 71 455 c 0
 71 486 107 578 246 578 c 0
 284.993 578 326 571 346 559 c 0
 379.299 539.021 393 505.018 393 477 c 0xf8
 393 438.987 373 392 303 345 c 1
 359 336 435 295 435 191 c 0
 435 59 314 -10 201 -10 c 0
 144 -10 60 10 60 51 c 0
 60 68 80 87 102 87 c 0
 123 87 133 76 143 61 c 0
 155 43 165 35 213 35 c 0
 246 35 315 52 315 178 c 0xf4
 315 285 265 293 211 293 c 0
 202 293 191 291 180 289 c 1
 176 328 l 1
 253 341 282 416 282 462 c 0
 282 512 263 533 226 533 c 0xf8
EndSplineSet
Substitution2: "'onum' Minuskelziffern lookup 14 subtable" three.taboldstyle
Substitution2: "'pnum' Proportionalziffern lookup 13 subtable" three.fitted
Substitution2: "'sinf' Wissenschaftliche Indices lookup 8 subtable" three.inferior
Substitution2: "'sups' Superscript lookup 7 subtable" three.superior
AlternateSubs2: "'aalt' Access All Alternates lookup 0 subtable" three.oldstyle three.superior three.fitted
EndChar

StartChar: four
Encoding: 52 52 21
Width: 478
GlyphClass: 2
Flags: MW
HStem: -3 21G 147.999 54.001 558 20G
VStem: 276 91<147.998 147.999 201.999 354.999 354.999 358.499>
LayerCount: 2
Fore
SplineSet
73 147.999 m 2
 44 147.999 30.5 179.249 28 192.999 c 0
 28 193.999 29 194.999 30 195.999 c 0
 95 267.999 215.998 490 256 572.999 c 0
 257.79 576.713 259 577.999 263 577.999 c 0
 266 577.999 310 568.999 322 566.999 c 1
 271 444.999 193 317.999 120 201.999 c 1
 276 201.999 l 1
 276 354.999 l 2
 276 361.999 279 369.999 288 374.999 c 0
 299 382.999 336 391.999 351 391.999 c 0
 364 391.999 367 380.999 367 360.999 c 2
 367 201.999 l 1
 445.004 201.999 l 2
 455.004 201.999 459.004 191.998 459.004 182.998 c 0
 459.004 171.998 445.004 147.998 432.004 147.998 c 2
 367 147.998 l 1
 367.022 73.6143 369.538 56.7451 378 -0.000976562 c 1
 376 -3.00098 l 1
 376 -3.00098 365.333 -0.000976562 331 -0.000976562 c 0
 296 -0.000976562 267 -3.00098 267 -3.00098 c 1
 266 -0.000976562 l 1
 274.461 53.2559 275.986 75.2822 276 147.999 c 1
 73 147.999 l 2
EndSplineSet
Substitution2: "'onum' Minuskelziffern lookup 14 subtable" four.taboldstyle
Substitution2: "'pnum' Proportionalziffern lookup 13 subtable" four.fitted
Substitution2: "'sinf' Wissenschaftliche Indices lookup 8 subtable" four.inferior
Substitution2: "'sups' Superscript lookup 7 subtable" four.superior
AlternateSubs2: "'aalt' Access All Alternates lookup 0 subtable" four.oldstyle four.superior four.fitted
EndChar

StartChar: five
Encoding: 53 53 22
Width: 478
GlyphClass: 2
Flags: MW
HStem: -10 48<196 244 196 266.5> 314 56<216.5 242> 496 72<207.5 287> 558 20G<400 400>
VStem: 301 120<130 220.5>
LayerCount: 2
Fore
SplineSet
301 169 m 0xe8
 301 272 273 314 211 314 c 0
 165 314 125 307 86 291 c 1
 118 573 l 1
 151 570 190 568 225 568 c 0xe8
 275 568 346 572 400 578 c 1xd8
 406 575 l 1
 391 501 l 1
 352 497 301 496 273 496 c 0
 228 496 213 500 178 504 c 1
 159 355 l 1
 180 363 197 370 236 370 c 0
 342 370 421 278 421 186 c 0
 421 74 323 -10 210 -10 c 0
 153 -10 66 20 66 63 c 0
 66 84 84 99 103 99 c 0
 125 99 140 82 153 64 c 0
 168 44 180 38 212 38 c 0
 276 38 301 82 301 169 c 0xe8
EndSplineSet
Substitution2: "'onum' Minuskelziffern lookup 14 subtable" five.taboldstyle
Substitution2: "'pnum' Proportionalziffern lookup 13 subtable" five.fitted
Substitution2: "'sinf' Wissenschaftliche Indices lookup 8 subtable" five.inferior
Substitution2: "'sups' Superscript lookup 7 subtable" five.superior
AlternateSubs2: "'aalt' Access All Alternates lookup 0 subtable" five.oldstyle five.superior five.fitted
EndChar

StartChar: six
Encoding: 54 54 23
Width: 478
GlyphClass: 2
Flags: MW
HStem: -10 38<234.999 282.999 234.999 319> 298 41<240.778 279.499> 543 35<414 417>
VStem: 44 113 330 113
LayerCount: 2
Fore
SplineSet
164.169 309.573 m 1
 190.267 327.234 226.556 339 255 339 c 0
 403 339 443 249.006 443 171 c 0
 443 92 388 -10 250 -10 c 0
 177 -10 44 31 44 230 c 0
 44 373.665 157 561 414 578 c 1
 417 543 l 1
 356.908 537.453 202.485 518.186 164.169 309.573 c 1
158.772 271.448 m 1
 157.854 260.005 156.999 236.242 156.999 227 c 0
 156.999 59 209.999 28 259.999 28 c 0
 305.999 28 329.999 60 329.999 164 c 0
 329.999 211 323.999 298 234.999 298 c 0
 217.542 298 190.409 296.618 158.772 271.448 c 1
EndSplineSet
Substitution2: "'onum' Minuskelziffern lookup 14 subtable" six.taboldstyle
Substitution2: "'pnum' Proportionalziffern lookup 13 subtable" six.fitted
Substitution2: "'sinf' Wissenschaftliche Indices lookup 8 subtable" six.inferior
Substitution2: "'sups' Superscript lookup 7 subtable" six.superior
AlternateSubs2: "'aalt' Access All Alternates lookup 0 subtable" six.oldstyle six.superior six.fitted
EndChar

StartChar: seven
Encoding: 55 55 24
Width: 478
GlyphClass: 2
Flags: MW
HStem: -12 21G<139.001 139.001> 503 65
LayerCount: 2
Fore
SplineSet
344.317 493.94 m 1
 288.108 493.635 203 491.986 79.001 485 c 1
 81.001 499 83.001 522 83.001 536 c 0
 83.001 550 81.001 560 79.001 574 c 1
 119.251 568.75 222.001 568 363.001 568 c 0
 392.001 568 410.001 574 424.001 578 c 1
 440.001 568 l 1
 334.001 310 277.001 152 223.001 -9 c 1
 139.001 -12 l 1
 136.001 -6 l 1
 197.955 133.644 271.516 314.874 344.317 493.94 c 1
EndSplineSet
Substitution2: "'onum' Minuskelziffern lookup 14 subtable" seven.taboldstyle
Substitution2: "'pnum' Proportionalziffern lookup 13 subtable" seven.fitted
Substitution2: "'sinf' Wissenschaftliche Indices lookup 8 subtable" seven.inferior
Substitution2: "'sups' Superscript lookup 7 subtable" seven.superior
AlternateSubs2: "'aalt' Access All Alternates lookup 0 subtable" seven.oldstyle seven.superior seven.fitted
EndChar

StartChar: eight
Encoding: 56 56 25
Width: 478
GlyphClass: 2
Flags: MW
HStem: -10 37 545 33<216 270.504>
VStem: 45 100<96.4961 151.999 96.4961 173.973> 68 105<450.5 483.5> 311 100<432.5 477> 331 104<116.999 156.499>
LayerCount: 2
Fore
SplineSet
242 545 m 0xd8
 190 545 173 509 173 465 c 0
 173 436 189.4 397.2 230 372 c 2
 259 354 l 1
 285 373 311 404 311 455 c 0
 311 499 299.009 545 242 545 c 0xd8
411 463 m 0
 411 402 336 359.999 294 331.999 c 1
 352 293.999 l 2
 400.953 261.927 435 207.999 435 152.999 c 0
 435 80.999 360 -10.001 233 -10.001 c 0
 129 -10.001 45 40.999 45 137.999 c 0xe4
 45 209.946 104.902 244.177 178 299 c 1
 161 309 l 2
 103 345 68 394 68 447 c 0
 68 520 125.983 578 247 578 c 0
 354.005 578 411 531 411 463 c 0
235 26.999 m 0
 278 26.999 331 43.9932 331 133.999 c 0
 331 178.999 314.909 213.85 256 249.999 c 2
 212 276.999 l 1
 147 229.999 145 165.999 145 137.999 c 0
 145 54.9932 192 26.999 235 26.999 c 0
EndSplineSet
Substitution2: "'onum' Minuskelziffern lookup 14 subtable" eight.taboldstyle
Substitution2: "'pnum' Proportionalziffern lookup 13 subtable" eight.fitted
Substitution2: "'sinf' Wissenschaftliche Indices lookup 8 subtable" eight.inferior
Substitution2: "'sups' Superscript lookup 7 subtable" eight.superior
AlternateSubs2: "'aalt' Access All Alternates lookup 0 subtable" eight.oldstyle eight.superior eight.fitted
EndChar

StartChar: nine
Encoding: 57 57 26
Width: 478
GlyphClass: 2
Flags: MW
HStem: -10 35<68 71> 229 41<205.5 244.222> 540 38<202 250>
VStem: 42 113<380.5 436.5> 328 113<336.379 425>
LayerCount: 2
Fore
SplineSet
320.831 258.427 m 1
 294.733 240.766 258.444 229 230 229 c 0
 82 229 42 318.994 42 397 c 0
 42 476 97 578 235 578 c 0
 308 578 441 537 441 338 c 0
 441 194.335 328 7 71 -10 c 1
 68 25 l 1
 128.092 30.5469 282.515 49.8154 320.831 258.427 c 1
326.227 296.552 m 1
 327.146 307.995 328 331.758 328 341 c 0
 328 509 275 540 225 540 c 0
 179 540 155 508 155 404 c 0
 155 357 161 270 250 270 c 0
 267.457 270 294.59 271.382 326.227 296.552 c 1
EndSplineSet
Substitution2: "'onum' Minuskelziffern lookup 14 subtable" nine.taboldstyle
Substitution2: "'pnum' Proportionalziffern lookup 13 subtable" nine.fitted
Substitution2: "'sinf' Wissenschaftliche Indices lookup 8 subtable" nine.inferior
Substitution2: "'sups' Superscript lookup 7 subtable" nine.superior
AlternateSubs2: "'aalt' Access All Alternates lookup 0 subtable" nine.oldstyle nine.superior nine.fitted
EndChar

StartChar: colon
Encoding: 58 58 27
Width: 242
GlyphClass: 2
Flags: MW
HStem: 38 123<126 130 126 130> 301 123<126 130 126 130>
VStem: 66 124<97 102 97 102 360 365>
LayerCount: 2
Fore
SplineSet
66 360 m 1
 66 365 l 1
 77 394 93 411 126 424 c 1
 130 424 l 1
 162 413 179 396 190 365 c 1
 190 360 l 1
 178 325 161 309 130 301 c 1
 126 301 l 1
 91 309 76 324 66 360 c 1
66 97 m 1
 66 102 l 1
 77 131 93 148 126 161 c 1
 130 161 l 1
 162 150 179 133 190 102 c 1
 190 97 l 1
 178 62 161 46 130 38 c 1
 126 38 l 1
 91 46 76 61 66 97 c 1
EndSplineSet
EndChar

StartChar: semicolon
Encoding: 59 59 28
Width: 242
GlyphClass: 2
Flags: MW
HStem: -146 27 -3 115<112 117 112 119> 301 123<116 120 116 120>
VStem: 56 124<360 365 360 365> 144 43<-41.5 -18.5>
LayerCount: 2
Fore
SplineSet
56 360 m 1xf0
 56 365 l 1
 67 394 83 411 116 424 c 1
 120 424 l 1
 152 413 169 396 180 365 c 1
 180 360 l 1
 168 325 151 309 120 301 c 1
 116 301 l 1
 81 309 66 324 56 360 c 1xf0
53 48 m 1
 53 53 l 1
 63 82 79 99 112 112 c 1
 117 112 l 1
 156 98 187 68 187 -3 c 0
 187 -80 121 -134 55 -146 c 1
 48 -140 46 -130 50 -119 c 1
 107 -104 144 -55 144 -32 c 0xe8
 144 -5 126 -3 112 -3 c 1
 78 4 62 12 53 48 c 1
EndSplineSet
EndChar

StartChar: less
Encoding: 60 60 29
Width: 512
GlyphClass: 2
Flags: W
LayerCount: 2
Fore
SplineSet
153 240 m 1
 471 124 l 1
 471 62 l 1
 42 218 l 1
 42 262 l 1
 471 418 l 1
 471 356 l 1
 153 240 l 1
EndSplineSet
EndChar

StartChar: equal
Encoding: 61 61 30
Width: 551
GlyphClass: 2
Flags: MW
HStem: 142 56<59 493 59 493> 266 57<59 493 59 493>
LayerCount: 2
Fore
SplineSet
493 198 m 1
 493 142 l 1
 59 142 l 1
 59 198 l 1
 493 198 l 1
493 323 m 1
 493 266 l 1
 59 266 l 1
 59 323 l 1
 493 323 l 1
EndSplineSet
Substitution2: "'sinf' Wissenschaftliche Indices lookup 8 subtable" equal.inferior
Substitution2: "'sups' Superscript lookup 7 subtable" equal.superior
AlternateSubs2: "'aalt' Access All Alternates lookup 0 subtable" equal.superior
EndChar

StartChar: greater
Encoding: 62 62 31
Width: 512
GlyphClass: 2
Flags: W
LayerCount: 2
Fore
SplineSet
359 238 m 1
 42 354 l 1
 42 416 l 1
 471 259 l 1
 471 215 l 1
 42 60 l 1
 42 122 l 1
 359 238 l 1
EndSplineSet
EndChar

StartChar: question
Encoding: 63 63 32
Width: 424
GlyphClass: 2
Flags: MW
HStem: -11 123<178 182 178 182> 610 49<167.75 223.5>
VStem: 118 124<48 53 48 53> 157 46<189 228 185.5 230 185.5 251.5> 275 113<480.5 536.5>
LayerCount: 2
Fore
SplineSet
195 610 m 0xd8
 139 610 98 561 72 516 c 1
 59 517 l 1
 43 593 l 1
 46 597 l 1
 70.5 617.5 131.5 659 204 659 c 0
 306 659 388 599 388 508 c 0
 388 429 310 385 263 351 c 0
 234.087 329.63 203 302 203 228 c 2
 203 189 l 2
 203 182 188 174 180 174 c 0
 172 174 157 182 157 189 c 2
 157 230 l 2
 157 273 169.558 331.391 234 391 c 0
 274 428 275 457 275 504 c 0
 275 569 252 610 195 610 c 0xd8
118 48 m 1xe8
 118 53 l 1
 129 82 145 99 178 112 c 1
 182 112 l 1
 214 101 231 84 242 53 c 1
 242 48 l 1
 230 13 213 -3 182 -11 c 1
 178 -11 l 1
 143 -3 128 12 118 48 c 1xe8
EndSplineSet
EndChar

StartChar: at
Encoding: 64 64 33
Width: 988
GlyphClass: 2
Flags: MW
HStem: -160 39<399 559.5 399 563.5> 19 42<652.5 676.5 652.5 705> 30 42<446.5 456> 382 33<550 569.5> 584 37<426.5 562.5>
VStem: 92 94<154 324.5> 317 97<140.5 195.5 140.5 230.5> 805 85<217 381.5 217 383.5>
LayerCount: 2
Fore
SplineSet
606 320 m 0xbf
 606 355 582 382 557 382 c 0
 543 382 511.167 380.845 476 343 c 0
 431.213 294.802 414 227 414 164 c 0
 414 117 423 72 470 72 c 0
 500 72 550 107 577 193 c 0
 587 226 606 296 606 320 c 0xbf
640 75 m 0
 640 62 647 61 658 61 c 0
 695 61 805 129 805 273 c 0
 805 494 621 584 504 584 c 0
 349 584 186 459 186 228 c 0
 186 80 277 -121 521 -121 c 0
 598 -121 669 -97 731 -46 c 1
 743 -50 750 -62 752 -75 c 1
 688 -124 625 -160 502 -160 c 0
 265 -160 92 -7 92 221 c 0
 92 428 260 621 513 621 c 0
 739 621 890 476 890 287 c 0
 890 147 772 19 638 19 c 0xdf
 568 19 550 55 550 76 c 1
 509 38 468 30 444 30 c 0
 328 30 317 117 317 158 c 0
 317 303 439 415 554 415 c 0
 602 415 631 398 648 377 c 1
 685 410 l 1
 712 399 l 1
 653 141 l 2
 647.052 114.988 640 86 640 75 c 0
EndSplineSet
EndChar

StartChar: A
Encoding: 65 65 34
Width: 675
GlyphClass: 2
Flags: MW
HStem: -3 21G 221 53 638 20G
AnchorPoint: "Anker-5" 322 700 basechar 0
AnchorPoint: "Anker-4" 322 798 basechar 0
AnchorPoint: "Anker-3" 270 -108 basechar 0
AnchorPoint: "Anker-2" 58 8 basechar 0
LayerCount: 2
Fore
SplineSet
317.556 499.774 m 1
 221.641 275.916 l 1
 253.373 275.537 297.058 273.999 325.999 273.999 c 0
 349.697 273.999 381.094 274.458 409.509 275.064 c 1
 384.729 339.381 354.381 414.363 317.556 499.774 c 1
198.276 219.171 m 1
 164.174 135.074 134.786 56.1982 118.999 -3.00195 c 1
 106.999 -0.00195312 84.999 -0.00195312 73.999 -0.00195312 c 0
 62.999 -0.00195312 29.999 -0.00195312 17.999 -3.00195 c 1
 312.999 657.998 l 1
 382.999 657.998 l 1
 474.999 438.998 606.999 97.998 656.999 -3.00195 c 1
 639.999 -0.00195312 592.999 -0.00195312 575.999 -0.00195312 c 0
 558.999 -0.00195312 521.999 -0.00195312 504.999 -3.00195 c 1
 498.997 18.6748 477.283 93.7236 430.47 219.691 c 1
 397.748 220.413 363.121 220.998 330.999 220.998 c 0
 295.342 220.998 236.228 220.106 198.276 219.171 c 1
EndSplineSet
Substitution2: "'c2sc' Capitals to Small Capitals lookup 9 subtable" a.sc
Position2: "'cpsp' Capital Spacing lookup 0 subtable" dx=2 dy=0 dh=5 dv=0
EndChar

StartChar: B
Encoding: 66 66 35
Width: 645
GlyphClass: 2
Flags: MW
HStem: -3 53<286.5 379.007 277 430.5> 322 53<231 303 231 303 303 318> 595 53<291.5 344>
VStem: 103 128<200 322 375 445 445 482.5> 416 129<465.5 526.5 465.5 532> 463 141<141 210>
AnchorPoint: "Anker-5" 282 700 basechar 0
AnchorPoint: "Anker-4" 281 798 basechar 0
AnchorPoint: "Anker-3" 268 -108 basechar 0
AnchorPoint: "Anker-2" 250 0 basechar 0
LayerCount: 2
Fore
SplineSet
231 550 m 2xf8
 231 375 l 1
 303 375 l 2
 386 375 416 396 416 481 c 0
 416 583 372 595 316 595 c 0
 235 595 231 583 231 550 c 2xf8
231 322 m 1
 231 97 l 2
 231 64 242 50 312 50 c 0
 446.015 50 463 92 463 165 c 0xf4
 463 255 435 322 318 322 c 2
 231 322 l 1
167 645 m 0
 222 645 274 648 309 648 c 0
 495 648 545 560 545 493 c 0xf8
 545 438 503 385 452 360 c 1
 539 335 604 280 604 184 c 0
 604 98 530 -3 331 -3 c 0
 242 -3 231 0 167 0 c 0
 132 0 94 -3 94 -3 c 1
 93 0 l 1
 101 54 103 124.999 103 200 c 2
 103 445 l 2
 103 520 101 588 93 645 c 1
 95 648 l 1
 95 648 133 645 167 645 c 0
EndSplineSet
Substitution2: "'c2sc' Capitals to Small Capitals lookup 9 subtable" b.sc
Position2: "'cpsp' Capital Spacing lookup 0 subtable" dx=2 dy=0 dh=5 dv=0
EndChar

StartChar: C
Encoding: 67 67 36
Width: 671
GlyphClass: 2
Flags: MW
HStem: -10 60<303.5 410.5> 602 56<331 417>
VStem: 37 145<261 413.5>
AnchorPoint: "Anker-5" 366 700 basechar 0
AnchorPoint: "Anker-4" 366 798 basechar 0
AnchorPoint: "Anker-3" 369 -110 basechar 0
AnchorPoint: "Anker-2" 362 -7 basechar 0
LayerCount: 2
Fore
SplineSet
386 658 m 0
 508 658 603.999 613 603.999 613 c 1
 605.999 609.999 l 1
 594.237 560.747 589.554 530.993 586 480 c 1
 576 479 l 1
 535 561 462 602 372 602 c 0
 290 602 182 537 182 334 c 0
 182 188 226 50 381 50 c 0
 474 50 542 71 613 149 c 1
 636 125 l 1
 568 36 459 -10 362 -10 c 0
 147 -10 37 154 37 315 c 0
 37 512 217 658 386 658 c 0
EndSplineSet
Substitution2: "'c2sc' Capitals to Small Capitals lookup 9 subtable" c.sc
Position2: "'cpsp' Capital Spacing lookup 0 subtable" dx=2 dy=0 dh=5 dv=0
EndChar

StartChar: D
Encoding: 68 68 37
Width: 761
GlyphClass: 2
Flags: MW
HStem: -2 53<317.5 408.5 289 439.5> 595 53<314.5 421>
VStem: 101 128<200 445 445 482.5> 573 145<185 361>
LayerCount: 2
Fore
SplineSet
229 91 m 2
 229 59 240 51 338 51 c 0
 479 51 573 82 573 284 c 0
 573 438 529 595 313 595 c 0
 264 595 229 590 229 555 c 2
 229 91 l 2
165 645 m 0
 238 645 278 648 351 648 c 0
 543 648 718 494 718 308 c 0
 718 62 510 -2 369 -2 c 0
 266 -2 245 0 165 0 c 0
 130 0 92 -3 92 -3 c 1
 91 0 l 1
 99 54 101 124.999 101 200 c 2
 101 445 l 2
 101 520 99 588 91 645 c 1
 93 648 l 1
 93 648 131 645 165 645 c 0
EndSplineSet
Substitution2: "'c2sc' Capitals to Small Capitals lookup 9 subtable" d.sc
Position2: "'cpsp' Capital Spacing lookup 0 subtable" dx=2 dy=0 dh=5 dv=0
EndChar

StartChar: E
Encoding: 69 69 38
Width: 564
GlyphClass: 2
Flags: MW
HStem: 0 63<232 299 232 454> 316 51<224 248> 575 21G<504 504> 587 58<232 299>
VStem: 96 128<200 316 367 445>
AnchorPoint: "Anker-5" 280 700 basechar 0
AnchorPoint: "Anker-4" 283 805 basechar 0
AnchorPoint: "Anker-3" 279 -107 basechar 0
AnchorPoint: "Anker-2" 279 4 basechar 0
LayerCount: 2
Fore
SplineSet
224 200 m 2xd8
 224 183 225 87 232 63 c 1
 366 63 514 75 514 75 c 1
 516 71 l 1
 515 63 514 46 514 36 c 0
 514 26 515 14 516 0 c 1
 514 -3 l 1
 498 -1 475 0 454 0 c 2
 160 0 l 2
 125 0 87 -3 87 -3 c 1
 86 0 l 1
 94 54 96 125 96 200 c 2
 96 445 l 2
 96 520 94 588 86 645 c 1
 88 648 l 1
 88 648 126 645 160 645 c 2
 444 645 l 2
 465 645 488 646 504 648 c 1
 506 645 l 1xd8
 505 631 504 618 504 610 c 0
 504 601 505 587 506 579 c 1
 504 575 l 1xe8
 504 575 366 587 232 587 c 1
 225 563 224 462 224 445 c 2
 224 367 l 1
 342 367 388 372 447 377 c 1
 450 374 l 1
 448 365 447 351 447 342 c 0
 447 333 448 318 450 309 c 1
 447 306 l 1
 378 313 272 316 224 316 c 1
 224 200 l 2xd8
EndSplineSet
Substitution2: "'c2sc' Capitals to Small Capitals lookup 9 subtable" e.sc
Position2: "'cpsp' Capital Spacing lookup 0 subtable" dx=2 dy=0 dh=5 dv=0
EndChar

StartChar: F
Encoding: 70 70 39
Width: 519
GlyphClass: 2
Flags: MW
HStem: -3 21G<89 89 234 234> 316 51<226 250> 575 21G<506 506> 587 58<234 301>
VStem: 98 128<200 316 367 445>
AnchorPoint: "Anker-5" 287 700 basechar 0
AnchorPoint: "Anker-4" 286 798 basechar 0
AnchorPoint: "Anker-3" 201 -111 basechar 0
AnchorPoint: "Anker-2" 145 -1 basechar 0
LayerCount: 2
Fore
SplineSet
443 645 m 2xd8
 467 645 490 646 506 648 c 1
 508 645 l 1xd8
 507 631 506 618 506 610 c 0
 506 601 507 587 508 579 c 1
 506 575 l 1xe8
 506 575 368 587 234 587 c 1
 227 563 226 462 226 445 c 2
 226 367 l 1
 344 367 390 372 449 377 c 1
 452 374 l 1
 450 365 449 351 449 342 c 0
 449 333 450 318 452 309 c 1
 449 306 l 1
 380 313 274 316 226 316 c 1
 226 200 l 2
 226 125 228 57 236 0 c 1
 234 -3 l 1
 234 -3 196 0 162 0 c 0
 127 0 89 -3 89 -3 c 1
 88 0 l 1
 96 54 98 125 98 200 c 2
 98 445 l 2
 98 520 96 588 88 645 c 1
 90 648 l 1
 90 648 128 645 162 645 c 2
 443 645 l 2xd8
EndSplineSet
Substitution2: "'c2sc' Capitals to Small Capitals lookup 9 subtable" f.sc
Position2: "'cpsp' Capital Spacing lookup 0 subtable" dx=2 dy=0 dh=5 dv=0
EndChar

StartChar: G
Encoding: 71 71 40
Width: 741
GlyphClass: 2
Flags: MW
HStem: -10 55<331 447 331 455.229> 602 56<320.5 433>
VStem: 32 145 546 128
AnchorPoint: "Anker-5" 369 700 basechar 0
AnchorPoint: "Anker-4" 369 798 basechar 0
AnchorPoint: "Anker-3" 371 -111 basechar 0
AnchorPoint: "Anker-2" 371 2 basechar 0
LayerCount: 2
Fore
SplineSet
546 117 m 2
 546 192 543.999 250.001 535.999 307.001 c 1
 537.999 310.001 l 1
 537.999 310.001 575.999 307.001 609.999 307.001 c 0
 644.999 307.001 682.999 310.001 682.999 310.001 c 1
 683.999 307.001 l 1
 675.999 254.001 673.999 212.001 673.999 137.001 c 0
 673.999 104.601 677.918 90.4844 683.999 83 c 1
 683.999 80 l 1
 616.547 23.3506 513.46 -10 396.999 -10 c 0
 195.999 -10 31.999 134 31.999 307 c 0
 31.999 527 229.999 658 401.999 658 c 0
 523.999 658 640.999 613 640.999 613 c 1
 642.999 609.999 l 1
 631.237 560.747 626.554 530.993 623 480 c 1
 613 479 l 1
 572 561 478 602 388 602 c 0
 253 602 177 502 177 327 c 0
 177 195 242 45 420 45 c 0
 474 45 512 51 546 83 c 1
 546 117 l 2
EndSplineSet
Substitution2: "'c2sc' Capitals to Small Capitals lookup 9 subtable" g.sc
Position2: "'cpsp' Capital Spacing lookup 0 subtable" dx=2 dy=0 dh=5 dv=0
EndChar

StartChar: H
Encoding: 72 72 41
Width: 752
GlyphClass: 2
Flags: MW
HStem: -3 21G<94 94 239 239 502 502 647 647> 311 52<231 511 231 511> 628 20G<95 95 240 240 503 503 648 648>
VStem: 103 128<200 311 363 445> 511 128<200 311 311 311 363 445>
AnchorPoint: "Anker-5" 371 700 basechar 0
AnchorPoint: "Anker-4" 371 798 basechar 0
AnchorPoint: "Anker-3" 370 -107 basechar 0
AnchorPoint: "Anker-2" 174 0 basechar 0
LayerCount: 2
Fore
SplineSet
511 445 m 2
 511 520 509 588 501 645 c 1
 503 648 l 1
 503 648 541 645 575 645 c 0
 610 645 648 648 648 648 c 1
 649 645 l 1
 641 592 639 520 639 445 c 2
 639 200 l 2
 639 125 641 57 649 0 c 1
 647 -3 l 1
 647 -3 609 0 575 0 c 0
 540 0 502 -3 502 -3 c 1
 501 0 l 1
 509 54 511 125 511 200 c 2
 511 311 l 1
 231 311 l 1
 231 200 l 2
 231 125 233 57 241 0 c 1
 239 -3 l 1
 239 -3 201 0 167 0 c 0
 132 0 94 -3 94 -3 c 1
 93 0 l 1
 101 54 103 125 103 200 c 2
 103 445 l 2
 103 520 101 588 93 645 c 1
 95 648 l 1
 95 648 133 645 167 645 c 0
 202 645 240 648 240 648 c 1
 241 645 l 1
 233 592 231 520 231 445 c 2
 231 363 l 1
 511 363 l 1
 511 445 l 2
EndSplineSet
Substitution2: "'c2sc' Capitals to Small Capitals lookup 9 subtable" h.sc
Position2: "'cpsp' Capital Spacing lookup 0 subtable" dx=2 dy=0 dh=5 dv=0
EndChar

StartChar: I
Encoding: 73 73 42
Width: 335
GlyphClass: 2
Flags: MW
HStem: -3 21G<97 97 242 242> 628 20G<98 98 243 243>
VStem: 106 128<200 445>
AnchorPoint: "Anker-5" 172 700 basechar 0
AnchorPoint: "Anker-4" 172 798 basechar 0
AnchorPoint: "Anker-3" 197 -109 basechar 0
AnchorPoint: "Anker-2" 171 1 basechar 0
LayerCount: 2
Fore
SplineSet
106 445 m 2
 106 520 104 588 96 645 c 1
 98 648 l 1
 98 648 136 645 170 645 c 0
 205 645 243 648 243 648 c 1
 244 645 l 1
 236 592 234 520 234 445 c 2
 234 200 l 2
 234 125 236 57 244 0 c 1
 242 -3 l 1
 242 -3 204 0 170 0 c 0
 135 0 97 -3 97 -3 c 1
 96 0 l 1
 104 54 106 125 106 200 c 2
 106 445 l 2
EndSplineSet
Substitution2: "'c2sc' Capitals to Small Capitals lookup 9 subtable" i.sc
Position2: "'cpsp' Capital Spacing lookup 0 subtable" dx=2 dy=0 dh=5 dv=0
EndChar

StartChar: J
Encoding: 74 74 43
Width: 357
GlyphClass: 2
Flags: MW
HStem: -181 69<-4.5 95.5> 628 20G<132 132 277 277>
VStem: 140 128<95 117 117 445>
AnchorPoint: "Anker-5" 181 723 basechar 0
AnchorPoint: "Anker-4" 182 806 basechar 0
LayerCount: 2
Fore
SplineSet
140 95 m 2
 140 445 l 2
 140 520 138 588 130 645 c 1
 132 648 l 1
 132 648 170 645 204 645 c 0
 239 645 277 648 277 648 c 1
 278 645 l 1
 270 592 268 520 268 445 c 2
 268 117 l 2
 268 2.5 265 -38 205 -105 c 0
 150 -168 68 -181 5 -181 c 0
 -14 -181 -42 -177 -50 -172 c 1
 -51 -169 l 1
 -40 -150 -30 -95 -23 -68 c 1
 -2 -67 l 1
 9 -87 27 -112 56 -112 c 0
 135 -112 140 7.02148 140 95 c 2
EndSplineSet
Substitution2: "'ss02' Stilgruppe 2 lookup 18 subtable" J.alt
Substitution2: "'c2sc' Capitals to Small Capitals lookup 9 subtable" j.sc
Position2: "'cpsp' Capital Spacing lookup 0 subtable" dx=2 dy=0 dh=5 dv=0
EndChar

StartChar: K
Encoding: 75 75 44
Width: 719
GlyphClass: 2
Flags: MW
HStem: -3 21G<97 97 242 242 677 677> 628 20G
VStem: 106 128<200 323.042 162.5 445>
AnchorPoint: "Anker-5" 335 719 basechar 0
AnchorPoint: "Anker-4" 336 798 basechar 0
AnchorPoint: "Anker-3" 342 -109 basechar 0
AnchorPoint: "Anker-2" 148 -1 basechar 0
LayerCount: 2
Fore
SplineSet
106 445 m 2
 106 520 103.999 587.999 95.999 644.999 c 1
 97.999 647.999 l 1
 97.999 647.999 135.999 644.999 169.999 644.999 c 0
 204.999 644.999 242.999 647.999 242.999 647.999 c 1
 243.999 644.999 l 1
 235.999 591.999 233.999 519.999 233.999 444.999 c 2
 233.999 349.731 l 1
 239.356 350.82 246.592 353.268 252 358 c 0
 340 435 428 546 517 648 c 1
 530 645 583 645 596 645 c 0
 611 645 651 645 667 648 c 1
 579 571 431 433 363 354 c 1
 363 352 l 1
 677 -3 l 1
 658 0 614 0 595 0 c 0
 578 0 520 0 503 -3 c 1
 413 108 290 276 249 317 c 0
 245.324 320.062 239.021 322 234 323.042 c 1
 234 200 l 2
 234 125 236 57 244 0 c 1
 242 -3 l 1
 242 -3 204 0 170 0 c 0
 135 0 97 -3 97 -3 c 1
 96 0 l 1
 104 54 106 125 106 200 c 2
 106 445 l 2
EndSplineSet
Substitution2: "'ss02' Stilgruppe 2 lookup 18 subtable" K.alt
Substitution2: "'c2sc' Capitals to Small Capitals lookup 9 subtable" k.sc
AlternateSubs2: "'aalt' Access All Alternates lookup 0 subtable" K.alt k.sc
Position2: "'cpsp' Capital Spacing lookup 0 subtable" dx=2 dy=0 dh=5 dv=0
EndChar

StartChar: L
Encoding: 76 76 45
Width: 568
GlyphClass: 2
Flags: MW
HStem: 0 63<239 306 239 461> 628 20G<94 94 240 240>
VStem: 103 128<200 445>
AnchorPoint: "Anker-5" 148 721 basechar 0
AnchorPoint: "Anker-4" 149 804 basechar 0
AnchorPoint: "Anker-3" 260 -110 basechar 0
AnchorPoint: "Anker-2" 260 1 basechar 0
LayerCount: 2
Fore
SplineSet
231 200 m 2
 231 183 232 87 239 63 c 1
 373 63 521 75 521 75 c 1
 523 71 l 1
 522 63 521 48 521 38 c 0
 521 28 522 14 523 0 c 1
 521 -3 l 1
 505 -1 482 0 461 0 c 2
 167 0 l 2
 133 0 94 -3 94 -3 c 1
 93 0 l 1
 101 54 103 125 103 200 c 2
 103 445 l 2
 103 520.008 100 588 92 645 c 1
 94 648 l 1
 94 648 133 645 167 645 c 0
 202 645 240 648 240 648 c 1
 241 645 l 1
 233 592 231 520.005 231 445 c 2
 231 200 l 2
EndSplineSet
Substitution2: "'c2sc' Capitals to Small Capitals lookup 9 subtable" l.sc
Position2: "'cpsp' Capital Spacing lookup 0 subtable" dx=2 dy=0 dh=5 dv=0
EndChar

StartChar: M
Encoding: 77 77 46
Width: 881
GlyphClass: 2
Flags: MW
HStem: -3 21G
AnchorPoint: "Anker-5" 416 721 basechar 0
AnchorPoint: "Anker-4" 417 804 basechar 0
AnchorPoint: "Anker-3" 393 -110 basechar 0
AnchorPoint: "Anker-2" 107 2 basechar 0
LayerCount: 2
Fore
SplineSet
133 662 m 1
 201.002 661.999 l 1
 279.075 500.407 359.164 345.66 445.843 185.351 c 1
 703.002 662 l 1
 767.002 662 l 1
 795.002 419 814.002 214 845.002 -3 c 1
 830.002 0 799.002 0 784.002 0 c 0
 769.002 0 740.002 0 725.002 -3 c 1
 711.349 162.781 698.647 315.248 679.478 472.949 c 1
 595.61 318.153 511.105 166.678 438.001 0.000976562 c 1
 398.001 0.000976562 l 1
 331.005 142.139 253.354 290.017 177.663 438.436 c 1
 160.271 286.358 138.905 93.8008 138 -3 c 1
 127 0 101 0 90 0 c 0
 78 0 52 0 41 -3 c 1
 74 207 112 461 133 662 c 1
EndSplineSet
Substitution2: "'c2sc' Capitals to Small Capitals lookup 9 subtable" m.sc
Position2: "'cpsp' Capital Spacing lookup 0 subtable" dx=2 dy=0 dh=5 dv=0
EndChar

StartChar: N
Encoding: 78 78 47
Width: 756
GlyphClass: 2
Flags: MW
HStem: -3 21G<92 92 182 182> 645 3<91 93>
VStem: 101 73<200 439> 593 74<178 445>
AnchorPoint: "Anker-5" 345 721 basechar 0
AnchorPoint: "Anker-4" 346 804 basechar 0
AnchorPoint: "Anker-3" 348 -109 basechar 0
AnchorPoint: "Anker-2" 124 -3 basechar 0
LayerCount: 2
Fore
SplineSet
101 445 m 2
 101 520 99 588 91 645 c 1
 93 648 l 1
 93 648 130 645 164 645 c 0
 168.5 645 198 647 198 647 c 1
 541 203 l 2
 584.323 146.92 593 123.553 593 178 c 2
 593 445 l 2
 593 520 591 588 583 645 c 1
 565 648 l 1
 565 648 605.667 645 630 645 c 0
 652.333 645 656 648 656 648 c 1
 677 645 l 1
 669 592 667 520 667 445 c 2
 667 21 l 2
 667 2 640 -10 626 -10 c 0
 577 -10 553.834 -2.2168 505.388 59 c 2
 192 455 l 2
 154.887 503.029 174 499.961 174 439 c 2
 174 200 l 2
 174 125 176 57 184 0 c 1
 182 -3 l 1
 182 -3 161.333 0 137 0 c 0
 114.667 0 92 -3 92 -3 c 1
 91 0 l 1
 99 53 101 125 101 200 c 2
 101 445 l 2
EndSplineSet
Substitution2: "'c2sc' Capitals to Small Capitals lookup 9 subtable" n.sc
Position2: "'cpsp' Capital Spacing lookup 0 subtable" dx=2 dy=0 dh=5 dv=0
EndChar

StartChar: O
Encoding: 79 79 48
Width: 759
GlyphClass: 2
Flags: MW
HStem: -10 53<338 455 338 485.075> 605 53<316 434.5>
VStem: 42 141<231 408> 576 141<229 414>
AnchorPoint: "Anker-5" 365 721 basechar 0
AnchorPoint: "Anker-4" 366 804 basechar 0
AnchorPoint: "Anker-3" 361 -113 basechar 0
AnchorPoint: "Anker-2" 361 0 basechar 0
LayerCount: 2
Fore
SplineSet
364 605 m 0
 268 605 183 537 183 327 c 0
 183 135 278 43 398 43 c 0
 512 43 576 131 576 310 c 0
 576 518 505 605 364 605 c 0
717 329 m 0
 717 129 592.149 -10 378 -10 c 0
 180 -10 42 121.989 42 310 c 0
 42 506 174 658 377 658 c 0
 590 658 717 527 717 329 c 0
EndSplineSet
Substitution2: "'c2sc' Capitals to Small Capitals lookup 9 subtable" o.sc
Position2: "'cpsp' Capital Spacing lookup 0 subtable" dx=2 dy=0 dh=5 dv=0
EndChar

StartChar: P
Encoding: 80 80 49
Width: 583
GlyphClass: 2
Flags: MW
HStem: -3 21G<94 94 237 237> 282 43<285.5 346.5 285.5 394> 609 43<303 343.5>
VStem: 103 126<200 292 335 445 445 482.5> 420 139<443.5 515.5 443.5 531.5>
AnchorPoint: "Anker-5" 276 720 basechar 0
AnchorPoint: "Anker-4" 277 803 basechar 0
AnchorPoint: "Anker-3" 240 -110 basechar 0
AnchorPoint: "Anker-2" 150 -3 basechar 0
LayerCount: 2
Fore
SplineSet
229 565 m 2
 229 335 l 1
 242 328 273 325 298 325 c 0
 395 325 420 360 420 468 c 0
 420 595 378 609 309 609 c 0
 237 609 229 594 229 565 c 2
103 445 m 2
 103 520 101 588 93 645 c 1
 95 648 l 1
 95 648 131 645 165 645 c 0
 195 645 290 652 316 652 c 0
 501 652 559 545 559 486 c 0
 559 401 485 282 303 282 c 0
 268 282 251 285 229 292 c 1
 229 200 l 2
 229 125 231 57 239 0 c 1
 237 -3 l 1
 237 -3 199 0 165 0 c 0
 130 0 94 -3 94 -3 c 1
 93 0 l 1
 101 54 103 124.999 103 200 c 2
 103 445 l 2
EndSplineSet
Substitution2: "'c2sc' Capitals to Small Capitals lookup 9 subtable" p.sc
Position2: "'cpsp' Capital Spacing lookup 0 subtable" dx=2 dy=0 dh=5 dv=0
EndChar

StartChar: Q
Encoding: 81 81 50
Width: 759
GlyphClass: 2
Flags: MW
HStem: -10 53 605 53
VStem: 42 141 576 141
AnchorPoint: "Anker-5" 346 720 basechar 0
AnchorPoint: "Anker-4" 348 803 basechar 0
LayerCount: 2
Fore
SplineSet
364 605 m 0
 268 605 183 537 183 327 c 0
 183 135 278 43 398 43 c 0
 512 43 576 131 576 310 c 0
 576 518 505 605 364 605 c 0
479.596 1.74121 m 1
 448.445 -5.95703 414.52 -10.002 377.999 -10.002 c 0
 179.999 -10.002 41.999 121.987 41.999 309.998 c 0
 41.999 505.998 173.999 657.998 376.999 657.998 c 0
 589.999 657.998 716.999 526.998 716.999 328.998 c 0
 716.999 201.422 666.198 98.666 573.824 40.9756 c 1
 629.571 8.25293 704.197 -39.3877 799.999 -72.001 c 1
 799.999 -78.001 l 1
 763.999 -97.001 724.999 -129.001 705.999 -144.001 c 1
 596.957 -82.0449 603.486 -64.2598 479.596 1.74121 c 1
EndSplineSet
Substitution2: "'c2sc' Capitals to Small Capitals lookup 9 subtable" q.sc
Position2: "'cpsp' Capital Spacing lookup 0 subtable" dx=2 dy=0 dh=5 dv=0
EndChar

StartChar: R
Encoding: 82 82 51
Width: 642
GlyphClass: 2
Flags: MW
HStem: -3 21G 286 53<231 241.405> 604 48
VStem: 103 128<199.998 286 339 444.998 444.998 482.498> 422 139<426.447 537>
AnchorPoint: "Anker-5" 268 725 basechar 0
AnchorPoint: "Anker-4" 269 808 basechar 0
AnchorPoint: "Anker-3" 258 -111 basechar 0
AnchorPoint: "Anker-2" 148 -1 basechar 0
LayerCount: 2
Fore
SplineSet
314 604 m 0
 243 604 231 589 231 560 c 2
 231 339 l 1
 279 339 l 2
 376 339 422 353 422 478 c 0
 422 596 375 604 314 604 c 0
231 286 m 1
 231 199.998 l 2
 231 124.998 233 56.998 241 -0.00195312 c 1
 239 -3.00195 l 1
 239 -3.00195 201 -0.00195312 167 -0.00195312 c 0
 132 -0.00195312 94 -3.00195 94 -3.00195 c 1
 93 -0.00195312 l 1
 101 53.998 103 124.998 103 199.998 c 2
 103 444.998 l 2
 103 519.998 101 587.998 93 644.998 c 1
 95 647.998 l 1
 95 647.998 133 644.998 167 644.998 c 0
 197 644.998 288 651.998 313 651.998 c 0
 436.833 651.998 561 617.398 561 478.998 c 0
 561 373.896 493.546 325.597 409.986 303.68 c 1
 473.44 220.669 581.2 57.5088 632 -0.000976562 c 1
 630 -3.00098 l 1
 610 -0.000976562 577 -0.000976562 557 -0.000976562 c 0
 538 -0.000976562 508 -0.000976562 489 -3.00098 c 1
 478 30.999 432 103.999 382 175.999 c 0
 354.558 214.949 325.549 254.683 296.359 287.569 c 1
 273.883 286.354 251.81 286 231 286 c 1
EndSplineSet
Substitution2: "'ss02' Stilgruppe 2 lookup 18 subtable" R.alt
Substitution2: "'c2sc' Capitals to Small Capitals lookup 9 subtable" r.sc
AlternateSubs2: "'aalt' Access All Alternates lookup 0 subtable" R.alt r.sc
Position2: "'cpsp' Capital Spacing lookup 0 subtable" dx=2 dy=0 dh=5 dv=0
EndChar

StartChar: S
Encoding: 83 83 52
Width: 522
GlyphClass: 2
Flags: MW
HStem: -10 52<214 284 214 321.556> 609 49<228.774 292>
VStem: 54 116<470.5 538> 354 127<135 190.55>
AnchorPoint: "Anker-5" 254 720 basechar 0
AnchorPoint: "Anker-4" 255 803 basechar 0
AnchorPoint: "Anker-3" 237 -111 basechar 0
AnchorPoint: "Anker-2" 217 2 basechar 0
LayerCount: 2
Fore
SplineSet
250 42 m 0
 318 42 354 79.9717 354 151 c 0
 354 230.101 328 261 267 285 c 0
 176.271 320.697 54 373 54 485 c 0
 54 591 152 658 265 658 c 0
 387 658 444 613 444 613 c 1
 446 610 l 1
 437 580 430 531 426 495 c 1
 416 494 l 1
 388 556 328 609 256 609 c 0
 201.548 609 170 573 170 512 c 0
 170 429 240 399 282 384 c 0
 366 354 481 302 481 186 c 0
 481 84 402.112 -10 241 -10 c 0
 119 -10 39 35 39 35 c 1
 37 38 l 1
 45 68 53 119 57 155 c 1
 67 156 l 1
 95 94 178 42 250 42 c 0
EndSplineSet
Substitution2: "'c2sc' Capitals to Small Capitals lookup 9 subtable" s.sc
Position2: "'cpsp' Capital Spacing lookup 0 subtable" dx=2 dy=0 dh=5 dv=0
EndChar

StartChar: T
Encoding: 84 84 53
Width: 582
GlyphClass: 2
Flags: MW
HStem: -3 21G<218 218 363 363> 577 68<152 219 363 430>
VStem: 227 128<200 436>
AnchorPoint: "Anker-5" 268 720 basechar 0
AnchorPoint: "Anker-4" 270 803 basechar 0
AnchorPoint: "Anker-3" 273 -107 basechar 0
AnchorPoint: "Anker-2" 266 1 basechar 0
LayerCount: 2
Fore
SplineSet
227 436 m 2
 227 453 226 553 219 577 c 1
 85 577 17 565 17 565 c 1
 15 569 l 1
 17 584 17 617 15 645 c 1
 17 648 l 1
 33 646 56 645 77 645 c 2
 505 645 l 2
 526 645 549 646 565 648 c 1
 567 645 l 1
 565 617 565 584 567 569 c 1
 565 565 l 1
 565 565 497 577 363 577 c 1
 356 553 355 453 355 436 c 2
 355 200 l 2
 355 125 357 57 365 0 c 1
 363 -3 l 1
 363 -3 325 0 291 0 c 0
 256 0 218 -3 218 -3 c 1
 217 0 l 1
 225 54 227 125 227 200 c 2
 227 436 l 2
EndSplineSet
Substitution2: "'c2sc' Capitals to Small Capitals lookup 9 subtable" t.sc
Position2: "'cpsp' Capital Spacing lookup 0 subtable" dx=2 dy=0 dh=5 dv=0
EndChar

StartChar: U
Encoding: 85 85 54
Width: 703
GlyphClass: 2
Flags: MW
HStem: -10 60<290.438 439.506 290.438 441> 628 20G<78 78 223 223 523 523 625 625>
VStem: 86 128<236 269 269 445> 531 85<277 295 295 445>
AnchorPoint: "Anker-5" 345 722 basechar 0
AnchorPoint: "Anker-4" 346 805 basechar 0
AnchorPoint: "Anker-3" 328 -109 basechar 0
AnchorPoint: "Anker-2" 328 4 basechar 0
LayerCount: 2
Fore
SplineSet
531 445 m 2
 531 520 529 588 521 645 c 1
 523 648 l 1
 523 648 549.667 645 574 645 c 0
 596.333 645 625 648 625 648 c 1
 626 645 l 1
 618 592 616 520 616 445 c 2
 616 295 l 2
 616 108 540 -10 342 -10 c 0
 237.693 -10 86 32 86 236 c 2
 86 445 l 2
 86 520 84 588 76 645 c 1
 78 648 l 1
 78 648 116 645 150 645 c 0
 185 645 223 648 223 648 c 1
 224 645 l 1
 216 592 214 520 214 445 c 2
 214 269 l 2
 214 194 217.876 50 363 50 c 0
 516.013 50 531 165 531 277 c 2
 531 445 l 2
EndSplineSet
Substitution2: "'c2sc' Capitals to Small Capitals lookup 9 subtable" u.sc
Position2: "'cpsp' Capital Spacing lookup 0 subtable" dx=2 dy=0 dh=5 dv=0
EndChar

StartChar: V
Encoding: 86 86 55
Width: 652
GlyphClass: 2
Flags: MW
HStem: -10 21G<289.999 338.999 289.999 289.999> 628 20G<633.999 633.999>
AnchorPoint: "Anker-5" 329 722 basechar 0
AnchorPoint: "Anker-4" 331 805 basechar 0
AnchorPoint: "Anker-3" 303 -108 basechar 0
AnchorPoint: "Anker-2" 303 3 basechar 0
LayerCount: 2
Fore
SplineSet
344.113 178.757 m 1
 412.957 337.706 496.762 531.086 527.999 648 c 1
 539.999 645 587.999 645 598.999 645 c 0
 609.999 645 621.999 645 633.999 648 c 1
 338.999 -10 l 1
 289.999 -10 l 1
 197.999 209 65.999 547 15.999 648 c 1
 32.999 645 79.999 645 96.999 645 c 0
 113.999 645 155.999 645 172.999 648 c 1
 182.357 615.246 227.673 454.135 344.113 178.757 c 1
EndSplineSet
Substitution2: "'c2sc' Capitals to Small Capitals lookup 9 subtable" v.sc
AlternateSubs2: "'aalt' Access All Alternates lookup 0 subtable" V.alt
Position2: "'cpsp' Capital Spacing lookup 0 subtable" dx=2 dy=0 dh=5 dv=0
EndChar

StartChar: W
Encoding: 87 87 56
Width: 993
GlyphClass: 2
Flags: MW
HStem: -10 21G<290 360 290 290 631 680 631 631> 628 20G<975 975>
AnchorPoint: "Anker-5" 429 722 basechar 0
AnchorPoint: "Anker-4" 430 805 basechar 0
AnchorPoint: "Anker-3" 449 -107 basechar 0
AnchorPoint: "Anker-2" 295 0 basechar 0
LayerCount: 2
Fore
SplineSet
685.186 178.462 m 1
 754.267 337.37 838.087 530.712 869 648 c 1
 881 645 909 645 920 645 c 0
 931 645 963 645 975 648 c 1
 680 -10 l 1
 631 -10 l 1
 501.605 305.851 l 1
 360 -10 l 1
 290 -10 l 1
 198 209 66 547 16 648 c 1
 33 645 80 645 97 645 c 0
 114 645 151 645 168 648 c 1
 177.762 613.833 227.547 442.443 355.497 144.992 c 1
 463.764 398.729 l 1
 418.936 508.316 379.595 602.358 357 648 c 1
 374 645 421 645 438 645 c 0
 455 645 497 645 514 648 c 1
 523.479 614.823 568.899 454.051 685.186 178.462 c 1
EndSplineSet
Substitution2: "'c2sc' Capitals to Small Capitals lookup 9 subtable" w.sc
AlternateSubs2: "'aalt' Access All Alternates lookup 0 subtable" W.alt
Position2: "'cpsp' Capital Spacing lookup 0 subtable" dx=2 dy=0 dh=5 dv=0
EndChar

StartChar: X
Encoding: 88 88 57
Width: 613
GlyphClass: 2
Flags: MW
HStem: -2 28 586 27
AnchorPoint: "Anker-5" 331 722 basechar 0
AnchorPoint: "Anker-4" 332 805 basechar 0
AnchorPoint: "Anker-3" 307 -107 basechar 0
AnchorPoint: "Anker-2" 97 0 basechar 0
LayerCount: 2
Fore
SplineSet
586 -3 m 1
 568 0 525.001 -0.000976562 507.001 -0.000976562 c 0
 489.001 -0.000976562 446.001 -0.000976562 428.001 -3.00098 c 1
 378.791 91.4834 336.97 168.706 284.264 257.944 c 1
 231.469 176.827 177.646 88.6523 128.001 -3.00098 c 1
 117.001 -0.000976562 98.001 -0.000976562 86.001 -0.000976562 c 0
 75.001 -0.000976562 34.001 -0.000976562 23.001 -3.00098 c 1
 245.19 323.023 l 1
 38.001 647.999 l 1
 55.001 644.999 98.001 644.999 115.001 644.999 c 0
 132.001 644.999 175.001 644.999 193.001 647.999 c 1
 219.007 594.084 256.817 529.414 318.409 429.08 c 1
 381.531 520.866 405.99 559.227 454 648 c 1
 465 645 506 645 517 645 c 0
 528 645 548 645 559 648 c 1
 356.984 366.549 l 1
 586 -3 l 1
EndSplineSet
Substitution2: "'c2sc' Capitals to Small Capitals lookup 9 subtable" x.sc
Position2: "'cpsp' Capital Spacing lookup 0 subtable" dx=2 dy=0 dh=5 dv=0
EndChar

StartChar: Y
Encoding: 89 89 58
Width: 633
GlyphClass: 2
Flags: MW
HStem: -3 21G 628 20G
VStem: 245.956 130.348
AnchorPoint: "Anker-5" 293 722 basechar 0
AnchorPoint: "Anker-4" 295 805 basechar 0
AnchorPoint: "Anker-3" 295 -109 basechar 0
AnchorPoint: "Anker-2" 295 1 basechar 0
LayerCount: 2
Fore
SplineSet
376.304 285.593 m 1
 377.191 186.484 379.938 44.9209 383.999 -3.00098 c 1
 367.999 -0.000976562 325.999 -0.000976562 310.999 -0.000976562 c 0
 295.999 -0.000976562 254.999 -0.000976562 238.999 -3.00098 c 1
 244.711 52.4805 245.762 177.437 245.955 275.073 c 1
 207.883 340.188 55.9834 588.021 15.999 647.998 c 1
 32.999 644.998 76.999 644.998 93.999 644.998 c 0
 110.999 644.998 154.999 644.998 171.999 647.998 c 1
 222.787 548.27 277.839 458.772 337.154 357.462 c 1
 392.282 445.059 453.681 549.72 501 647.999 c 1
 513 644.999 551 644.999 564 644.999 c 0
 576 644.999 593 644.999 606 647.999 c 1
 485.299 463.456 417.336 365.484 376.304 285.593 c 1
EndSplineSet
Substitution2: "'c2sc' Capitals to Small Capitals lookup 9 subtable" y.sc
Position2: "'cpsp' Capital Spacing lookup 0 subtable" dx=2 dy=0 dh=5 dv=0
EndChar

StartChar: Z
Encoding: 90 90 59
Width: 625
GlyphClass: 2
Flags: MW
HStem: 0 63<119 253.5 188 253.5 188 517> 0 74<134 588 588 590> 571 74<58 60> 581.832 63.168
AnchorPoint: "Anker-5" 319 720 basechar 0
AnchorPoint: "Anker-4" 320 803 basechar 0
AnchorPoint: "Anker-3" 287 -107 basechar 0
AnchorPoint: "Anker-2" 287 4 basechar 0
LayerCount: 2
Fore
SplineSet
188 63 m 1x90
 319 63 588 74 588 74 c 1x40
 590 71 l 1
 589 63 588 48 588 38 c 0
 588 28 589 14 590 0 c 1x80
 588 -3 l 1
 572 -1 552.75 0 517 0 c 2x40
 134 0 l 2
 104 0 5 -3 5 -3 c 1
 2 1 l 1
 13 15 22 30 28 38 c 2
 417 579 l 2
 417.923 580.283 419.823 581.196 422.312 581.832 c 1x90
 310.934 580.744 199.911 574.634 60 571 c 1x20
 58 574 l 1
 59 582 60 597 60 607 c 0
 60 617 59 631 58 645 c 1x10
 60 648 l 1
 76 646 99 645 121 645 c 2x20
 466 645 l 2
 497 645 575.5 648.75 592 651 c 0
 596.5 651 598 649 598 645 c 0
 598 634 588 619 568 591 c 2
 193 72 l 2
 188 63 188 68 188 63 c 1x90
EndSplineSet
Substitution2: "'c2sc' Capitals to Small Capitals lookup 9 subtable" z.sc
Position2: "'cpsp' Capital Spacing lookup 0 subtable" dx=2 dy=0 dh=5 dv=0
EndChar

StartChar: bracketleft
Encoding: 91 91 60
Width: 399
GlyphClass: 2
Flags: MW
HStem: -192 38<110 363> 664 39<110 363>
VStem: 110 106<-84.5 -41 -41 552>
LayerCount: 2
Fore
SplineSet
110 -192 m 1
 110 703 l 1
 363 703 l 1
 363 664 l 1
 226 654 216 639 216 552 c 2
 216 -41 l 2
 216 -128 225 -143 363 -154 c 1
 363 -192 l 1
 110 -192 l 1
EndSplineSet
Substitution2: "'case' Case-Sensitive Forms lookup 21 subtable" bracketleft.sc
Substitution2: "'c2sc' Capitals to Small Capitals lookup 9 subtable" bracketleft.sc
AlternateSubs2: "'aalt' Access All Alternates lookup 0 subtable" bracketleft.sc
EndChar

StartChar: backslash
Encoding: 92 92 61
Width: 313
GlyphClass: 2
Flags: MW
HStem: 688 21G
LayerCount: 2
Fore
SplineSet
81 698 m 1
 311 -48 l 1
 241 -48 l 1
 11 698 l 1
 81 698 l 1
EndSplineSet
EndChar

StartChar: bracketright
Encoding: 93 93 62
Width: 399
GlyphClass: 2
Flags: MW
HStem: -192 39<36 289 36 36> 665 38<36 289>
VStem: 183 106<-41 552 552 595.5>
LayerCount: 2
Fore
SplineSet
289 703 m 1
 289 -192 l 1
 36 -192 l 1
 36 -153 l 1
 173 -143 183 -128 183 -41 c 2
 183 552 l 2
 183 639 174 654 36 665 c 1
 36 703 l 1
 289 703 l 1
EndSplineSet
Substitution2: "'case' Case-Sensitive Forms lookup 21 subtable" bracketright.sc
Substitution2: "'c2sc' Capitals to Small Capitals lookup 9 subtable" bracketright.sc
AlternateSubs2: "'aalt' Access All Alternates lookup 0 subtable" bracketright.sc
EndChar

StartChar: asciicircum
Encoding: 94 94 63
Width: 518
GlyphClass: 2
Flags: MW
HStem: 346 304<112 281 112 281 239 350 239 407>
VStem: 112 295<346 346>
LayerCount: 2
Fore
SplineSet
259 569 m 1
 169 346 l 1
 112 346 l 1
 239 650 l 1
 281 650 l 1
 407 346 l 1
 350 346 l 1
 259 569 l 1
EndSplineSet
EndChar

StartChar: underscore
Encoding: 95 95 64
Width: 486
GlyphClass: 2
Flags: MW
HStem: -154 51<5 482 5 482>
LayerCount: 2
Fore
SplineSet
482 -103 m 1
 482 -154 l 1
 5 -154 l 1
 5 -103 l 1
 482 -103 l 1
EndSplineSet
EndChar

StartChar: grave
Encoding: 96 96 65
Width: 392
GlyphClass: 2
Flags: MW
HStem: 536 168<160 263.5>
VStem: 103 173<547.5 661>
LayerCount: 2
Fore
SplineSet
198 702 m 1
 267 578 l 2
 271 571 276 560 276 552 c 0
 276 543 268 536 259 536 c 0
 251 536 241.123 541.141 224 556 c 2
 103 661 l 1
 105 672 l 1
 113 681 142 704 178 704 c 0
 183 704 194 703 198 702 c 1
EndSplineSet
Substitution2: "'case' Case-Sensitive Forms lookup 21 subtable" grave.cap
EndChar

StartChar: a
Encoding: 97 97 66
Width: 518
GlyphClass: 2
Flags: MW
HStem: -10 60<134 222> 385 54<209.5 258.5>
VStem: 42 119<93.5 128 93.5 132> 311 106<75 219>
AnchorPoint: "Anker-5" 229 550 basechar 0
AnchorPoint: "Anker-4" 228 645 basechar 0
AnchorPoint: "Anker-3" 215 -108 basechar 0
AnchorPoint: "Anker-2" 186 -5 basechar 0
AnchorPoint: "Anker-1" 467 16 basechar 0
LayerCount: 2
Fore
SplineSet
311 219 m 1
 231 198 l 2
 175.172 183.345 161 149 161 107 c 0
 161 80 178 50 208 50 c 0
 236 50 268 72 294 93 c 0
 302 99 311 106 311 119 c 2
 311 219 l 1
417 85 m 0
 417 65 429.999 54 440.999 54 c 0
 454.999 54 467.999 68 476.999 75 c 1
 479.999 73 l 2
 491.361 67.2744 496.683 57.0137 501 46 c 1
 470 6 428.051 -10 389 -10 c 0
 346 -10 318 16 310 48 c 1
 308 48 l 1
 258 3 208.115 -10 169 -10 c 0
 99 -10 42 24 42 98 c 0
 42 166 122.039 223.837 218 247 c 2
 305 268 l 2
 308 269 311 273 311 280 c 0
 311 357.058 285 385 232 385 c 0
 187 385 145 351 119 306 c 1
 96 307 l 1
 70 373 l 1
 73 377 l 1
 97 398 169 439 241 439 c 0
 331 439 421 406.004 421 277 c 0
 421 266 417 114 417 85 c 0
EndSplineSet
Substitution2: "'sinf' Wissenschaftliche Indices lookup 8 subtable" a.inferior
Substitution2: "'sups' Superscript lookup 7 subtable" a.superior
Substitution2: "'smcp' Gemeine nach Kapit+AOQA-lchen lookup 3 subtable" a.sc
AlternateSubs2: "'aalt' Access All Alternates lookup 0 subtable" a.sc
EndChar

StartChar: b
Encoding: 98 98 67
Width: 554
GlyphClass: 2
Flags: MW
HStem: -10 53<252.5 315.5 252.5 325> 376 63<294 328.5> 678 20G<194 197.167>
VStem: 75 118<90 90 90 334 384 482 482 500> 394 123<167 272.5>
AnchorPoint: "Anker-5" 314 553 basechar 0
AnchorPoint: "Anker-3" 296 -108 basechar 0
LayerCount: 2
Fore
SplineSet
193 90 m 1
 213 65 237 43 268 43 c 0
 363 43 394 110 394 224 c 0
 394 321 359 376 298 376 c 0
 287 376 232 374 193 334 c 1
 193 90 l 1
193 500 m 2
 193 384 l 1
 227 421 270 439 318 439 c 0
 405 439 517 364 517 242 c 0
 517 83 376 -10 274 -10 c 0
 231 -10 201 2 172 27 c 1
 157.5 14 134 2 125 -12 c 1
 115.5 -12 76 -10.75 70 -7 c 1
 74.25 14.75 75 32 75 71 c 2
 75 482 l 2
 75 558 72.667 627.333 65 670 c 1
 67 673 l 1
 107.5 676 168.931 687.972 194 698 c 1
 200.333 698 203 695 203 688 c 0
 195.333 626.667 193 574 193 500 c 2
EndSplineSet
Substitution2: "'sinf' Wissenschaftliche Indices lookup 8 subtable" b.inferior
Substitution2: "'sups' Superscript lookup 7 subtable" b.superior
Substitution2: "'smcp' Gemeine nach Kapit+AOQA-lchen lookup 3 subtable" b.sc
AlternateSubs2: "'aalt' Access All Alternates lookup 0 subtable" b.sc
EndChar

StartChar: c
Encoding: 99 99 68
Width: 466
GlyphClass: 2
Flags: MW
HStem: -10 65<253.997 306.21> 385 54<246 298.25>
VStem: 36 123<180.998 279>
AnchorPoint: "Anker-5" 275 550 basechar 0
AnchorPoint: "Anker-4" 272 645 basechar 0
AnchorPoint: "Anker-3" 266 -113 basechar 0
AnchorPoint: "Anker-2" 282 3 basechar 0
AnchorPoint: "Anker-1" 389 51 basechar 0
LayerCount: 2
Fore
SplineSet
279 385 m 0
 213 385 159 336.122 159 234 c 0
 159 127.995 215.993 55 292 55 c 0
 332.012 55 371 68 409 116 c 1
 413 116 l 1
 425.666 109.094 431.764 100.534 434 91 c 1
 408 36 344.42 -10 268 -10 c 0
 122 -10 36 79 36 208 c 0
 36 350 146 439 280 439 c 0
 330 439 393 423 424 407 c 1
 426 404 l 1
 403 303 l 1
 385 302 l 1
 358.5 347.5 317.5 385 279 385 c 0
EndSplineSet
Substitution2: "'sinf' Wissenschaftliche Indices lookup 8 subtable" c.inferior
Substitution2: "'sups' Superscript lookup 7 subtable" c.superior
Substitution2: "'smcp' Gemeine nach Kapit+AOQA-lchen lookup 3 subtable" c.sc
AlternateSubs2: "'aalt' Access All Alternates lookup 0 subtable" c.sc
EndChar

StartChar: d
Encoding: 100 100 69
Width: 561
GlyphClass: 2
Flags: MW
HStem: -10 66<236 261> -3 21G<383 386 503 503> 385 54<260.8 306 230.9 308.5> 678 20G<489 492.167>
VStem: 40 123<158.5 271.003> 370 118<64 192 154.5 192 192 326 326 326 417 482 482 500>
AnchorPoint: "Anker-5" 259 550 basechar 0
AnchorPoint: "Anker-4" 258 645 basechar 0
AnchorPoint: "Anker-3" 299 -107 basechar 0
AnchorPoint: "Anker-1" 352 20 basechar 0
LayerCount: 2
Fore
SplineSet
370 118 m 1xbc
 370 326 l 1
 346 364 332 385 285 385 c 0
 236.6 385 163 371.027 163 221 c 0
 163 96 209 56 263 56 c 0
 303.5 56 333.5 71.5 370 118 c 1xbc
370 64 m 1
 334 17.5 285 -10 237 -10 c 0xbc
 129 -10 40 80 40 203 c 0
 40 339.006 165.8 439 296 439 c 0
 316 439 347 430 370 417 c 1
 370 482 l 2
 370 558 367.667 627.333 360 670 c 1
 362 673 l 1
 402.5 676 463.931 687.972 489 698 c 1
 495.333 698 498 695 498 688 c 0
 490.333 626.667 488 574 488 500 c 2
 488 192 l 2
 488 117 497 43 505 0 c 1
 503 -3 l 1
 490 -1 452.127 0 439.5 0 c 0
 425 0 399.333 -1.33301 386 -3 c 0x7c
 380 -3 377 -2 377 0 c 2
 372 64 l 1
 370 64 l 1
EndSplineSet
Substitution2: "'sinf' Wissenschaftliche Indices lookup 8 subtable" d.inferior
Substitution2: "'sups' Superscript lookup 7 subtable" d.superior
Substitution2: "'smcp' Gemeine nach Kapit+AOQA-lchen lookup 3 subtable" d.sc
AlternateSubs2: "'aalt' Access All Alternates lookup 0 subtable" d.sc
EndChar

StartChar: e
Encoding: 101 101 70
Width: 470
GlyphClass: 2
Flags: MW
HStem: -10 68<260.482 305> 243 44<163 306 306 311 163 429 160 306> 390 49<246.5 276>
VStem: 34 126<172.5 243 172.5 275> 320 127<296.5 302 254.5 336.5>
AnchorPoint: "Anker-5" 264 550 basechar 0
AnchorPoint: "Anker-4" 257 645 basechar 0
AnchorPoint: "Anker-3" 256 -108 basechar 0
AnchorPoint: "Anker-1" 421 41 basechar 0
LayerCount: 2
Fore
SplineSet
163 287 m 1
 306 287 l 2
 316 287 320 292 320 301 c 0
 320 372 294 390 258 390 c 0
 235 390 178 376 163 287 c 1
434 114 m 1
 447.735 106.409 454 94 454 79 c 1
 416 27 341 -10 269 -10 c 0
 120 -10 34 84 34 199 c 0
 34 351 163 439 258 439 c 0
 390 439 447 344 447 260 c 0
 447 249 440 243 429 243 c 2
 160 243 l 1
 160 102 231.965 58 289 58 c 0
 344 58 399 76 434 114 c 1
EndSplineSet
Substitution2: "'sinf' Wissenschaftliche Indices lookup 8 subtable" e.inferior
Substitution2: "'sups' Superscript lookup 7 subtable" e.superior
Substitution2: "'smcp' Gemeine nach Kapit+AOQA-lchen lookup 3 subtable" e.sc
AlternateSubs2: "'aalt' Access All Alternates lookup 0 subtable" e.sc
EndChar

StartChar: f
Encoding: 102 102 71
Width: 346
GlyphClass: 2
Flags: MW
HStem: -3 21G<84 84 219 219> 376 53<25 93 45 93 45 93 211 304> 629 69<261.996 349.5>
VStem: 93 118<200 376 429 439>
AnchorPoint: "Anker-3" 151 -111 basechar 0
AnchorPoint: "Anker-2" 152 10 basechar 0
LayerCount: 2
Fore
SplineSet
162 622 m 0
 204.028 665.939 277 698 340 698 c 0
 359 698 377 694 385 689 c 1
 386 686 l 1
 375 667 365 612 358 585 c 1
 347 584 l 1
 336 604 318 629 289 629 c 0
 234.991 629 206 590.172 206 535 c 0
 206 512.977 211 464.5 211 439 c 2
 211 429 l 1
 319 429 l 2
 324 429 327 427 327 423 c 2
 327 389 l 2
 327 380 313 376 304 376 c 2
 211 376 l 1
 211 200 l 2
 211 125 212.5 57 221 0 c 1
 219 -3 l 1
 219 -3 186.333 0 152 0 c 0
 117 0 84 -3 84 -3 c 1
 83 0 l 1
 91.5 53.5 93 125 93 200 c 2
 93 376 l 1
 27 376 l 2
 23 376 22 377 22 382 c 2
 22 409 l 2
 22 417 27 429 45 429 c 2
 93 429 l 1
 93 459 l 2
 93 537 118 576 162 622 c 0
EndSplineSet
Substitution2: "'sinf' Wissenschaftliche Indices lookup 8 subtable" f.inferior
Substitution2: "'sups' Superscript lookup 7 subtable" f.superior
Substitution2: "'smcp' Gemeine nach Kapit+AOQA-lchen lookup 3 subtable" f.sc
AlternateSubs2: "'aalt' Access All Alternates lookup 0 subtable" f.sc
EndChar

StartChar: g
Encoding: 103 103 72
Width: 521
GlyphClass: 2
Flags: MW
HStem: -238 42 -19.9997 75.9997 -17 80 141 43 396 43
VStem: 32 108 59 108 64 77 316 107 392 103
AnchorPoint: "Anker-5" 220 549 basechar 0
AnchorPoint: "Anker-4" 220 645 basechar 0
AnchorPoint: "Anker-3" 225 -88 basechar 0
LayerCount: 2
Fore
SplineSet
423 289 m 0xba80
 423 207.976 359.018 140.999 243.001 140.999 c 0
 209.717 140.999 186.144 143.664 165.001 154.993 c 0
 162.641 156.258 160.311 157.593 158.001 158.999 c 1
 147.001 141.999 141.001 118.999 141.001 98.999 c 0xb980
 141.001 55.999 171.001 55.999 199.001 55.999 c 0
 204.001 55.999 214.001 56.999 228.001 57.999 c 0
 251.001 60.999 274.001 62.999 291.001 62.999 c 0
 382.989 62.999 495.001 34.0781 495.001 -68.001 c 0
 495.001 -176.001 334.001 -238.001 205.001 -238.001 c 0
 132.001 -238.001 32.001 -211.001 32.001 -124.001 c 0xbc40
 32.001 -81.001 69.001 -35.001 120.001 -3.00098 c 1
 91.001 4.99902 64.001 31.9512 64.001 73.999 c 0xb9
 64.001 107.999 79.001 152.999 106.001 176.999 c 1
 100.19 182.999 l 2
 78.001 200.999 59.001 236.951 59.001 286.999 c 0
 59.001 373.005 136.001 438.999 244.001 438.999 c 0
 265.465 438.999 285.34 436.037 303.271 430.441 c 1
 377.82 434.318 434.166 444.945 482 448.999 c 1
 485 445.999 l 1
 483 436.999 482 422.999 482 413.999 c 0
 482 404.999 483 393.999 485 384.999 c 1
 482 381.999 l 1
 445.808 385.671 399.754 389.068 368.661 391.469 c 1
 400.681 368.009 423 327.586 423 289 c 0xba80
316.001 278.999 m 0
 316.001 353.999 293.001 395.999 233.001 395.999 c 0
 181.001 395.999 167.001 346.999 167.001 301.999 c 0x9a80
 167.001 237.999 180.001 183.999 246.001 183.999 c 0
 281.001 183.999 316.001 207.999 316.001 278.999 c 0
187.859 -19.7041 m 1
 190.04 -19.4844 192.505 -19.1484 189.102 -18.7119 c 1
 187.859 -19.7041 l 1
187.491 -20.001 m 1xdc40
 151.942 -48.6338 140.002 -71.4072 140.002 -104.001 c 0
 140.002 -172.001 199.002 -196.001 233.002 -196.001 c 0
 319.002 -196.001 392.002 -152.001 392.002 -91.001 c 0
 392.002 -21.8203 311.959 -17.001 256.002 -17.001 c 0xbc40
 242.278 -17.001 216.786 -19.9678 187.491 -20.001 c 1xdc40
EndSplineSet
Substitution2: "'sinf' Wissenschaftliche Indices lookup 8 subtable" g.inferior
Substitution2: "'sups' Superscript lookup 7 subtable" g.superior
Substitution2: "'smcp' Gemeine nach Kapit+AOQA-lchen lookup 3 subtable" g.sc
AlternateSubs2: "'aalt' Access All Alternates lookup 0 subtable" g.sc
EndChar

StartChar: h
Encoding: 104 104 73
Width: 576
GlyphClass: 2
Flags: MW
HStem: -3 21G<74 74 209 209 367 367 502 502> 373 66<326.5 329> 678 20G<202 205.167>
VStem: 83 118<180 300 360 481 481 501> 376 118<180 276 276 284 141.879 316.5>
AnchorPoint: "Anker-5" 338 550 basechar 0
AnchorPoint: "Anker-4" 337 645 basechar 0
AnchorPoint: "Anker-3" 297 -111 basechar 0
AnchorPoint: "Anker-1" 463 10 basechar 0
LayerCount: 2
Fore
SplineSet
376 180 m 2
 376 276 l 2
 376 357 357 373 301 373 c 0
 272 373 249 347 201 300 c 1
 201 180 l 2
 201 104 202.5 57 211 0 c 1
 209 -3 l 1
 209 -3 176.333 0 142 0 c 0
 107 0 74 -3 74 -3 c 1
 73 0 l 1
 81.5 53.5 83 105.477 83 180 c 2
 83 481 l 2
 83 557 80.667 627.333 73 670 c 1
 75 673 l 1
 115.5 676 176.931 687.972 202 698 c 1
 208.333 698 211 695 211 688 c 0
 203.333 626.667 201 575 201 501 c 2
 201 360 l 1
 268 427 307 439 346 439 c 0
 418 439 494 387 494 284 c 2
 494 180 l 2
 494 103.759 495.5 57 504 0 c 1
 502 -3 l 1
 502 -3 469.333 0 435 0 c 0
 400 0 367 -3 367 -3 c 1
 366 0 l 1
 374.5 53.5 376 105 376 180 c 2
EndSplineSet
Substitution2: "'salt' Stilistische Alternativformen lookup 16 subtable" h.alt
Substitution2: "'sinf' Wissenschaftliche Indices lookup 8 subtable" h.inferior
Substitution2: "'sups' Superscript lookup 7 subtable" h.superior
Substitution2: "'smcp' Gemeine nach Kapit+AOQA-lchen lookup 3 subtable" h.sc
AlternateSubs2: "'aalt' Access All Alternates lookup 0 subtable" h.sc h.alt
EndChar

StartChar: i
Encoding: 105 105 74
Width: 306
GlyphClass: 2
Flags: MW
HStem: -3 21G<85 85 220 220> 419 20G<213 216> 531 138<134 172>
VStem: 84 138<0 0 581 619> 94 118<180 235 235 251 142 272.5>
AnchorPoint: "Anker-3" 136 -107 basechar 0
AnchorPoint: "Anker-2" 137 12 basechar 0
AnchorPoint: "Anker-1" 209 10 basechar 0
LayerCount: 2
Fore
SplineSet
84 600 m 0xf0
 84 638 115 669 153 669 c 0
 191 669 222 638 222 600 c 0
 222 562 191 531 153 531 c 0
 115 531 84 562 84 600 c 0xf0
94 235 m 2xe8
 94 310 92 368 84 411 c 1
 86 414 l 1
 126 417 188 429 213 439 c 1
 219 439 222 436 222 429 c 0xf0
 214 368 212 326 212 251 c 2
 212 180 l 2xe8
 212 104 214 57 222 0 c 1
 220 -3 l 1
 220 -3 187 0 153 0 c 0
 118 0 85 -3 85 -3 c 1
 84 0 l 1xf0
 92 54 94 105 94 180 c 2
 94 235 l 2xe8
EndSplineSet
Substitution2: "'sinf' Wissenschaftliche Indices lookup 8 subtable" i.inferior
Substitution2: "'sups' Superscript lookup 7 subtable" i.superior
Substitution2: "'smcp' Gemeine nach Kapit+AOQA-lchen in Latin lookup 4 subtable" idotaccent.sc
Substitution2: "'smcp' Gemeine nach Kapit+AOQA-lchen lookup 2 subtable" i.sc
AlternateSubs2: "'aalt' Access All Alternates lookup 0 subtable" i.sc
EndChar

StartChar: j
Encoding: 106 106 75
Width: 320
GlyphClass: 2
Flags: MW
HStem: -213 73<31.5 47> 419 20G<231 234> 531 138<152 190>
VStem: 102 138<411 432.5 581 619> 112 118<96 235 235 251>
LayerCount: 2
Fore
SplineSet
102 600 m 0xf0
 102 638 133 669 171 669 c 0
 209 669 240 638 240 600 c 0
 240 562 209 531 171 531 c 0
 133 531 102 562 102 600 c 0xf0
115 -54 m 0
 115 -38 112 -13 112 96 c 2
 112 235 l 2xe8
 112 310 110 368 102 411 c 1
 104 414 l 1
 144 417 206 429 231 439 c 1
 237 439 240 436 240 429 c 0xf0
 232 368 230 326.001 230 251 c 2
 230 -2 l 2xe8
 230 -74 212 -102 179 -149 c 0
 146.13 -195.814 76 -213 18 -213 c 0
 0 -213 -27 -209 -34 -205 c 1
 -35 -202 l 1
 -25 -184 -26 -124 -19 -99 c 1
 1 -98 l 1
 11 -116 18 -140 45 -140 c 0
 98 -140 115 -106 115 -54 c 0
EndSplineSet
Substitution2: "'sinf' Wissenschaftliche Indices lookup 8 subtable" j.inferior
Substitution2: "'sups' Superscript lookup 7 subtable" j.superior
Substitution2: "'smcp' Gemeine nach Kapit+AOQA-lchen lookup 3 subtable" j.sc
AlternateSubs2: "'aalt' Access All Alternates lookup 0 subtable" j.sc idotaccent.sc
EndChar

StartChar: k
Encoding: 107 107 76
Width: 552
GlyphClass: 2
Flags: MW
HStem: -3 21G<76 76 211 211 543 543> 412 20G 678 20G
VStem: 85 118<162.749 200>
AnchorPoint: "Anker-5" 266 551 basechar 0
AnchorPoint: "Anker-4" 265 646 basechar 0
AnchorPoint: "Anker-3" 253 -107 basechar 0
AnchorPoint: "Anker-2" 125 9 basechar 0
LayerCount: 2
Fore
SplineSet
85 200 m 2
 84.999 482.001 l 2
 84.999 558.001 82.666 627.334 74.999 670.001 c 1
 76.999 673.001 l 1
 117.499 676.001 178.93 687.973 203.999 698.001 c 1
 210.332 698.001 212.999 695.001 212.999 688.001 c 0
 205.332 626.668 202.999 575.001 202.999 500.001 c 2
 202.999 241.946 l 1
 210.769 243.826 218.262 248.511 227.999 256.001 c 0
 267.64 286.494 339.874 366.471 382.999 429.001 c 1
 409.999 429.001 502.999 429.001 521.999 432.001 c 1
 523.999 429.001 l 1
 459.037 373.882 376.435 278.896 337 238 c 1
 432.426 122.83 470.616 78.6338 545 0 c 1
 543 -3 l 1
 534 -1.16699 475.667 0 459 0 c 0
 442 0 394.333 -1.16699 379 -3 c 1
 308.049 95.8252 289 130 224 198 c 0
 217.808 203.504 209.722 205.695 203 206.526 c 1
 203 200 l 2
 203 124.766 204.5 57 213 0 c 1
 211 -3 l 1
 211 -3 178.333 0 144 0 c 0
 109 0 76 -3 76 -3 c 1
 75 0 l 1
 83.5 53.5 85 125.497 85 200 c 2
EndSplineSet
Substitution2: "'sinf' Wissenschaftliche Indices lookup 8 subtable" k.inferior
Substitution2: "'sups' Superscript lookup 7 subtable" k.superior
Substitution2: "'smcp' Gemeine nach Kapit+AOQA-lchen lookup 3 subtable" k.sc
AlternateSubs2: "'aalt' Access All Alternates lookup 0 subtable" k.sc
EndChar

StartChar: l
Encoding: 108 108 77
Width: 298
GlyphClass: 2
Flags: MW
HStem: -3 21G<81 81 216 216> 678 20G<209 212.167>
VStem: 90 118<200 482 482 500>
AnchorPoint: "Anker-3" 178 -107 basechar 0
AnchorPoint: "Anker-2" 149 10 basechar 0
LayerCount: 2
Fore
SplineSet
90 200 m 2
 90 482 l 2
 90 558 87.667 627.333 80 670 c 1
 82 673 l 1
 122.5 676 183.931 687.972 209 698 c 1
 215.333 698 218 695 218 688 c 0
 210.333 626.667 208 575 208 500 c 2
 208 200 l 2
 208 124.766 209.5 57 218 0 c 1
 216 -3 l 1
 216 -3 183.333 0 149 0 c 0
 114 0 81 -3 81 -3 c 1
 80 0 l 1
 88.5 53.5 90 125.497 90 200 c 2
EndSplineSet
Substitution2: "'sinf' Wissenschaftliche Indices lookup 8 subtable" l.inferior
Substitution2: "'sups' Superscript lookup 7 subtable" l.superior
Substitution2: "'smcp' Gemeine nach Kapit+AOQA-lchen lookup 3 subtable" l.sc
AlternateSubs2: "'aalt' Access All Alternates lookup 0 subtable" l.sc
EndChar

StartChar: m
Encoding: 109 109 78
Width: 839
GlyphClass: 2
Flags: MW
HStem: -3 21G<71 71 206 206 351 351 486 486 632 632 767 767> 372 67<302 316 586 604>
VStem: 80 118<180 235 235 272.333> 360 118<180 272 142 281 142 314.5> 641 118<180 280 141.883 283 141.883 316.5>
AnchorPoint: "Anker-5" 433 550 basechar 0
AnchorPoint: "Anker-4" 432 645 basechar 0
AnchorPoint: "Anker-3" 427 -105 basechar 0
AnchorPoint: "Anker-2" 139 9 basechar 0
LayerCount: 2
Fore
SplineSet
641 180 m 2
 641 283 l 2
 641 350 631 372 577 372 c 0
 538 372 525 355 477 302 c 1
 478 290 478 286 478 272 c 2
 478 180 l 2
 478 104 479.5 57 488 0 c 1
 486 -3 l 1
 486 -3 453.333 0 419 0 c 0
 384 0 351 -3 351 -3 c 1
 350 0 l 1
 358.5 53.5 360 105 360 180 c 2
 360 281 l 2
 360 348 335 372 297 372 c 0
 262 372 245 350 198 301 c 1
 198 180 l 2
 198 104 199.5 57 208 0 c 1
 206 -3 l 1
 206 -3 173.333 0 139 0 c 0
 104 0 71 -3 71 -3 c 1
 70 0 l 1
 78.5 53.5 80 105 80 180 c 2
 80 235 l 2
 80 309.667 77.667 368.333 70 411 c 1
 72 414 l 1
 112.5 417 170.931 428.972 196 439 c 1
 202.333 439 205 436 205 429 c 1
 200 398.667 195.806 360 195.806 360 c 1
 198 360 l 1
 245 410 271 439 333 439 c 0
 389 439 464 405 471 360 c 1
 528 420 559 439 613 439 c 0
 721 439 759 369 759 280 c 2
 759 180 l 2
 759 103.766 760.5 57 769 0 c 1
 767 -3 l 1
 767 -3 734.333 0 700 0 c 0
 665 0 632 -3 632 -3 c 1
 631 0 l 1
 639.5 53.5 641 105 641 180 c 2
EndSplineSet
Substitution2: "'sinf' Wissenschaftliche Indices lookup 8 subtable" m.inferior
Substitution2: "'sups' Superscript lookup 7 subtable" m.superior
Substitution2: "'smcp' Gemeine nach Kapit+AOQA-lchen lookup 3 subtable" m.sc
AlternateSubs2: "'aalt' Access All Alternates lookup 0 subtable" m.sc
EndChar

StartChar: n
Encoding: 110 110 79
Width: 579
GlyphClass: 2
Flags: MW
HStem: -3 21G<75 75 210 210 367 367 502 502> 372 67<317.5 339.5>
VStem: 84 117.999 376 118<180 269 269 281 142 304>
AnchorPoint: "Anker-5" 299 550 basechar 0
AnchorPoint: "Anker-4" 298 646 basechar 0
AnchorPoint: "Anker-3" 299 -111 basechar 0
AnchorPoint: "Anker-2" 143 9 basechar 0
LayerCount: 2
Fore
SplineSet
494 180 m 2
 494 104 495 57 504 0 c 1
 502 -3 l 1
 502 -3 469 0 435 0 c 0
 400 0 367 -3 367 -3 c 1
 366 0 l 1
 375 54 376 105 376 180 c 2
 376 269 l 2
 376 339 366 372 313 372 c 0
 269 372 252.999 358 201.999 298 c 1
 201.999 180 l 2
 201.999 104 203.5 57 212 0 c 1
 210 -3 l 1
 210 -3 177.333 0 143 0 c 0
 108 0 75 -3 75 -3 c 1
 74 0 l 1
 82.5 53.5 84 105 84 180 c 2
 84 235 l 2
 84 309.667 81.667 368.333 74 411 c 1
 76 414 l 1
 116.5 417 174.931 428.972 200 439 c 1
 206.333 439 209 436 209 429 c 1
 204 398.667 199.806 356.998 199.806 356.998 c 1
 201.999 356.998 l 1
 265.999 431.998 292 439 343 439 c 0
 433 439 494 370 494 281 c 2
 494 180 l 2
EndSplineSet
Substitution2: "'sinf' Wissenschaftliche Indices lookup 8 subtable" n.inferior
Substitution2: "'sups' Superscript lookup 7 subtable" n.superior
Substitution2: "'smcp' Gemeine nach Kapit+AOQA-lchen lookup 3 subtable" n.sc
AlternateSubs2: "'aalt' Access All Alternates lookup 0 subtable" n.sc
EndChar

StartChar: o
Encoding: 111 111 80
Width: 528
GlyphClass: 2
Flags: MW
HStem: -10 50<226 300.5 226 340.5> 389 50<216 301.5>
VStem: 36 128<189.5 271.5 189.5 273.5> 364 128<160.5 256.5>
AnchorPoint: "Anker-5" 275 550 basechar 0
AnchorPoint: "Anker-4" 265 645 basechar 0
AnchorPoint: "Anker-3" 276 -107 basechar 0
AnchorPoint: "Anker-2" 269 -3 basechar 0
AnchorPoint: "Anker-1" 416 44 basechar 0
LayerCount: 2
Fore
SplineSet
36 205 m 0
 36 342 123 439 266 439 c 0
 435 439 492 318 492 214 c 0
 492 107 417 -10 264 -10 c 0
 115 -10 36 95 36 205 c 0
259 389 m 0
 173 389 164 315 164 228 c 0
 164 151 174 40 278 40 c 0
 323 40 364 72 364 187 c 0
 364 326 344 389 259 389 c 0
EndSplineSet
Substitution2: "'sinf' Wissenschaftliche Indices lookup 8 subtable" o.inferior
Substitution2: "'sups' Superscript lookup 7 subtable" o.superior
Substitution2: "'smcp' Gemeine nach Kapit+AOQA-lchen lookup 3 subtable" o.sc
AlternateSubs2: "'aalt' Access All Alternates lookup 0 subtable" o.sc
EndChar

StartChar: p
Encoding: 112 112 81
Width: 563
GlyphClass: 2
Flags: MW
HStem: -235 21G<66 66 201 201> -10 53<268 329.5 268 346.624> 374 65<308 327.5>
VStem: 75 118<-32 12 86 235 235 272.333> 389 134<167 264.5>
AnchorPoint: "Anker-5" 272 551 basechar 0
AnchorPoint: "Anker-4" 271 646 basechar 0
LayerCount: 2
Fore
SplineSet
193 292 m 1
 193 86 l 1
 228 45 260 43 276 43 c 0
 383 43 389 126 389 208 c 0
 389 321 358 374 297 374 c 0
 263 374 215 345 193 292 c 1
75 -32 m 2
 75 235 l 2
 75 309.667 72.667 368.333 65 411 c 1
 67 414 l 1
 107.5 417 166.931 428.972 192 439 c 1
 198.333 439 201 436 201 429 c 1
 196 398.667 191.806 360 191.806 360 c 1
 194 360 l 1
 240 430 292 439 324 439 c 0
 421 439 523 341 523 235 c 0
 523 94.1387 411.248 -10 282 -10 c 0
 246 -10 219 -2 193 12 c 1
 193 -32 l 2
 193 -107.234 194.5 -175 203 -232 c 1
 201 -235 l 1
 201 -235 168.333 -232 134 -232 c 0
 99 -232 66 -235 66 -235 c 1
 65 -232 l 1
 73.5 -178.5 75 -106.503 75 -32 c 2
EndSplineSet
Substitution2: "'sinf' Wissenschaftliche Indices lookup 8 subtable" p.inferior
Substitution2: "'sups' Superscript lookup 7 subtable" p.superior
Substitution2: "'smcp' Gemeine nach Kapit+AOQA-lchen lookup 3 subtable" p.sc
AlternateSubs2: "'aalt' Access All Alternates lookup 0 subtable" p.sc
EndChar

StartChar: q
Encoding: 113 113 82
Width: 563
GlyphClass: 2
Flags: MW
HStem: -235 21G<358 358 493 493> -10 63<261 294.5> 386 53<227 288>
VStem: 36 134<160.5 273> 367 118<-32 23 23 23 75 317 317 317>
AnchorPoint: "Anker-5" 247 550 basechar 0
AnchorPoint: "Anker-4" 246 645 basechar 0
LayerCount: 2
Fore
SplineSet
367 317 m 1
 340 362 309 386 267 386 c 0
 187 386 170 331 170 227 c 0
 170 76 232 53 290 53 c 0
 309 53 341 55 367 75 c 1
 367 317 l 1
367 -32 m 2
 367 23 l 1
 352 10 323 -10 266 -10 c 0
 122 -10 36 114 36 207 c 0
 36 339 149 439 271 439 c 0
 320 439 382 428 415 399 c 1
 430 423 l 2
 437 435 456 442 463 442 c 0
 474 442 485 431 485 417 c 2
 485 -32 l 2
 485 -107.234 486.5 -175 495 -232 c 1
 493 -235 l 1
 493 -235 460.333 -232 426 -232 c 0
 391 -232 358 -235 358 -235 c 1
 357 -232 l 1
 365.5 -178.5 367 -106 367 -32 c 2
EndSplineSet
Substitution2: "'sinf' Wissenschaftliche Indices lookup 8 subtable" q.inferior
Substitution2: "'sups' Superscript lookup 7 subtable" q.superior
Substitution2: "'smcp' Gemeine nach Kapit+AOQA-lchen lookup 3 subtable" q.sc
AlternateSubs2: "'aalt' Access All Alternates lookup 0 subtable" q.sc
EndChar

StartChar: r
Encoding: 114 114 83
Width: 393
GlyphClass: 2
Flags: MW
HStem: -3 21G<85 85 220 220> 357 82
VStem: 94 118<180 235 235 263 142 272.5>
AnchorPoint: "Anker-5" 230 551 basechar 0
AnchorPoint: "Anker-4" 229 646 basechar 0
AnchorPoint: "Anker-3" 173 -108 basechar 0
AnchorPoint: "Anker-2" 148 7 basechar 0
LayerCount: 2
Fore
SplineSet
212 354 m 1
 238 393 290 439 337 439 c 0
 355 439 361 437 378 432 c 1
 382 428 l 1
 362 335 l 1
 354 333 l 1
 336 347 315 347 296 347 c 0
 280.881 347 212 340.38 212 263 c 2
 212 180 l 2
 212 104 214 57 222 0 c 1
 220 -3 l 1
 220 -3 182 0 148 0 c 0
 113 0 85 -3 85 -3 c 1
 84 0 l 1
 92 54 94 105 94 180 c 2
 94 235 l 2
 94 310 87 368 79 411 c 1
 81 414 l 1
 122 417 178 429 203 439 c 1
 209 439 212 436 212 429 c 0
 211 400 210 354 210 354 c 1
 212 354 l 1
EndSplineSet
Substitution2: "'sinf' Wissenschaftliche Indices lookup 8 subtable" r.inferior
Substitution2: "'sups' Superscript lookup 7 subtable" r.superior
Substitution2: "'smcp' Gemeine nach Kapit+AOQA-lchen lookup 3 subtable" r.sc
AlternateSubs2: "'aalt' Access All Alternates lookup 0 subtable" r.sc
EndChar

StartChar: s
Encoding: 115 115 84
Width: 404
GlyphClass: 2
Flags: MW
HStem: -10 46<169.5 212.025 169.5 250> 394 45<203.5 248.5>
VStem: 51 108<312.995 354.5 312.995 362.5> 257 115<94.5 134>
AnchorPoint: "Anker-5" 197 550 basechar 0
AnchorPoint: "Anker-4" 196 645 basechar 0
AnchorPoint: "Anker-3" 187 -111 basechar 0
AnchorPoint: "Anker-2" 186 2 basechar 0
AnchorPoint: "Anker-1" 276 13 basechar 0
LayerCount: 2
Fore
SplineSet
47 115 m 1
 61 116 l 1
 83 73 147 36 192 36 c 0
 232.05 36 257 64.9062 257 113 c 0
 257 155 237.87 172.662 183 194 c 0
 133.938 213.079 51 245.993 51 317 c 0
 51 408 125 439 236 439 c 0
 284 439 332 422 359 407 c 1
 361 404 l 1
 342 308 l 1
 329 307 l 1
 316 335 273 394 224 394 c 0
 183 394 159 373 159 336 c 0
 159 289.989 190.109 270.314 225 258 c 0
 293 234 372 200.006 372 122 c 0
 372 67 315 -10 185 -10 c 0
 149 -10 85 -3 31 17 c 1
 47 115 l 1
EndSplineSet
Substitution2: "'sinf' Wissenschaftliche Indices lookup 8 subtable" s.inferior
Substitution2: "'sups' Superscript lookup 7 subtable" s.superior
Substitution2: "'smcp' Gemeine nach Kapit+AOQA-lchen lookup 3 subtable" s.sc
AlternateSubs2: "'aalt' Access All Alternates lookup 0 subtable" s.sc
EndChar

StartChar: t
Encoding: 116 116 85
Width: 340
GlyphClass: 2
Flags: MW
HStem: -10 69<149 248> 376 53<20 87 32 87 32 87 205 296> 558 20G<201 204>
VStem: 87 118<261 272 272 376 242 376 429 458>
AnchorPoint: "Anker-3" 206 -107 basechar 0
AnchorPoint: "Anker-2" 184 -3 basechar 0
AnchorPoint: "Anker-1" 275 15 basechar 0
LayerCount: 2
Fore
SplineSet
24 376 m 2
 16 376 11 383 11 390 c 0
 11 404 22 429 32 429 c 2
 87 429 l 1
 87 487 87 498 80 540 c 1
 82 543 l 1
 122 546 176 568 201 578 c 1
 207 578 210 575 210 568 c 0
 206 510 205 504 205 429 c 1
 312 429 l 2
 317 429 320 427 320 423 c 2
 320 389 l 2
 320 380 306 376 296 376 c 2
 205 376 l 1
 205 272 l 2
 205 212 202 161 202 131 c 0
 202 90 208 59 235 59 c 0
 261 59 276 61 303 77 c 1
 314 70 322 58 322 42 c 1
 283 6 223 -10 181 -10 c 0
 117 -10 84 41 84 88 c 0
 84 118 87 201 87 261 c 2
 87 376 l 1
 24 376 l 2
EndSplineSet
Substitution2: "'sinf' Wissenschaftliche Indices lookup 8 subtable" t.inferior
Substitution2: "'sups' Superscript lookup 7 subtable" t.superior
Substitution2: "'smcp' Gemeine nach Kapit+AOQA-lchen lookup 3 subtable" t.sc
AlternateSubs2: "'aalt' Access All Alternates lookup 0 subtable" t.sc
EndChar

StartChar: u
Encoding: 117 117 86
Width: 577
GlyphClass: 2
Flags: MW
HStem: -10 64<251 260.5> -3 21G<381 384 501 501> 412 20G<76 76 211 211 360 360 495 495>
VStem: 84 118<126 159 159 249 114.5 287> 368 118<64 192 154.5 192 192 249 154.5 287>
AnchorPoint: "Anker-5" 330 550 basechar 0
AnchorPoint: "Anker-4" 330 646 basechar 0
AnchorPoint: "Anker-3" 276 -111 basechar 0
AnchorPoint: "Anker-2" 250 0 basechar 0
AnchorPoint: "Anker-1" 324 7 basechar 0
LayerCount: 2
Fore
SplineSet
368 64 m 1x78
 312 4 281 -10 240 -10 c 0
 141 -10 84 57 84 126 c 2
 84 249 l 2
 84 325 83 372 74 429 c 1
 76 432 l 1
 76 432 109 429 143 429 c 0
 178 429 211 432 211 432 c 1
 212 429 l 1
 203 376 202 324 202 249 c 2
 202 159 l 2
 202 70 236 54 266 54 c 0xb8
 310.8 54 341.915 97.1729 368 128 c 1
 368 249 l 2
 368 325 367 372 358 429 c 1
 360 432 l 1
 360 432 393 429 427 429 c 0
 462 429 495 432 495 432 c 1
 496 429 l 1
 487 376 486 324 486 249 c 2
 486 192 l 2
 486 117 495 43 503 0 c 1
 501 -3 l 1
 488 -1 450.127 0 437.5 0 c 0
 423 0 397.333 -1.33301 384 -3 c 0
 378 -3 375 -2 375 0 c 2
 370 64 l 1
 368 64 l 1x78
EndSplineSet
Substitution2: "'sinf' Wissenschaftliche Indices lookup 8 subtable" u.inferior
Substitution2: "'sups' Superscript lookup 7 subtable" u.superior
Substitution2: "'smcp' Gemeine nach Kapit+AOQA-lchen lookup 3 subtable" u.sc
AlternateSubs2: "'aalt' Access All Alternates lookup 0 subtable" u.sc
EndChar

StartChar: v
Encoding: 118 118 87
Width: 553
GlyphClass: 2
Flags: MW
HStem: -3 21G 412 20G
AnchorPoint: "Anker-5" 324 551 basechar 0
AnchorPoint: "Anker-4" 323 646 basechar 0
AnchorPoint: "Anker-3" 301 -113 basechar 0
LayerCount: 2
Fore
SplineSet
207 -3 m 1
 151 143 92 284.999 25 431.999 c 1
 41 428.999 76 428.999 92 428.999 c 0
 106 428.999 153 428.999 166 431.999 c 1
 202.323 317.295 244.745 204.632 294.797 90.123 c 1
 296.797 90.123 l 1
 342.744 188.104 387.482 318.927 428 432 c 1
 437 429 471 429 481 429 c 0
 491 429 519 429 528 432 c 1
 463 285 396 143 344 -3 c 1
 335 0 292 0 282 0 c 0
 272 0 217 0 207 -3 c 1
EndSplineSet
Substitution2: "'sinf' Wissenschaftliche Indices lookup 8 subtable" v.inferior
Substitution2: "'sups' Superscript lookup 7 subtable" v.superior
Substitution2: "'smcp' Gemeine nach Kapit+AOQA-lchen lookup 3 subtable" v.sc
AlternateSubs2: "'aalt' Access All Alternates lookup 0 subtable" v.sc
EndChar

StartChar: w
Encoding: 119 119 88
Width: 848
GlyphClass: 2
Flags: MW
HStem: 0 90.124 411 21G
AnchorPoint: "Anker-5" 341 552 basechar 0
AnchorPoint: "Anker-4" 340 646 basechar 0
AnchorPoint: "Anker-3" 347 -111 basechar 0
LayerCount: 2
Fore
SplineSet
206 -4 m 1
 150 142 92.002 283.999 25.002 430.999 c 1
 41.002 427.999 81.002 427.999 97.002 427.999 c 0
 111.002 427.999 153.002 427.999 166.002 430.999 c 1
 202.325 316.295 240.747 203.632 290.799 89.123 c 1
 296.799 89.123 l 1
 325.143 149.566 354.906 222.505 382.406 296.065 c 1
 323.001 431.999 l 1
 339.001 428.999 379.001 428.999 395.001 428.999 c 0
 409.001 428.999 451.001 428.999 464.001 431.999 c 1
 500.324 317.295 539.746 204.632 589.798 90.123 c 1
 597.798 90.123 l 1
 643.745 188.104 685.483 318.927 726.001 432 c 1
 735.001 429 770.001 429 780.001 429 c 0
 790.001 429 814.001 429 823.001 432 c 1
 758.001 285 688.001 143 636.001 -3 c 1
 627.001 0 566.001 0 556.001 0 c 0
 546.001 0 511.001 0 501.001 -3 c 1
 418.806 207.48 l 1
 390.484 136.999 364.359 64.3936 340 -4 c 1
 331 -1 268 -1 258 -1 c 0
 248 -1 216 -1 206 -4 c 1
EndSplineSet
Substitution2: "'sinf' Wissenschaftliche Indices lookup 8 subtable" w.inferior
Substitution2: "'sups' Superscript lookup 7 subtable" w.superior
Substitution2: "'smcp' Gemeine nach Kapit+AOQA-lchen lookup 3 subtable" w.sc
AlternateSubs2: "'aalt' Access All Alternates lookup 0 subtable" w.sc
EndChar

StartChar: x
Encoding: 120 120 89
Width: 493
GlyphClass: 2
Flags: MW
HStem: -3 21G<18 18> 412 20G
AnchorPoint: "Anker-5" 257 551 basechar 0
AnchorPoint: "Anker-4" 256 646 basechar 0
AnchorPoint: "Anker-3" 224 -110 basechar 0
AnchorPoint: "Anker-2" 94 8 basechar 0
LayerCount: 2
Fore
SplineSet
184.468 206.808 m 1
 179.784 213.001 l 1
 14.0029 432.001 l 1
 30.0029 429.001 75.0029 429.001 91.0029 429.001 c 0
 108.003 429.001 147.003 429.001 164.003 432.001 c 1
 192.431 384.891 223.498 339.761 256.669 293.931 c 1
 292.045 339.761 326.513 384.891 359.003 432.001 c 1
 370.003 429.001 404.003 429.001 415.003 429.001 c 0
 425.003 429.001 449.003 429.001 460.003 432.001 c 1
 295.681 241.675 l 1
 309.988 223.001 l 2
 362.513 147.434 419.362 72.665 478.002 -2.99902 c 1
 463.002 0.000976562 423.002 0.000976562 408.002 0.000976562 c 0
 392.002 0.000976562 347.002 0.000976562 332.002 -2.99902 c 1
 298.521 49.7324 262.237 100.362 225.498 151.822 c 1
 188.726 100.354 152.154 49.7324 117 -3 c 1
 107 0 83 0 73 0 c 0
 63 0 28 0 18 -3 c 1
 181.447 203 l 1
 184.468 206.808 l 1
EndSplineSet
Substitution2: "'sinf' Wissenschaftliche Indices lookup 8 subtable" x.inferior
Substitution2: "'sups' Superscript lookup 7 subtable" x.superior
Substitution2: "'smcp' Gemeine nach Kapit+AOQA-lchen lookup 3 subtable" x.sc
AlternateSubs2: "'aalt' Access All Alternates lookup 0 subtable" x.sc
EndChar

StartChar: y
Encoding: 121 121 90
Width: 524
GlyphClass: 2
Flags: MW
HStem: -237 21G 412 20G
AnchorPoint: "Anker-5" 284 550 basechar 0
AnchorPoint: "Anker-4" 275 644 basechar 0
LayerCount: 2
Fore
SplineSet
37 432 m 1
 51 429 94.999 428.999 107.999 428.999 c 0
 121.999 428.999 162.999 428.999 175.999 431.999 c 1
 209.026 331.179 249.584 232.625 292.482 129.115 c 1
 334.227 224.16 373.641 333.683 405 432 c 1
 415 429 453 429 463 429 c 0
 473 429 496 429 506 432 c 1
 473 365 254 -112 216 -237 c 1
 206 -234 177 -232 167 -232 c 0
 157 -232 123 -234 113 -237 c 1
 158.19 -161.683 192.835 -93.8047 224.85 -19.1484 c 1
 222.165 -12 l 2
 184.064 88.6807 75.8389 345.36 37 432 c 1
291.681 88.1846 m 1
 290.667 87.6387 l 1
 292.667 87.6387 l 1
 291.681 88.1846 l 1
EndSplineSet
Substitution2: "'sinf' Wissenschaftliche Indices lookup 8 subtable" y.inferior
Substitution2: "'sups' Superscript lookup 7 subtable" y.superior
Substitution2: "'smcp' Gemeine nach Kapit+AOQA-lchen lookup 3 subtable" y.sc
AlternateSubs2: "'aalt' Access All Alternates lookup 0 subtable" y.sc
EndChar

StartChar: z
Encoding: 122 122 91
Width: 454
GlyphClass: 2
Flags: MW
HStem: 0 50.0324 378.748 50.2524
AnchorPoint: "Anker-5" 221 551 basechar 0
AnchorPoint: "Anker-4" 220 646 basechar 0
AnchorPoint: "Anker-3" 207 -111 basechar 0
AnchorPoint: "Anker-2" 208 4 basechar 0
LayerCount: 2
Fore
SplineSet
270.822 369.653 m 1
 158.365 367.782 49 359.001 49 359.001 c 1
 47 362.001 l 1
 48 370.001 49 388.001 49 397.001 c 0
 49 406.001 48 416.001 47 429.001 c 1
 49 432.001 l 1
 64 430.001 85 429.001 105 429.001 c 2
 347 429.001 l 2
 376 429.001 422.666 435.335 427.666 435.335 c 0
 431.667 435.335 433 433.001 433 429.001 c 1
 427 422.001 420.203 412.303 403 387.001 c 2
 180.047 59.0742 l 1
 299.823 60.0303 424 70 424 70 c 1
 426 67 l 1
 425 59 424 41 424 32 c 0
 424 23 425 13 426 0 c 1
 424 -3 l 1
 409 -1 388 0 368 0 c 2
 142 0 l 2
 113.5 0 23 -3 23 -3 c 1
 20 1.5 l 1
 28 10.667 33.9092 20.0615 42 32 c 2
 270.822 369.653 l 1
EndSplineSet
Substitution2: "'sinf' Wissenschaftliche Indices lookup 8 subtable" z.inferior
Substitution2: "'sups' Superscript lookup 7 subtable" z.superior
Substitution2: "'smcp' Gemeine nach Kapit+AOQA-lchen lookup 3 subtable" z.sc
AlternateSubs2: "'aalt' Access All Alternates lookup 0 subtable" z.sc
EndChar

StartChar: braceleft
Encoding: 123 123 92
Width: 316
GlyphClass: 2
Flags: MW
HStem: -212 31<265 287> 676 31<287 287>
VStem: 106 111<-49 95 374 386 386 553>
LayerCount: 2
Fore
SplineSet
217 553 m 2
 217 386 l 2
 217 295 184 268 135 247 c 1
 193 222 217 180 217 95 c 2
 217 -55 l 2
 217 -127 243 -181 287 -181 c 1
 287 -212 l 1
 185 -210 106 -179 106 -49 c 2
 106 116 l 2
 106 177 88 221 34 234 c 1
 34 258 l 1
 90 274 106 324 106 374 c 2
 106 554 l 2
 106 669 186 704 287 707 c 1
 287 676 l 1
 249 665 217 644 217 553 c 2
EndSplineSet
Substitution2: "'case' Case-Sensitive Forms lookup 21 subtable" braceleft.sc
Substitution2: "'c2sc' Capitals to Small Capitals lookup 9 subtable" braceleft.sc
AlternateSubs2: "'aalt' Access All Alternates lookup 0 subtable" braceleft.sc
EndChar

StartChar: bar
Encoding: 124 124 93
Width: 220
GlyphClass: 2
Flags: MW
HStem: -232 21G<80 140 80 80> 678 20G<80 140 140 140>
VStem: 80 60<-232 698>
LayerCount: 2
Fore
SplineSet
140 -232 m 1
 80 -232 l 1
 80 698 l 1
 140 698 l 1
 140 -232 l 1
EndSplineSet
EndChar

StartChar: braceright
Encoding: 125 125 94
Width: 316
GlyphClass: 2
Flags: MW
HStem: -213 31<-9 -9> 675 31<-9 13>
VStem: 61 111<-59 108 108 120 399 543>
LayerCount: 2
Fore
SplineSet
61 -59 m 2
 61 108 l 2
 61 199 94 226 143 247 c 1
 85 272 61 314 61 399 c 2
 61 549 l 2
 61 621 35 675 -9 675 c 1
 -9 706 l 1
 93 704 172 673 172 543 c 2
 172 378 l 2
 172 317 190 273 244 260 c 1
 244 236 l 1
 188 220 172 170 172 120 c 2
 172 -60 l 2
 172 -175 92 -210 -9 -213 c 1
 -9 -182 l 1
 29 -171 61 -150 61 -59 c 2
EndSplineSet
Substitution2: "'case' Case-Sensitive Forms lookup 21 subtable" braceright.sc
Substitution2: "'c2sc' Capitals to Small Capitals lookup 9 subtable" braceright.sc
AlternateSubs2: "'aalt' Access All Alternates lookup 0 subtable" braceright.sc
EndChar

StartChar: asciitilde
Encoding: 126 126 95
Width: 449
GlyphClass: 2
Flags: MW
HStem: 208 68<290 309> 273 68<130.5 160.5>
VStem: 26 22<201 204> 391 26<328 334>
LayerCount: 2
Fore
SplineSet
26 204 m 1x70
 39 269 93 341 154 341 c 0x70
 177 341 202 325 228 309 c 0
 253 293 279 276 301 276 c 0
 329 276 369 284 391 334 c 1
 417 328 l 1
 386 221 321 208 297 208 c 0xb0
 271 208 246 224 222 241 c 0
 197 258 173 273 148 273 c 0
 113 273 71 245 48 201 c 1
 26 204 l 1x70
EndSplineSet
EndChar

StartChar: exclamdown
Encoding: 161 161 97
Width: 250
GlyphClass: 2
Flags: MW
HStem: -229 21G<91 118> 317 123<101 105 101 105>
VStem: 44 121<-181 -123.5>
LayerCount: 2
Fore
SplineSet
106 -229 m 0
 76 -229 44 -206 44 -156 c 0
 44 -91 61.9268 -48.9902 73 37 c 0
 86.9082 145.012 88 205 90 219 c 0
 91 230 95 239 106 239 c 0
 118 239 120 232 121 226 c 0
 123 205 129.067 115.008 138 37 c 0
 148.076 -50.9912 165 -86 165 -156 c 0
 165 -210 130 -229 106 -229 c 0
165 381 m 1
 165 376 l 1
 154 347 138 330 105 317 c 1
 101 317 l 1
 69 328 52 345 41 376 c 1
 41 381 l 1
 53 416 70 432 101 440 c 1
 105 440 l 1
 140 432 155 417 165 381 c 1
EndSplineSet
Substitution2: "'case' Case-Sensitive Forms lookup 21 subtable" exclamdown.sc
Substitution2: "'c2sc' Capitals to Small Capitals lookup 9 subtable" exclamdown.sc
AlternateSubs2: "'aalt' Access All Alternates lookup 0 subtable" exclamdown.sc
EndChar

StartChar: cent
Encoding: 162 162 98
Width: 480
GlyphClass: 2
Flags: MW
HStem: -12 21G<265 299 265 265> 84.9657 56.5883 437.075 49.353 558 20G<265 265>
VStem: 64.4004 110.7 265 34<-12 83.1055 83.1055 83.1055>
LayerCount: 2
Fore
SplineSet
265 578 m 1
 299.001 578.002 l 1
 299.001 486.612 l 1
 340.959 483.979 388.726 471.142 413.601 458.303 c 1
 415.4 455.603 l 1
 394.7 364.702 l 1
 378.5 363.802 l 1
 358.275 398.528 328.665 428.076 299 436.256 c 1
 299 141.555 l 1
 333.54 142.459 367.231 154.882 400.101 196.4 c 1
 403.7 196.4 l 1
 415.101 190.186 420.589 182.48 422.601 173.9 c 1
 402.196 130.737 356.074 93.7334 299 84.9658 c 1
 299 -12 l 1
 265 -12 l 1
 265 83.1055 l 1
 138.586 86.3779 64.4004 165.536 64.4004 279.2 c 0
 64.4004 400.22 153.175 478.467 265 486.428 c 1
 265 578 l 1
265.001 145.902 m 1
 265.002 437.077 l 1
 214.139 428.857 175.102 384.976 175.102 302.603 c 0
 175.102 221.654 212.027 162.095 265.001 145.902 c 1
EndSplineSet
EndChar

StartChar: sterling
Encoding: 163 163 99
Width: 440
GlyphClass: 2
Flags: MW
HStem: -10 52<279.5 325 279.5 325> 46 40<139 144 144 166.5> 282 39<69.5 132 89 132 89 132 208 310> 517 53<292.5 371.5>
VStem: 17 68<12 25> 132 76<266 282 282 282 321 340 340 380>
LayerCount: 2
Fore
SplineSet
208 388 m 2
 208 321 l 1
 326 321 l 2
 331 321 333 319 333 315 c 2
 333 294 l 2
 333 286 320 282 310 282 c 2
 208 282 l 1
 207 169 171 116 139 86 c 1
 144 86 l 2
 252 86 248 42 311 42 c 0
 339 42 384 49 409 83 c 1
 426 73 l 1
 403 24 356 -10 294 -10 c 0
 209 -10 208 46 125 46 c 0
 92 46 85 33 85 23 c 0
 85 1 68 -10 47 -10 c 0
 29 -10 17 1 17 16 c 0
 17 34 39 49 65 63 c 0
 121 104 132 180 132 266 c 2
 132 282 l 1
 72 282 l 2
 67 282 66 283 66 288 c 2
 66 301 l 2
 66 309 72 321 89 321 c 2
 132 321 l 1
 132 340 l 2
 132 420 148 455 196 503 c 0
 246 553 307 570 363 570 c 0
 380 570 396 566 403 562 c 1
 404 559 l 1
 394 542 385 511 379 487 c 1
 369 486 l 1
 359 503 343 517 318 517 c 0
 267 517 208 456 208 388 c 2
EndSplineSet
EndChar

StartChar: currency
Encoding: 164 164 100
Width: 463
GlyphClass: 2
Flags: MW
HStem: 122 55<211 249.5> 422 55<212.5 252 212.5 261.039>
VStem: 33 81<280 318.5> 346 81<281 318 281 335>
LayerCount: 2
Fore
SplineSet
114 300 m 0
 114 230 163.97 177 230 177 c 0
 297.03 177 346 231 346 299 c 0
 346 371 290.078 422 232 422 c 0
 166.969 422 114 369 114 300 c 0
230 122 m 0
 192 122 159 131 130 147 c 1
 84 89 l 1
 23 148 l 1
 76 191 l 1
 48 226 33 261 33 299 c 0
 33 338 48 374 77 409 c 1
 61 421 40 437 25 450 c 1
 80 507 l 1
 130 452 l 1
 160 468 193 477 232 477 c 0
 272 477 302 467 331 451 c 1
 347 470 371 498 382 512 c 1
 440 451 l 1
 385 406 l 1
 413 372 427 337 427 299 c 0
 427 263 412 228 386 193 c 1
 438 149 l 1
 384 91 l 1
 333 149 l 1
 303 132 269 122 230 122 c 0
EndSplineSet
EndChar

StartChar: yen
Encoding: 165 165 101
Width: 440
GlyphClass: 2
Flags: MW
HStem: -3 21G 127 39<44.501 177.607 64.001 177.157> 229 40<256.486 393 264.312 377> 555 20G
VStem: 177.606 79.823
LayerCount: 2
Fore
SplineSet
47 229 m 2
 42 229 42.0029 230.001 42.0029 235.001 c 2
 42.0029 249.001 l 2
 42.0029 257.001 47.0029 269.001 64.0029 269.001 c 2
 164.06 269.001 l 1
 121.454 347.808 35.9502 520.865 4.00195 575 c 1
 19.002 572 40.002 572 55.002 572 c 0
 70.002 572 90.002 572 105.002 575 c 1
 142.974 476.663 175.258 398.233 230.466 301.868 c 1
 281.021 381.833 312.7 469.701 356.001 575 c 1
 366.001 572 381.001 572 393.001 572 c 0
 404.001 572 419.001 572 430.001 575 c 1
 344.77 425.845 299.877 337.627 264.312 269 c 1
 393 269 l 2
 397 269 400 267 400 263 c 2
 400 242 l 2
 400 233 387 229 377 229 c 2
 256.486 229 l 1
 256.724 208.844 257.042 187.443 257.43 165.999 c 1
 393.001 165.999 l 2
 397.001 165.999 400.001 163.999 400.001 159.999 c 2
 400.001 139.999 l 2
 400.001 130.999 387.001 126.999 377.001 126.999 c 2
 258.215 126.999 l 1
 259.447 71.665 261.113 21.0742 263.001 -3 c 1
 249.001 0 230.001 0 217.001 0 c 0
 204.001 0 186.001 0 172.001 -3 c 1
 174.881 25.3203 176.379 74.1465 177.157 127 c 1
 47.001 127 l 2
 42.001 127 42.001 128 42.001 133 c 2
 42.001 146 l 2
 42.001 154 47.001 166 64.001 166 c 2
 177.607 166 l 1
 177.793 187.338 177.891 208.68 177.942 229 c 1
 47 229 l 2
EndSplineSet
Substitution2: "'pnum' Proportionalziffern lookup 13 subtable" Yen.fitted
EndChar

StartChar: brokenbar
Encoding: 166 166 102
Width: 220
GlyphClass: 2
Flags: MW
VStem: 80 60<-201 161 -201 161 312 674>
LayerCount: 2
Fore
SplineSet
140 674 m 1
 140 312 l 1
 80 312 l 1
 80 674 l 1
 140 674 l 1
140 161 m 1
 140 -201 l 1
 80 -201 l 1
 80 161 l 1
 140 161 l 1
EndSplineSet
EndChar

StartChar: section
Encoding: 167 167 103
Width: 525
GlyphClass: 2
Flags: MW
HStem: -172 49<241.501 292.501 241.501 310.001> 609 49
VStem: 50 99 81 101 343 101 376 99
LayerCount: 2
Fore
SplineSet
168.066 385.79 m 1xe4
 152.128 365.916 149 335.067 149 305 c 0
 149 211 238.166 165.321 314 126 c 0
 329.527 117.949 343.878 109.311 356.934 100.211 c 1
 372.872 120.085 376 150.934 376 181.001 c 0
 376 275.001 286.834 320.68 211 360.001 c 0
 195.473 368.052 181.122 376.69 168.066 385.79 c 1xe4
132.145 415.079 m 1
 99.3467 446.719 81.001 481.733 81.001 515.999 c 0
 81.001 581.999 165.001 657.999 265.001 657.999 c 0
 334.001 657.999 398.001 617.999 425.001 594.999 c 1
 428.001 589.999 l 1
 411.001 507.999 l 1
 397.001 505.999 l 1
 368.001 555.999 311.001 608.999 256.001 608.999 c 0
 209.001 608.999 182.001 583.999 182.001 535.999 c 0
 182.001 488.999 200.001 466.999 251.001 445.999 c 0
 331.877 412.697 475.001 341.999 475.001 218.999 c 0xd4
 475.001 159.864 433.65 102.608 392.857 70.9199 c 1
 425.655 39.2803 444.001 4.26562 444.001 -30 c 0
 444.001 -96 360.001 -172 260.001 -172 c 0
 191.001 -172 127.001 -132 100.001 -109 c 1
 97.001 -104 l 1
 114.001 -22 l 1
 128.001 -20 l 1
 157.001 -70 214.001 -123 269.001 -123 c 0
 316.001 -123 343.001 -98 343.001 -50 c 0xc8
 343.001 -3 325.001 28 274.001 49 c 0
 193.125 82.3018 50.001 144 50.001 267 c 0
 50.001 326.135 91.3516 383.391 132.145 415.079 c 1
EndSplineSet
EndChar

StartChar: dieresis
Encoding: 168 168 104
Width: 399
GlyphClass: 2
Flags: MW
HStem: 520 107<87.5 117 268 297.5>
VStem: 48 108<558.5 588> 229 108<558.5 588>
LayerCount: 2
Fore
SplineSet
229 573 m 0
 229 603 253 627 283 627 c 0
 312 627 337 603 337 573 c 0
 337 544 312 520 283 520 c 0
 253 520 229 544 229 573 c 0
48 573 m 0
 48 603 73 627 102 627 c 0
 132 627 156 603 156 573 c 0
 156 544 132 520 102 520 c 0
 73 520 48 544 48 573 c 0
EndSplineSet
EndChar

StartChar: copyright
Encoding: 169 169 105
Width: 633
GlyphClass: 2
Flags: MW
HStem: 23 32<247 386 247 395> 152 29<296 348.5> 434 23<299 347.5> 557 31<247 386.5>
VStem: 34 31<237 375.5 237 384> 165 62<274.5 343> 416 20<360 364> 568 31<236.5 375.5>
LayerCount: 2
Fore
SplineSet
439 216 m 1
 419 185 376 152 321 152 c 0
 232 152 165 222 165 301 c 0
 165 385 235 457 323 457 c 0
 393 457 393 442 422 442 c 1
 436 364 l 1
 416 360 l 1
 399 406 376 434 319 434 c 0
 279 434 227 409 227 311 c 0
 227 238 262 181 330 181 c 0
 381 181 409 215 420 231 c 1
 439 216 l 1
317 23 m 0
 160 23 34 151 34 306 c 0
 34 462 161 588 317 588 c 0
 473 588 599 462 599 306 c 0
 599 150 473 23 317 23 c 0
317 557 m 0
 177 557 65 445 65 306 c 0
 65 168 177 55 317 55 c 0
 455 55 568 167 568 306 c 0
 568 445 456 557 317 557 c 0
EndSplineSet
EndChar

StartChar: ordfeminine
Encoding: 170 170 106
Width: 297
GlyphClass: 2
Flags: MW
HStem: 358 31 612 24
VStem: 32 53 188 54<427.5 448 448 502 502 502>
LayerCount: 2
Fore
SplineSet
188 502 m 1
 103 480 79 462 79 431 c 0
 79 410 90 390 124 390 c 0
 145 390 162 400 188 423 c 1
 188 502 l 1
231 358 m 0
 206 358 192 379 189 397 c 1
 155 367 137 358 104 358 c 0
 62 358 27 385 27 428 c 0
 27 470 67.0703 497.725 130 514 c 2
 188 529 l 1
 188 604 157 612 134 612 c 0
 101 612 80 601 80 585 c 0
 80 578 81 574 82 572 c 0
 83 570 84 565 84 560 c 0
 84 552 77 539 58 539 c 0
 43 539 32 549 32 564 c 0
 32 604 94 637 136 637 c 0
 185 637 242 617 242 523 c 2
 242 448 l 2
 242 407 247 391 256 391 c 0
 260 391 265 393 268 396 c 1
 278 380 l 1
 269 370 250 358 231 358 c 0
EndSplineSet
EndChar

StartChar: guillemotleft
Encoding: 171 171 107
Width: 536
GlyphClass: 2
Flags: W
LayerCount: 2
Fore
SplineSet
468 429 m 1
 468 378 l 1
 424 312 376 257 325 215 c 1
 374 178 421 124 468 52 c 1
 468 1 l 1
 388 94 315 159 250 196 c 1
 250 234 l 1
 320 284 393 349 468 429 c 1
288 429 m 1
 288 378 l 1
 243 312 195 257 144 215 c 1
 192 178 240 124 288 52 c 1
 288 1 l 1
 207 94 134 159 68 196 c 1
 68 234 l 1
 139 284 212 349 288 429 c 1
EndSplineSet
Substitution2: "'case' Case-Sensitive Forms lookup 21 subtable" guillemotleft.sc
Substitution2: "'c2sc' Capitals to Small Capitals lookup 9 subtable" guillemotleft.sc
AlternateSubs2: "'aalt' Access All Alternates lookup 0 subtable" guillemotleft.sc
EndChar

StartChar: logicalnot
Encoding: 172 172 108
Width: 560
GlyphClass: 2
Flags: MW
HStem: 357 44<24 483 24 537>
VStem: 483 54<133 357 357 357>
LayerCount: 2
Fore
SplineSet
483 133 m 1
 483 357 l 1
 24 357 l 1
 24 401 l 1
 537 401 l 1
 537 133 l 1
 483 133 l 1
EndSplineSet
EndChar

StartChar: uni00AD
Encoding: 173 173 109
Width: 333
GlyphClass: 2
Flags: MW
HStem: 231 63<43.5 287 58 274>
VStem: 33 268<243.5 280.5>
LayerCount: 2
Fore
SplineSet
274 231 m 2
 48 231 l 2
 39 231 33 239 33 248 c 0
 33 264 46 294 58 294 c 2
 287 294 l 2
 297 294 301 285 301 276 c 0
 301 265 287 231 274 231 c 2
EndSplineSet
EndChar

StartChar: registered
Encoding: 174 174 110
Width: 633
GlyphClass: 2
Flags: MW
HStem: 23 32<247 386 247 395> 169 24<201 209> 288 24<286 288.5> 421 24<201.5 205 205 216 313.5 335 335 343> 556 32
VStem: 34 40 239 47<216 288 312 396> 376 55<350.5 385 350.5 387> 568 40
LayerCount: 2
Fore
SplineSet
431 370 m 0
 431 331 404 306 373 296 c 1
 421 214 l 2
 432.016 195.18 448 190 464 193 c 1
 468 176 l 1
 456 171 444 169 432 169 c 0
 412 169 388 175 371 204 c 2
 323 284 l 1
 319 287 291 288 286 288 c 1
 286 216 l 2
 286 203 290.02 196.14 298 195 c 2
 312 193 l 2
 320 192 323 192 323 187 c 2
 323 171 l 1
 321 169 l 1
 321 169 280 171 262 171 c 0
 242 171 201 169 201 169 c 1
 199 171 l 1
 199 188 l 2
 199 192 202 192 209 193 c 2
 226 195 l 2
 234 196 239 203 239 216 c 2
 239 396 l 2
 239 413 228 421 216 421 c 2
 205 421 l 2
 198 421 197 423 197 426 c 2
 197 443 l 1
 199 445 l 1
 335 445 l 2
 410 445 431 400 431 370 c 0
376 370 m 0
 376 404 360 421 326 421 c 0
 301 421 286 414 286 396 c 2
 286 312 l 1
 318 312 l 2
 348 312 376 319 376 370 c 0
317 23 m 0
 160 23 34 151 34 306 c 0
 34 462 161 588 317 588 c 0
 473 588 599 462 599 306 c 0
 599 150 473 23 317 23 c 0
317 557 m 0
 177 557 65 445 65 306 c 0
 65 168 177 55 317 55 c 0
 455 55 568 167 568 306 c 0
 568 445 456 557 317 557 c 0
EndSplineSet
EndChar

StartChar: macron
Encoding: 175 175 111
Width: 397
GlyphClass: 2
Flags: MW
HStem: 529 44<66.5 325 81 315>
VStem: 59 280<540.5 562>
LayerCount: 2
Fore
SplineSet
315 529 m 2
 71 529 l 2
 62 529 59 537 59 544 c 0
 59 556 69 573 81 573 c 2
 325 573 l 2
 335 573 339 565 339 559 c 0
 339 547 328 529 315 529 c 2
EndSplineSet
EndChar

StartChar: degree
Encoding: 176 176 112
Width: 267
GlyphClass: 2
Flags: MW
HStem: 426 28<113 154.5 113 161.5> 597 28<112.5 156.5>
VStem: 34 33<506.5 542 506.5 553> 200 33<507 540.5>
LayerCount: 2
Fore
SplineSet
200 524 m 0
 200 557 179 597 134 597 c 0
 91 597 67 560 67 524 c 0
 67 489 92 454 134 454 c 0
 175 454 200 490 200 524 c 0
34 525 m 0
 34 581 79 625 134 625 c 0
 189 625 233 581 233 525 c 0
 233 470 189 426 134 426 c 0
 79 426 34 470 34 525 c 0
EndSplineSet
EndChar

StartChar: plusminus
Encoding: 177 177 113
Width: 527
GlyphClass: 2
Flags: MW
HStem: 19 49<66 461 66 461> 280 74<61 232 61 232 306 477>
VStem: 232 74<117 280 117 280 354 518>
LayerCount: 2
Fore
SplineSet
306 354 m 1
 477 354 l 1
 477 280 l 1
 306 280 l 1
 306 117 l 1
 232 117 l 1
 232 280 l 1
 61 280 l 1
 61 354 l 1
 232 354 l 1
 232 518 l 1
 306 518 l 1
 306 354 l 1
461 68 m 1
 461 19 l 1
 66 19 l 1
 66 68 l 1
 461 68 l 1
EndSplineSet
EndChar

StartChar: two.superior
Encoding: 178 178 114
Width: 307
GlyphClass: 2
Flags: MW
HStem: 364 34<107 178 178 184> 664 24<128.5 159>
VStem: 45 62<364 413.5> 47 49<604.5 641.5> 203 59<582 627.5>
LayerCount: 2
Fore
SplineSet
178 398 m 2xe8
 225 398 238 400 265 402 c 1
 264 396 263 388 263 382 c 0
 263 376 264 368 265 362 c 1
 230 364 219 364 184 364 c 2
 45 364 l 1xe8
 45 412 88 454 136 491 c 0
 181 527 203 550 203 604 c 0
 203 651 168 664 150 664 c 0
 107 664 96 648 96 635 c 0
 96 626 101 619 101 611 c 0
 101 595 83 587 73 587 c 0
 61 587 47 598 47 611 c 0xd8
 47 637 75 688 154 688 c 0
 204 688 262 669 262 605 c 0
 262 559 229 526 173 486 c 0
 131 456 107 429 107 398 c 1
 178 398 l 2xe8
EndSplineSet
EndChar

StartChar: three.superior
Encoding: 179 179 115
Width: 307
GlyphClass: 2
Flags: MW
HStem: 358 24 527 24<115 117> 664 24<138 157.5>
VStem: 188 56 215 59<438.5 493.5>
LayerCount: 2
Fore
SplineSet
188 624 m 0xf0
 188 655 167 664 148 664 c 0
 128 664 94 654 93 629 c 0
 92 617 90 600 67 600 c 0
 48 600 44 615 44 618 c 0
 44 635 73 688 160 688 c 0
 212 688 245 666 245 629 c 0
 245 600 223 577 194 561 c 1
 227 558 274 531 274 473 c 0
 274 404 208 358 128 358 c 0
 91 358 39 374 39 395 c 0
 39 405 52 415 63 415 c 0
 77 415 83 408 89 401 c 0
 97 391 107 383 139 383 c 0
 158 383 215 396 215 465 c 0xe8
 215 522 161 529 137 529 c 0
 130 529 125 528 117 527 c 1
 115 551 l 1
 159 557 188 583 188 624 c 0xf0
EndSplineSet
EndChar

StartChar: acute
Encoding: 180 180 116
Width: 341
GlyphClass: 2
Flags: MW
HStem: 542 160
LayerCount: 2
Fore
SplineSet
187 706 m 1
 190 707 198 708 203 708 c 0
 233 708 252 694 260 684 c 1
 270 661 l 1
 150 553 l 2
 136 541 122 537 112 537 c 0
 104 537 96 545 96 551 c 0
 96 557 98 566 104 575 c 2
 187 706 l 1
EndSplineSet
Substitution2: "'case' Case-Sensitive Forms lookup 21 subtable" acute.cap
EndChar

StartChar: uni00B5
Encoding: 181 181 117
Width: 529
GlyphClass: 2
Flags: MW
HStem: -232 21G<99.999 125.999> -12 53<192.499 219.499>
VStem: 47 116 64 82 324 110
LayerCount: 2
Fore
SplineSet
325 48 m 1xe8
 284 15 246.999 -12 191.999 -12 c 0
 175.999 -12 159.999 -9 145.999 -3 c 1xd8
 147.999 -35 144.999 -67 150.999 -96 c 0
 156.999 -122 162.999 -151 162.999 -168 c 0
 162.999 -211 141.999 -232 109.999 -232 c 0
 89.999 -232 46.999 -206 46.999 -163 c 0xe8
 46.999 -142 49.999 -118 53.999 -92 c 0
 57.999 -66 63.999 -40 63.999 -4 c 0xd8
 63.999 10 61.999 26 60.999 46 c 0
 57.999 72 46.999 111.5 46.999 137 c 2
 46.999 323 l 2
 46.999 348 35.999 434 35.999 434 c 1
 153.999 447 l 1
 153.999 447 156.999 375 156.999 343 c 2
 156.999 150 l 2
 156.999 87 174.999 41 209.999 41 c 0
 250.999 41 301.999 68 323.999 98 c 1
 323.999 434 l 1
 433.999 448 l 1
 433.999 126.001 l 2
 433.999 80 434.999 42 473.999 42 c 0
 498.189 42 499.176 58 505 58 c 0
 509 58 518 45 518 38 c 0
 518 33 480 -10 425 -10 c 0
 365 -10 339 9.5 327 48 c 1
 325 48 l 1xe8
EndSplineSet
EndChar

StartChar: paragraph
Encoding: 182 182 118
Width: 602
GlyphClass: 2
Flags: MW
HStem: -232 33<395.5 418.5 395.5 424> 612 33<395.5 418.5>
VStem: 317 50<-32 285 285 285> 448 50<-69.5 -32 -32 445>
LayerCount: 2
Fore
SplineSet
367 574 m 2
 367 -161 l 2
 367 -188 384 -199 407 -199 c 0
 430 -199 448 -192 448 -161 c 2
 448 574 l 2
 448 605 430 612 407 612 c 0
 384 612 367 601 367 574 c 2
408 645 m 0
 443 645 507 648 507 648 c 1
 508 645 l 1
 500 592 498 520 498 445 c 2
 498 -32 l 2
 498 -107 500 -175 508 -232 c 1
 506 -235 l 1
 506 -235 441 -232 407 -232 c 0
 373 -232 309 -235 309 -235 c 1
 307 -232 l 1
 315 -175 317 -107 317 -32 c 2
 317 285 l 1
 308 283 300 282 285 282 c 0
 139 282 57 347 57 481 c 0
 57 560 115 647 247 647 c 0
 322 647 381 645 408 645 c 0
EndSplineSet
EndChar

StartChar: periodcentered
Encoding: 183 183 119
Width: 301
GlyphClass: 2
Flags: MW
HStem: 191 135<132.5 168 132.5 170>
VStem: 83 136<240.5 275.5>
LayerCount: 2
Fore
SplineSet
151 191 m 0
 110 191 83 223 83 258 c 0
 83 293 114 326 151 326 c 0
 185 326 219 296 219 258 c 0
 219 222 189 191 151 191 c 0
EndSplineSet
EndChar

StartChar: cedilla
Encoding: 184 184 120
Width: 541
GlyphClass: 4
Flags: MW
HStem: -181 25<265 290 265 311.5> -80 32<283.5 337>
VStem: 335 53<-128.5 -104.5>
AnchorPoint: "Anker-2" 297 7 mark 0
LayerCount: 2
Fore
SplineSet
293 -80 m 0
 274 -80 264 -81 248 -86 c 1
 242 -80 l 1
 281 7 l 1
 315 7 l 1
 291 -51 l 1
 299 -49 308 -48 317 -48 c 0
 357 -48 388 -72 388 -110 c 0
 388 -153 342 -181 281 -181 c 0
 249 -181 232 -175 207 -164 c 1
 217 -142 l 1
 244 -152 255 -156 275 -156 c 0
 305 -156 335 -142 335 -115 c 0
 335 -94 316 -80 293 -80 c 0
EndSplineSet
EndChar

StartChar: one.superior
Encoding: 185 185 121
Width: 307
GlyphClass: 2
Flags: MW
HStem: 364 324<138 201 160.5 201 195 208>
VStem: 147 54<492 577 577 593>
LayerCount: 2
Fore
SplineSet
147 492 m 2
 147 577 l 2
 147 609 147 619 135 619 c 0
 122 619 80 606 66 599 c 1
 56 628 l 1
 103 645 151 661 195 688 c 1
 201 688 l 2
 204 688 204 685 204 682 c 2
 204 682 201 648 201 618 c 2
 201 492 l 2
 201 438 202 405 208 364 c 1
 207 362 l 1
 207 362 198 364 173 364 c 0
 148 364 139 362 139 362 c 1
 138 364 l 1
 145 402 147 439 147 492 c 2
EndSplineSet
EndChar

StartChar: ordmasculine
Encoding: 186 186 122
Width: 349
GlyphClass: 2
Flags: MW
HStem: 303 28<153 196.5 153 219> 541 25<146 196>
VStem: 39 58<414.5 466 414.5 471.5> 254 57<401 459>
LayerCount: 2
Fore
SplineSet
39 429 m 0
 39 514 91 566 177 566 c 0
 275 566 311 502 311 435 c 0
 311 367 266 303 172 303 c 0
 98 303 39 357 39 429 c 0
171 541 m 0
 121 541 97 493 97 439 c 0
 97 390 123 331 183 331 c 0
 210 331 254 347 254 419 c 0
 254 499 221 541 171 541 c 0
EndSplineSet
EndChar

StartChar: guillemotright
Encoding: 187 187 123
Width: 536
GlyphClass: 2
Flags: MW
HStem: 1 21G<48 48 228 228> 409 20G<48 48 228 228>
LayerCount: 2
Fore
SplineSet
48 1 m 1
 48 52 l 1
 92 118 140 173 191 215 c 1
 142 252 95 306 48 378 c 1
 48 429 l 1
 128 336 201 271 266 234 c 1
 266 196 l 1
 196 146 123 81 48 1 c 1
228 1 m 1
 228 52 l 1
 273 118 321 173 372 215 c 1
 324 252 276 306 228 378 c 1
 228 429 l 1
 309 336 382 271 448 234 c 1
 448 196 l 1
 377 146 304 81 228 1 c 1
EndSplineSet
Substitution2: "'case' Case-Sensitive Forms lookup 21 subtable" guillemotright.sc
Substitution2: "'c2sc' Capitals to Small Capitals lookup 9 subtable" guillemotright.sc
AlternateSubs2: "'aalt' Access All Alternates lookup 0 subtable" guillemotright.sc
EndChar

StartChar: onequarter
Encoding: 188 188 124
Width: 660
GlyphClass: 3
Flags: MW
HStem: 18 34<436.001 529.001 436.001 529.001 583.516 583.516 583.516 626.001>
VStem: 144 54 529 54
LayerCount: 2
Fore
SplineSet
557 601 m 1
 598 593 l 1
 140 -62 l 1
 98 -54 l 1
 557 601 l 1
520 -81 m 1
 525.65 -50.3281 528.288 -20.3076 529.001 18 c 1
 385.001 18 l 1
 381.001 30 l 1
 535.001 248 l 1
 566.001 238 l 1
 521.001 169 458.001 86 436.001 52 c 1
 529.001 52 l 1
 529.001 129 l 2
 529.001 135 534.001 143 536.001 146 c 0
 543.001 155 555.001 167 562.001 167 c 0
 568.001 167 583.001 166 583.001 157 c 2
 583.001 52 l 1
 632.001 52 l 1
 626.001 18 l 1
 583.516 18 l 1
 584.222 -19.9736 585.153 -47.876 590 -81 c 1
 589 -83 l 1
 589 -83 580 -81 555 -81 c 0
 530 -81 521 -83 521 -83 c 1
 520 -81 l 1
144.001 443 m 2
 144.001 528 l 2
 144.001 560 144.001 570 132.001 570 c 0
 119.001 570 77.001 557 63.001 550 c 1
 53.001 579 l 1
 100.001 596 148.001 612 192.001 639 c 1
 198.001 639 l 2
 201.001 639 201.001 636 201.001 633 c 2
 201.001 633 198.001 599 198.001 569 c 2
 198.001 443 l 2
 198.001 389 199.001 356 205.001 315 c 1
 204.001 313 l 1
 204.001 313 195.001 315 170.001 315 c 0
 145.001 315 136.001 313 136.001 313 c 1
 135.001 315 l 1
 142.001 353 144.001 390 144.001 443 c 2
EndSplineSet
Ligature2: "'frac' Diagonal Fractions lookup 6 subtable" one slash four
LCarets2: 2 215 424 
EndChar

StartChar: onehalf
Encoding: 189 189 125
Width: 660
GlyphClass: 3
Flags: MW
HStem: -79 34<465 536 536 542> 221 24<486.5 517>
VStem: 146 54<443 528 528 544> 403 62<-79 -29.5> 405 49<161.5 198.5> 561 59<139 184.5>
LayerCount: 2
Fore
SplineSet
532 601 m 1xe4
 574 593 l 1
 115 -62 l 1
 74 -54 l 1
 532 601 l 1xe4
536 -45 m 2
 583 -45 596 -43 623 -41 c 1
 622 -47 621 -55 621 -61 c 0
 621 -67 622 -75 623 -81 c 1
 588 -79 577 -79 542 -79 c 2
 403 -79 l 1xf4
 403 -31 446 11 494 48 c 0
 539 84 561 107 561 161 c 0
 561 208 526 221 508 221 c 0
 465 221 454 205 454 192 c 0
 454 183 459 176 459 168 c 0
 459 152 441 144 431 144 c 0
 419 144 405 155 405 168 c 0xec
 405 194 433 245 512 245 c 0
 562 245 620 226 620 162 c 0
 620 116 587 83 531 43 c 0
 489 13 465 -14 465 -45 c 1xf4
 536 -45 l 2
146 443 m 2
 146 528 l 2
 146 560 146 570 134 570 c 0
 121 570 79 557 65 550 c 1
 55 579 l 1
 102 596 150 612 194 639 c 1
 200 639 l 2
 203 639 203 636 203 633 c 2
 203 633 200 599 200 569 c 2
 200 443 l 2
 200 389 201 356 207 315 c 1
 206 313 l 1
 206 313 197 315 172 315 c 0
 147 315 138 313 138 313 c 1
 137 315 l 1
 144 353 146 390 146 443 c 2
EndSplineSet
Ligature2: "'frac' Diagonal Fractions lookup 6 subtable" one slash two
LCarets2: 2 208 414 
EndChar

StartChar: threequarters
Encoding: 190 190 126
Width: 660
GlyphClass: 3
Flags: MW
HStem: 20 34<440.001 533.001 440.001 533.001 587.516 587.516 587.516 630.001> 307 25<121 146.5 121 166> 476 24<113 115> 613 24<136 155.5>
VStem: 42 49 186 57<563.5 588.5> 213 59<387.5 442.5> 533 54
LayerCount: 2
Fore
SplineSet
562 601 m 1xf9
 603 593 l 1
 145 -62 l 1
 103 -54 l 1
 562 601 l 1xf9
186 573 m 0xfd
 186 604 165 613 146 613 c 0
 126 613 92 603 91 578 c 0
 90 566 88 549 65 549 c 0
 46 549 42 564 42 567 c 0
 42 584 71 637 158 637 c 0
 210 637 243 615 243 578 c 0xfd
 243 549 221 526 192 510 c 1
 225 507 272 480 272 422 c 0
 272 353 206 307 126 307 c 0
 89 307 37 323 37 344 c 0
 37 354 50 364 61 364 c 0
 75 364 81 357 87 350 c 0
 95 340 105 332 137 332 c 0
 156 332 213 345 213 414 c 0xfb
 213 471 159 478 135 478 c 0
 128 478 123 477 115 476 c 1
 113 500 l 1
 157 506 186 532 186 573 c 0xfd
524 -79 m 1
 529.65 -48.3281 532.288 -18.3076 533.001 20 c 1
 389.001 20 l 1
 385.001 32 l 1
 539.001 250 l 1
 570.001 240 l 1
 525.001 171 462.001 88 440.001 54 c 1
 533.001 54 l 1
 533.001 131 l 2
 533.001 137 538.001 145 540.001 148 c 0
 547.001 157 559.001 169 566.001 169 c 0
 572.001 169 587.001 168 587.001 159 c 2
 587.001 54 l 1
 636.001 54 l 1
 630.001 20 l 1
 587.516 20 l 1
 588.222 -17.9736 589.153 -45.876 594 -79 c 1
 593 -81 l 1
 593 -81 584 -79 559 -79 c 0
 534 -79 525 -81 525 -81 c 1
 524 -79 l 1
EndSplineSet
Ligature2: "'frac' Diagonal Fractions lookup 6 subtable" three slash four
LCarets2: 2 260 447 
EndChar

StartChar: questiondown
Encoding: 191 191 127
Width: 424
GlyphClass: 2
Flags: MW
HStem: -230 49<182.5 238.25> 317 123<224 228 224 228>
VStem: 18 113<-107.5 -51.5 -107.5 -39.5> 164 124<376 381 376 381> 203 46<201 240 177.5 243.5>
LayerCount: 2
Fore
SplineSet
211 -181 m 0xe8
 267 -181 308 -132 334 -87 c 1
 347 -88 l 1
 363 -164 l 1
 360 -168 l 1
 335.5 -188.5 274.5 -230 202 -230 c 0
 100 -230 18 -170 18 -79 c 0
 18 0 96 44 143 78 c 0
 171.913 99.3701 203 127 203 201 c 2
 203 240 l 2
 203 247 218 255 226 255 c 0
 234 255 249 247 249 240 c 2
 249 199 l 2
 249 156 236.442 97.6094 172 38 c 0
 132 1 131 -28 131 -75 c 0
 131 -140 154 -181 211 -181 c 0xe8
288 381 m 1xf0
 288 376 l 1
 277 347 261 330 228 317 c 1
 224 317 l 1
 192 328 175 345 164 376 c 1
 164 381 l 1
 176 416 193 432 224 440 c 1
 228 440 l 1
 263 432 278 417 288 381 c 1xf0
EndSplineSet
Substitution2: "'case' Case-Sensitive Forms lookup 21 subtable" questiondown.sc
Substitution2: "'c2sc' Capitals to Small Capitals lookup 9 subtable" questiondown.sc
AlternateSubs2: "'aalt' Access All Alternates lookup 0 subtable" questiondown.sc
EndChar

StartChar: Agrave
Encoding: 192 192 128
Width: 675
GlyphClass: 2
Flags: MW
HStem: -3 21G 221 53 638 20G 698 21G<373 382>
LayerCount: 2
Fore
SplineSet
256 818 m 1
 377 734 l 2
 388 726 392 720 392 713 c 0
 392 703 387 698 377 698 c 0
 369 698 355 701 334 710 c 2
 180 773 l 1
 256 818 l 1
317.557 499.774 m 1
 221.641 275.916 l 1
 253.373 275.538 297.058 273.999 325.999 273.999 c 0
 349.697 273.999 381.094 274.458 409.509 275.064 c 1
 384.729 339.381 354.381 414.363 317.557 499.774 c 1
198.276 219.171 m 1
 164.174 135.074 134.786 56.1982 118.999 -3.00195 c 1
 106.999 -0.00195312 84.999 -0.00195312 73.999 -0.00195312 c 0
 62.999 -0.00195312 29.999 -0.00195312 17.999 -3.00195 c 1
 312.999 657.998 l 1
 382.999 657.998 l 1
 474.999 438.998 606.999 97.998 656.999 -3.00195 c 1
 639.999 -0.00195312 592.999 -0.00195312 575.999 -0.00195312 c 0
 558.999 -0.00195312 521.999 -0.00195312 504.999 -3.00195 c 1
 498.996 18.6748 477.283 93.7236 430.47 219.691 c 1
 397.748 220.413 363.121 220.998 330.999 220.998 c 0
 295.343 220.998 236.228 220.105 198.276 219.171 c 1
EndSplineSet
Substitution2: "'c2sc' Capitals to Small Capitals lookup 9 subtable" agrave.sc
AlternateSubs2: "'aalt' Access All Alternates lookup 0 subtable" agrave.sc
Position2: "'cpsp' Capital Spacing lookup 0 subtable" dx=2 dy=0 dh=5 dv=0
EndChar

StartChar: Aacute
Encoding: 193 193 129
Width: 675
GlyphClass: 2
Flags: MW
HStem: -3 21G 221 53 638 20G 698 21G<259.5 268.5>
LayerCount: 2
Fore
SplineSet
389 820 m 1
 451 768 l 1
 307 710 l 2
 286 701 273 698 264 698 c 0
 255 698 250 703 250 713 c 0
 250 720 252.008 724.989 265 734 c 2
 389 820 l 1
317.557 499.774 m 1
 221.641 275.916 l 1
 253.373 275.538 297.058 273.999 325.999 273.999 c 0
 349.697 273.999 381.094 274.458 409.509 275.064 c 1
 384.729 339.381 354.381 414.363 317.557 499.774 c 1
198.276 219.171 m 1
 164.174 135.074 134.786 56.1982 118.999 -3.00195 c 1
 106.999 -0.00195312 84.999 -0.00195312 73.999 -0.00195312 c 0
 62.999 -0.00195312 29.999 -0.00195312 17.999 -3.00195 c 1
 312.999 657.998 l 1
 382.999 657.998 l 1
 474.999 438.998 606.999 97.998 656.999 -3.00195 c 1
 639.999 -0.00195312 592.999 -0.00195312 575.999 -0.00195312 c 0
 558.999 -0.00195312 521.999 -0.00195312 504.999 -3.00195 c 1
 498.996 18.6748 477.283 93.7236 430.47 219.691 c 1
 397.748 220.413 363.121 220.998 330.999 220.998 c 0
 295.343 220.998 236.228 220.105 198.276 219.171 c 1
EndSplineSet
Substitution2: "'c2sc' Capitals to Small Capitals lookup 9 subtable" aacute.sc
AlternateSubs2: "'aalt' Access All Alternates lookup 0 subtable" aacute.sc
Position2: "'cpsp' Capital Spacing lookup 0 subtable" dx=2 dy=0 dh=5 dv=0
EndChar

StartChar: Acircumflex
Encoding: 194 194 130
Width: 675
GlyphClass: 2
Flags: MW
HStem: -3 21G 221 53 638 20G 690 21G<229 243>
LayerCount: 2
Fore
SplineSet
371 805 m 1
 401 769 436 738 472 711 c 1
 456 690 l 1
 417 708 383 727 350 752 c 1
 313 725 281 707 243 690 c 1
 229 711 l 1
 266 739 297 771 328 805 c 1
 371 805 l 1
317.557 499.774 m 1
 221.641 275.916 l 1
 253.373 275.538 297.058 273.999 325.999 273.999 c 0
 349.697 273.999 381.094 274.458 409.509 275.064 c 1
 384.729 339.381 354.381 414.363 317.557 499.774 c 1
198.276 219.171 m 1
 164.174 135.074 134.786 56.1982 118.999 -3.00195 c 1
 106.999 -0.00195312 84.999 -0.00195312 73.999 -0.00195312 c 0
 62.999 -0.00195312 29.999 -0.00195312 17.999 -3.00195 c 1
 312.999 657.998 l 1
 382.999 657.998 l 1
 474.999 438.998 606.999 97.998 656.999 -3.00195 c 1
 639.999 -0.00195312 592.999 -0.00195312 575.999 -0.00195312 c 0
 558.999 -0.00195312 521.999 -0.00195312 504.999 -3.00195 c 1
 498.996 18.6748 477.283 93.7236 430.47 219.691 c 1
 397.748 220.413 363.121 220.998 330.999 220.998 c 0
 295.343 220.998 236.228 220.105 198.276 219.171 c 1
EndSplineSet
Substitution2: "'c2sc' Capitals to Small Capitals lookup 9 subtable" acircumflex.sc
AlternateSubs2: "'aalt' Access All Alternates lookup 0 subtable" acircumflex.sc
Position2: "'cpsp' Capital Spacing lookup 0 subtable" dx=2 dy=0 dh=5 dv=0
EndChar

StartChar: Atilde
Encoding: 195 195 131
Width: 675
GlyphClass: 2
Flags: MW
HStem: -3 21G 221 53 638 20G 688 60<409 429> 744 61<268.5 291>
VStem: 207 26<691 699> 468 28<796 806>
LayerCount: 2
Fore
SplineSet
419 748 m 0xf6
 441 748 454 757 468 806 c 1
 496 796 l 1
 483 728 453 688 405 688 c 0xf6
 382 688 360 703 340 718 c 0
 320 731 300 744 282 744 c 0
 255 744 244 729 233 691 c 1
 207 699 l 1
 221 767 245 805 290 805 c 0xee
 321 805 344 789 364 773 c 0
 382 759 399 748 419 748 c 0xf6
317.557 499.774 m 1
 221.641 275.916 l 1
 253.373 275.538 297.058 273.999 325.999 273.999 c 0
 349.697 273.999 381.094 274.458 409.509 275.064 c 1
 384.729 339.381 354.381 414.363 317.557 499.774 c 1
198.276 219.171 m 1
 164.174 135.074 134.786 56.1982 118.999 -3.00195 c 1
 106.999 -0.00195312 84.999 -0.00195312 73.999 -0.00195312 c 0
 62.999 -0.00195312 29.999 -0.00195312 17.999 -3.00195 c 1
 312.999 657.998 l 1
 382.999 657.998 l 1
 474.999 438.998 606.999 97.998 656.999 -3.00195 c 1
 639.999 -0.00195312 592.999 -0.00195312 575.999 -0.00195312 c 0
 558.999 -0.00195312 521.999 -0.00195312 504.999 -3.00195 c 1
 498.996 18.6748 477.283 93.7236 430.47 219.691 c 1
 397.748 220.413 363.121 220.998 330.999 220.998 c 0
 295.343 220.998 236.228 220.105 198.276 219.171 c 1
EndSplineSet
Substitution2: "'c2sc' Capitals to Small Capitals lookup 9 subtable" atilde.sc
AlternateSubs2: "'aalt' Access All Alternates lookup 0 subtable" atilde.sc
Position2: "'cpsp' Capital Spacing lookup 0 subtable" dx=2 dy=0 dh=5 dv=0
EndChar

StartChar: Adieresis
Encoding: 196 196 132
Width: 675
GlyphClass: 2
Flags: MW
HStem: -3 21G 221 53 638 20G 650 107<187.5 217 468 497.5>
VStem: 148 108<688.5 718> 429 108<688.5 718>
LayerCount: 2
Fore
SplineSet
429 703 m 0xdc
 429 733 453 757 483 757 c 0
 512 757 537 733 537 703 c 0
 537 674 512 650 483 650 c 0
 453 650 429 674 429 703 c 0xdc
148 703 m 0
 148 733 173 757 202 757 c 0
 232 757 256 733 256 703 c 0
 256 674 232 650 202 650 c 0
 173 650 148 674 148 703 c 0
317.557 499.774 m 1
 221.641 275.916 l 1
 253.373 275.538 297.058 273.999 325.999 273.999 c 0
 349.697 273.999 381.094 274.458 409.509 275.064 c 1
 384.729 339.381 354.381 414.363 317.557 499.774 c 1
198.276 219.171 m 1
 164.174 135.074 134.786 56.1982 118.999 -3.00195 c 1
 106.999 -0.00195312 84.999 -0.00195312 73.999 -0.00195312 c 0
 62.999 -0.00195312 29.999 -0.00195312 17.999 -3.00195 c 1
 312.999 657.998 l 1
 382.999 657.998 l 1xec
 474.999 438.998 606.999 97.998 656.999 -3.00195 c 1
 639.999 -0.00195312 592.999 -0.00195312 575.999 -0.00195312 c 0
 558.999 -0.00195312 521.999 -0.00195312 504.999 -3.00195 c 1
 498.996 18.6748 477.283 93.7236 430.47 219.691 c 1
 397.748 220.413 363.121 220.998 330.999 220.998 c 0
 295.343 220.998 236.228 220.105 198.276 219.171 c 1
EndSplineSet
Substitution2: "'ss01' Stilgruppe 1 lookup 17 subtable" Adieresis.alt
Substitution2: "'c2sc' Capitals to Small Capitals lookup 9 subtable" adieresis.sc
AlternateSubs2: "'aalt' Access All Alternates lookup 0 subtable" adieresis.sc
Position2: "'cpsp' Capital Spacing lookup 0 subtable" dx=2 dy=0 dh=5 dv=0
EndChar

StartChar: Aring
Encoding: 197 197 133
Width: 675
GlyphClass: 2
Flags: MW
HStem: -3 21G 221 53 770 27
VStem: 263 32<700 729 700 737> 403 31<700 729.5>
LayerCount: 2
Fore
SplineSet
349 770 m 0
 318 770 295 744 295 714 c 0
 295 686 318 658 349 658 c 0
 380 658 403 686 403 714 c 0
 403 745 379 770 349 770 c 0
263 714 m 0
 263 760 302 796.998 348 796.998 c 0
 394 796.998 434 760.998 434 713.998 c 0
 434 683.321 416.34 655.897 389.891 641.548 c 1
 481.473 422.295 608.234 95.5029 656.999 -3.00195 c 1
 639.999 -0.00195312 592.999 -0.00195312 575.999 -0.00195312 c 0
 558.999 -0.00195312 521.999 -0.00195312 504.999 -3.00195 c 1
 498.996 18.6748 477.283 93.7236 430.471 219.691 c 1
 397.749 220.413 363.122 220.998 331 220.998 c 0
 295.344 220.998 236.229 220.105 198.277 219.171 c 1
 164.175 135.074 134.787 56.1992 119 -3.00098 c 1
 107 -0.000976562 85 -0.000976562 74 -0.000976562 c 0
 63 -0.000976562 30 -0.000976562 18 -3.00098 c 1
 305.896 642.081 l 1
 280.507 656.4 263 683.18 263 714 c 0
317.557 499.772 m 1
 221.641 275.914 l 1
 253.373 275.536 297.058 273.997 325.999 273.997 c 0
 349.697 273.997 381.094 274.456 409.509 275.062 c 1
 384.729 339.379 354.381 414.361 317.557 499.772 c 1
EndSplineSet
Substitution2: "'c2sc' Capitals to Small Capitals lookup 9 subtable" aring.sc
AlternateSubs2: "'aalt' Access All Alternates lookup 0 subtable" aring.sc
Position2: "'cpsp' Capital Spacing lookup 0 subtable" dx=2 dy=0 dh=5 dv=0
EndChar

StartChar: AE
Encoding: 198 198 134
Width: 802
GlyphClass: 2
Flags: MW
HStem: -2 29 0 39 266 39 329 34 605 40 618 28
VStem: 429 83 671 33
AnchorPoint: "Anker-5" 322 700 basechar 0
AnchorPoint: "Anker-4" 322 798 basechar 0
AnchorPoint: "Anker-3" 270 -108 basechar 0
AnchorPoint: "Anker-2" 58 8 basechar 0
LayerCount: 2
Fore
SplineSet
222.02 278.511 m 1x7b
 170.612 171.806 125.521 69.1035 98.001 -3.00098 c 1
 86.001 -0.000976562 64.001 -0.000976562 53.001 -0.000976562 c 0
 42.001 -0.000976562 30.001 -0.000976562 18.001 -3.00098 c 1
 124.001 199.999 220.985 409.999 366.001 645.666 c 1
 366.206 645.307 l 1
 368.001 647.999 l 1
 368.001 647.999 385.001 644.999 419.001 644.999 c 2
 632.001 644.999 l 2
 653.001 644.999 676.001 645.999 692.001 647.999 c 1
 694.001 644.999 l 1
 693.001 630.999 692.001 621.999 692.001 613.999 c 0
 692.001 604.999 693.001 595.999 694.001 587.999 c 1
 692.001 583.999 l 1
 692.001 583.999 614.671 594.275 509.001 594.275 c 0
 433.479 594.275 419.238 585.379 424.438 545.532 c 0
 438.64 475.152 454.609 402.418 470.661 333.009 c 1
 582.778 333.248 637.462 338.124 695 343 c 1
 698 340 l 1
 696 331 695 321 695 312 c 0
 695 303 696 293 698 284 c 1
 695 281 l 1
 633.721 287.217 535.371 290.278 480.506 290.886 c 1
 501.996 199.886 523.013 116.963 539.481 55.8359 c 1
 639.268 59.1982 752 66.001 752 66.001 c 1
 754 62.001 l 1
 753 54.001 752 39.001 752 29.001 c 0
 752 19.001 753 14.001 754 0.000976562 c 1
 752 -2.99902 l 1
 736 -0.999023 713 0.000976562 692 0.000976562 c 2
 555 0.000976562 l 1
 553.5 0.000976562 l 1
 500 0.000976562 l 2
 483 0.000976562 467 0.000976562 450 -2.99902 c 1
 450 32.6729 436.546 117.269 405.874 279.36 c 1
 383.671 279.743 361.286 280 340 280 c 0
 308.69 280 259.293 279.312 222.02 278.511 c 1x7b
397.244 324.649 m 1
 356.501 533.501 l 1
 354.501 533.501 l 1
 318.177 469.52 280.562 397.582 245.038 325.689 c 1
 274.669 325.126 310.233 324 335 324 c 0
 352.892 324 375.172 324.261 397.244 324.649 c 1
EndSplineSet
Substitution2: "'c2sc' Capitals to Small Capitals lookup 9 subtable" ae.sc
AlternateSubs2: "'aalt' Access All Alternates lookup 0 subtable" ae.sc
Position2: "'cpsp' Capital Spacing lookup 0 subtable" dx=2 dy=0 dh=5 dv=0
EndChar

StartChar: Ccedilla
Encoding: 199 199 135
Width: 671
GlyphClass: 2
Flags: MW
HStem: -185 25<330 355 330 376.5> -84 32<348.5 402> -9.73885 59.7388 602 56<330.999 416.999>
VStem: 37 145 400 53<-132.5 -108.5>
LayerCount: 2
Fore
SplineSet
358 -84 m 0
 339 -84 328.998 -85 312.998 -90 c 1
 306.998 -84 l 1
 340.423 -9.4375 l 1
 139.642 1.15332 36.998 159.477 36.998 315 c 0
 36.998 512 216.998 658 385.998 658 c 0
 507.998 658 603.998 613 603.998 613 c 1
 605.998 609.999 l 1
 594.236 560.747 589.553 530.993 585.999 480 c 1
 575.999 479 l 1
 534.999 561 461.999 602 371.999 602 c 0
 289.999 602 181.999 537 181.999 334 c 0
 181.999 188 225.999 50 380.999 50 c 0
 473.999 50 541.999 71 612.999 149 c 1
 635.999 125 l 1
 570.958 39.873 468.409 -5.91504 374.729 -9.73926 c 1
 356 -55 l 1
 364 -53 373 -52 382 -52 c 0
 422 -52 453 -76 453 -114 c 0
 453 -157 407 -185 346 -185 c 0
 314 -185 297 -179 272 -168 c 1
 282 -146 l 1
 309 -156 320 -160 340 -160 c 0
 370 -160 400 -146 400 -119 c 0
 400 -98 381 -84 358 -84 c 0
EndSplineSet
Substitution2: "'c2sc' Capitals to Small Capitals lookup 9 subtable" ccedilla.sc
AlternateSubs2: "'aalt' Access All Alternates lookup 0 subtable" ccedilla.sc
Position2: "'cpsp' Capital Spacing lookup 0 subtable" dx=2 dy=0 dh=5 dv=0
EndChar

StartChar: Egrave
Encoding: 200 200 136
Width: 564
GlyphClass: 2
Flags: MW
HStem: 0 63<232 299 232 454> 316 51<224 248> 575 21G<504 504> 587 58<232 299> 697 21G<362 371>
VStem: 96 128<200 316 367 445>
LayerCount: 2
Fore
SplineSet
245 817 m 1xcc
 366 733 l 2
 377 725 381 719 381 712 c 0
 381 702 376 697 366 697 c 0
 358 697 344 700 323 709 c 2
 169 772 l 1
 245 817 l 1xcc
224 200 m 2
 224 183 225 87 232 63 c 1
 366 63 514 75 514 75 c 1
 516 71 l 1
 515 63 514 46 514 36 c 0
 514 26 515 14 516 0 c 1
 514 -3 l 1
 498 -1 475 0 454 0 c 2
 160 0 l 2
 125 0 87 -3 87 -3 c 1
 86 0 l 1
 94 54 96 125 96 200 c 2
 96 445 l 2
 96 520 94 588 86 645 c 1
 88 648 l 1
 88 648 126 645 160 645 c 2
 444 645 l 2
 465 645 488 646 504 648 c 1
 506 645 l 1xdc
 505 631 504 618 504 610 c 0
 504 601 505 587 506 579 c 1
 504 575 l 1xec
 504 575 366 587 232 587 c 1xdc
 225 563 224 462 224 445 c 2
 224 367 l 1
 342 367 388 372 447 377 c 1
 450 374 l 1
 448 365 447 351 447 342 c 0
 447 333 448 318 450 309 c 1
 447 306 l 1
 378 313 272 316 224 316 c 1
 224 200 l 2
EndSplineSet
Substitution2: "'c2sc' Capitals to Small Capitals lookup 9 subtable" egrave.sc
AlternateSubs2: "'aalt' Access All Alternates lookup 0 subtable" egrave.sc
Position2: "'cpsp' Capital Spacing lookup 0 subtable" dx=2 dy=0 dh=5 dv=0
EndChar

StartChar: Eacute
Encoding: 201 201 137
Width: 564
GlyphClass: 2
Flags: MW
HStem: 0 63<232 299 232 454> 316 51<224 248> 575 21G<504 504> 587 58<232 299> 698 21G<220.5 229.5>
VStem: 96 128<200 316 367 445>
AnchorPoint: "Anker-4" 286 662 basechar 0
LayerCount: 2
Fore
SplineSet
350 820 m 1xcc
 412 768 l 1
 268 710 l 2
 247 701 234 698 225 698 c 0
 216 698 211 703 211 713 c 0
 211 720 213.008 724.989 226 734 c 2
 350 820 l 1xcc
224 200 m 2
 224 183 225 87 232 63 c 1
 366 63 514 75 514 75 c 1
 516 71 l 1
 515 63 514 46 514 36 c 0
 514 26 515 14 516 0 c 1
 514 -3 l 1
 498 -1 475 0 454 0 c 2
 160 0 l 2
 125 0 87 -3 87 -3 c 1
 86 0 l 1
 94 54 96 125 96 200 c 2
 96 445 l 2
 96 520 94 588 86 645 c 1
 88 648 l 1
 88 648 126 645 160 645 c 2
 444 645 l 2
 465 645 488 646 504 648 c 1
 506 645 l 1xdc
 505 631 504 618 504 610 c 0
 504 601 505 587 506 579 c 1
 504 575 l 1xec
 504 575 366 587 232 587 c 1xdc
 225 563 224 462 224 445 c 2
 224 367 l 1
 342 367 388 372 447 377 c 1
 450 374 l 1
 448 365 447 351 447 342 c 0
 447 333 448 318 450 309 c 1
 447 306 l 1
 378 313 272 316 224 316 c 1
 224 200 l 2
EndSplineSet
Substitution2: "'c2sc' Capitals to Small Capitals lookup 9 subtable" eacute.sc
AlternateSubs2: "'aalt' Access All Alternates lookup 0 subtable" eacute.sc
Position2: "'cpsp' Capital Spacing lookup 0 subtable" dx=2 dy=0 dh=5 dv=0
EndChar

StartChar: Ecircumflex
Encoding: 202 202 138
Width: 564
GlyphClass: 2
Flags: MW
HStem: 0 63<232 299 232 454> 316 51<224 248> 575 21G<504 504> 587 58<232 299> 690 21G<175 189>
VStem: 96 128<200 316 367 445>
LayerCount: 2
Fore
SplineSet
317 805 m 1xcc
 347 769 382 738 418 711 c 1
 402 690 l 1
 363 708 329 727 296 752 c 1
 259 725 227 707 189 690 c 1
 175 711 l 1
 212 739 243 771 274 805 c 1
 317 805 l 1xcc
224 200 m 2
 224 183 225 87 232 63 c 1
 366 63 514 75 514 75 c 1
 516 71 l 1
 515 63 514 46 514 36 c 0
 514 26 515 14 516 0 c 1
 514 -3 l 1
 498 -1 475 0 454 0 c 2
 160 0 l 2
 125 0 87 -3 87 -3 c 1
 86 0 l 1
 94 54 96 125 96 200 c 2
 96 445 l 2
 96 520 94 588 86 645 c 1
 88 648 l 1
 88 648 126 645 160 645 c 2
 444 645 l 2
 465 645 488 646 504 648 c 1
 506 645 l 1xdc
 505 631 504 618 504 610 c 0
 504 601 505 587 506 579 c 1
 504 575 l 1xec
 504 575 366 587 232 587 c 1xdc
 225 563 224 462 224 445 c 2
 224 367 l 1
 342 367 388 372 447 377 c 1
 450 374 l 1
 448 365 447 351 447 342 c 0
 447 333 448 318 450 309 c 1
 447 306 l 1
 378 313 272 316 224 316 c 1
 224 200 l 2
EndSplineSet
Substitution2: "'c2sc' Capitals to Small Capitals lookup 9 subtable" ecircumflex.sc
AlternateSubs2: "'aalt' Access All Alternates lookup 0 subtable" ecircumflex.sc
Position2: "'cpsp' Capital Spacing lookup 0 subtable" dx=2 dy=0 dh=5 dv=0
EndChar

StartChar: Edieresis
Encoding: 203 203 139
Width: 564
GlyphClass: 2
Flags: MW
HStem: 0 63<232 299 232 454> 316 51<224 248> 575 21G<504 504> 587 58<232 299> 705 90<180.5 205.5>
VStem: 96 128<200 316 367 445> 148 90<737.5 762.5> 337 91<738.5 763>
LayerCount: 2
Fore
SplineSet
337 751 m 0xc9
 337 775 358 796 382 796 c 0
 407 796 428 775 428 751 c 0
 428 726 407 705 382 705 c 0
 358 705 337 726 337 751 c 0xc9
148 750 m 0xcb
 148 775 168 795 193 795 c 0
 218 795 238 775 238 750 c 0
 238 725 218 705 193 705 c 0
 168 705 148 725 148 750 c 0xcb
224 200 m 2xdd
 224 183 225 87 232 63 c 1
 366 63 514 75 514 75 c 1
 516 71 l 1
 515 63 514 46 514 36 c 0
 514 26 515 14 516 0 c 1
 514 -3 l 1
 498 -1 475 0 454 0 c 2
 160 0 l 2
 125 0 87 -3 87 -3 c 1
 86 0 l 1
 94 54 96 125 96 200 c 2
 96 445 l 2
 96 520 94 588 86 645 c 1
 88 648 l 1
 88 648 126 645 160 645 c 2
 444 645 l 2
 465 645 488 646 504 648 c 1
 506 645 l 1xdd
 505 631 504 618 504 610 c 0
 504 601 505 587 506 579 c 1
 504 575 l 1xed
 504 575 366 587 232 587 c 1
 225 563 224 462 224 445 c 2
 224 367 l 1
 342 367 388 372 447 377 c 1
 450 374 l 1
 448 365 447 351 447 342 c 0
 447 333 448 318 450 309 c 1
 447 306 l 1
 378 313 272 316 224 316 c 1
 224 200 l 2xdd
EndSplineSet
Substitution2: "'c2sc' Capitals to Small Capitals lookup 9 subtable" edieresis.sc
AlternateSubs2: "'aalt' Access All Alternates lookup 0 subtable" edieresis.sc
Position2: "'cpsp' Capital Spacing lookup 0 subtable" dx=2 dy=0 dh=5 dv=0
EndChar

StartChar: Igrave
Encoding: 204 204 140
Width: 335
GlyphClass: 2
Flags: MW
HStem: -3 21G<97 97 242 242> 628 20G<98 98 243 243> 697 21G<216 225>
VStem: 106 128<200 445>
LayerCount: 2
Fore
SplineSet
99 817 m 1
 220 733 l 2
 231 725 235 719 235 712 c 0
 235 702 230 697 220 697 c 0
 212 697 198 700 177 709 c 2
 23 772 l 1
 99 817 l 1
106 445 m 2
 106 520 104 588 96 645 c 1
 98 648 l 1
 98 648 136 645 170 645 c 0
 205 645 243 648 243 648 c 1
 244 645 l 1
 236 592 234 520 234 445 c 2
 234 200 l 2
 234 125 236 57 244 0 c 1
 242 -3 l 1
 242 -3 204 0 170 0 c 0
 135 0 97 -3 97 -3 c 1
 96 0 l 1
 104 54 106 125 106 200 c 2
 106 445 l 2
EndSplineSet
Substitution2: "'c2sc' Capitals to Small Capitals lookup 9 subtable" igrave.sc
AlternateSubs2: "'aalt' Access All Alternates lookup 0 subtable" igrave.sc
Position2: "'cpsp' Capital Spacing lookup 0 subtable" dx=2 dy=0 dh=5 dv=0
EndChar

StartChar: Iacute
Encoding: 205 205 141
Width: 335
GlyphClass: 2
Flags: MW
HStem: -3 21G<97 97 242 242> 628 20G<98 98 243 243> 697 21G<80.5 89.5>
VStem: 106 128<200 445>
LayerCount: 2
Fore
SplineSet
210 819 m 1
 272 767 l 1
 128 709 l 2
 107 700 94 697 85 697 c 0
 76 697 71 702 71 712 c 0
 71 719 73.0078 723.989 86 733 c 2
 210 819 l 1
106 445 m 2
 106 520 104 588 96 645 c 1
 98 648 l 1
 98 648 136 645 170 645 c 0
 205 645 243 648 243 648 c 1
 244 645 l 1
 236 592 234 520 234 445 c 2
 234 200 l 2
 234 125 236 57 244 0 c 1
 242 -3 l 1
 242 -3 204 0 170 0 c 0
 135 0 97 -3 97 -3 c 1
 96 0 l 1
 104 54 106 125 106 200 c 2
 106 445 l 2
EndSplineSet
Substitution2: "'c2sc' Capitals to Small Capitals lookup 9 subtable" iacute.sc
AlternateSubs2: "'aalt' Access All Alternates lookup 0 subtable" iacute.sc
Position2: "'cpsp' Capital Spacing lookup 0 subtable" dx=2 dy=0 dh=5 dv=0
EndChar

StartChar: Icircumflex
Encoding: 206 206 142
Width: 335
GlyphClass: 2
Flags: MW
HStem: -3 21G<97 97 242 242> 628 20G<98 98 243 243> 690 21G<45 59>
VStem: 106 128<200 445>
LayerCount: 2
Fore
SplineSet
187 805 m 1
 217 769 252 738 288 711 c 1
 272 690 l 1
 233 708 199 727 166 752 c 1
 129 725 97 707 59 690 c 1
 45 711 l 1
 82 739 113 771 144 805 c 1
 187 805 l 1
106 445 m 2
 106 520 104 588 96 645 c 1
 98 648 l 1
 98 648 136 645 170 645 c 0
 205 645 243 648 243 648 c 1
 244 645 l 1
 236 592 234 520 234 445 c 2
 234 200 l 2
 234 125 236 57 244 0 c 1
 242 -3 l 1
 242 -3 204 0 170 0 c 0
 135 0 97 -3 97 -3 c 1
 96 0 l 1
 104 54 106 125 106 200 c 2
 106 445 l 2
EndSplineSet
Substitution2: "'c2sc' Capitals to Small Capitals lookup 9 subtable" icircumflex.sc
AlternateSubs2: "'aalt' Access All Alternates lookup 0 subtable" icircumflex.sc
Position2: "'cpsp' Capital Spacing lookup 0 subtable" dx=2 dy=0 dh=5 dv=0
EndChar

StartChar: Idieresis
Encoding: 207 207 143
Width: 335
GlyphClass: 2
Flags: MW
HStem: -3 21G<97 97 242 242> 628 20G<98 98 243 243> 704 90<62.5 87.5>
VStem: 30 90<736.5 761.5> 106 128<200 445> 219 91<737.5 762>
LayerCount: 2
Fore
SplineSet
219 750 m 0xe4
 219 774 240 795 264 795 c 0
 289 795 310 774 310 750 c 0
 310 725 289 704 264 704 c 0
 240 704 219 725 219 750 c 0xe4
30 749 m 0xf0
 30 774 50 794 75 794 c 0
 100 794 120 774 120 749 c 0
 120 724 100 704 75 704 c 0
 50 704 30 724 30 749 c 0xf0
106 445 m 2xe8
 106 520 104 588 96 645 c 1
 98 648 l 1
 98 648 136 645 170 645 c 0
 205 645 243 648 243 648 c 1
 244 645 l 1
 236 592 234 520 234 445 c 2
 234 200 l 2
 234 125 236 57 244 0 c 1
 242 -3 l 1
 242 -3 204 0 170 0 c 0
 135 0 97 -3 97 -3 c 1
 96 0 l 1
 104 54 106 125 106 200 c 2
 106 445 l 2xe8
EndSplineSet
Substitution2: "'c2sc' Capitals to Small Capitals lookup 9 subtable" idieresis.sc
AlternateSubs2: "'aalt' Access All Alternates lookup 0 subtable" idieresis.sc
Position2: "'cpsp' Capital Spacing lookup 0 subtable" dx=2 dy=0 dh=5 dv=0
EndChar

StartChar: Eth
Encoding: 208 208 144
Width: 761
GlyphClass: 2
Flags: MW
HStem: -2 53<317.5 408.5 289 439.5> 287 39<17 101 17 101 229 288> 595 53<314.5 421>
VStem: 101 128<200 287 326 445 445 482.5> 573 145<185 361>
LayerCount: 2
Fore
SplineSet
229 91 m 2
 229 59 240 51 338 51 c 0
 479 51 573 82 573 284 c 0
 573 438 529 595 313 595 c 0
 264 595 229 590 229 555 c 2
 229 326 l 1
 288 326 l 1
 288 287 l 1
 229 287 l 1
 229 91 l 2
165 645 m 0
 238 645 278 648 351 648 c 0
 543 648 718 494 718 308 c 0
 718 62 510 -2 369 -2 c 0
 266 -2 245 0 165 0 c 0
 130 0 92 -3 92 -3 c 1
 91 0 l 1
 99 54 101 124.999 101 200 c 2
 101 287 l 1
 17 287 l 1
 17 326 l 1
 101 326 l 1
 101 445 l 2
 101 520 99 588 91 645 c 1
 93 648 l 1
 93 648 131 645 165 645 c 0
EndSplineSet
Substitution2: "'c2sc' Capitals to Small Capitals lookup 9 subtable" eth.sc
AlternateSubs2: "'aalt' Access All Alternates lookup 0 subtable" eth.sc
Position2: "'cpsp' Capital Spacing lookup 0 subtable" dx=2 dy=0 dh=5 dv=0
EndChar

StartChar: Ntilde
Encoding: 209 209 145
Width: 756
GlyphClass: 2
Flags: MW
HStem: -3 21G<92 92 182 182> 645 3<91 93> 686 60<422 442> 742 61<281.5 304>
VStem: 101 73<200 439> 220 26<689 697> 481 28<794 804> 593 74<178 445>
LayerCount: 2
Fore
SplineSet
432 746 m 0xef
 454 746 467 755 481 804 c 1
 509 794 l 1
 496 726 466 686 418 686 c 0xef
 395 686 373 701 353 716 c 0
 333 729 313 742 295 742 c 0
 268 742 257 727 246 689 c 1
 220 697 l 1
 234 765 258 803 303 803 c 0xdf
 334 803 357 787 377 771 c 0
 395 757 412 746 432 746 c 0xef
101 445 m 2
 101 520 99 588 91 645 c 1
 93 648 l 1
 93 648 130 645 164 645 c 0
 168.5 645 198 647 198 647 c 1
 541 203 l 2
 584.323 146.92 593 123.553 593 178 c 2
 593 445 l 2
 593 520 591 588 583 645 c 1
 565 648 l 1
 565 648 605.667 645 630 645 c 0
 652.333 645 656 648 656 648 c 1
 677 645 l 1
 669 592 667 520 667 445 c 2
 667 21 l 2
 667 2 640 -10 626 -10 c 0
 577 -10 553.834 -2.21777 505.388 59 c 2
 192 455 l 2
 154.887 503.029 174 499.961 174 439 c 2
 174 200 l 2
 174 125 176 57 184 0 c 1
 182 -3 l 1
 182 -3 161.333 0 137 0 c 0
 114.667 0 92 -3 92 -3 c 1
 91 0 l 1
 99 53 101 125 101 200 c 2
 101 445 l 2
EndSplineSet
Substitution2: "'c2sc' Capitals to Small Capitals lookup 9 subtable" ntilde.sc
AlternateSubs2: "'aalt' Access All Alternates lookup 0 subtable" ntilde.sc
Position2: "'cpsp' Capital Spacing lookup 0 subtable" dx=2 dy=0 dh=5 dv=0
EndChar

StartChar: Ograve
Encoding: 210 210 146
Width: 759
GlyphClass: 2
Flags: MW
HStem: -10 53<338 455 338 485.075> 605 53<316 434.5> 699 21G<426 435>
VStem: 42 141<231 408> 576 141<229 414>
LayerCount: 2
Fore
SplineSet
309 819 m 1
 430 735 l 2
 441 727 445 721 445 714 c 0
 445 704 440 699 430 699 c 0
 422 699 408 702 387 711 c 2
 233 774 l 1
 309 819 l 1
364 605 m 0
 268 605 183 537 183 327 c 0
 183 135 278 43 398 43 c 0
 512 43 576 131 576 310 c 0
 576 518 505 605 364 605 c 0
717 329 m 0
 717 129 592.149 -10 378 -10 c 0
 180 -10 42 121.989 42 310 c 0
 42 506 174 658 377 658 c 0
 590 658 717 527 717 329 c 0
EndSplineSet
Substitution2: "'c2sc' Capitals to Small Capitals lookup 9 subtable" ograve.sc
AlternateSubs2: "'aalt' Access All Alternates lookup 0 subtable" ograve.sc
Position2: "'cpsp' Capital Spacing lookup 0 subtable" dx=2 dy=0 dh=5 dv=0
EndChar

StartChar: Oacute
Encoding: 211 211 147
Width: 759
GlyphClass: 2
Flags: MW
HStem: -10 53<338 455 338 485.075> 605 53<316 434.5> 698 21G<262.5 271.5>
VStem: 42 141<231 408> 576 141<229 414>
LayerCount: 2
Fore
SplineSet
392 820 m 1
 454 768 l 1
 310 710 l 2
 289 701 276 698 267 698 c 0
 258 698 253 703 253 713 c 0
 253 720 255.008 724.989 268 734 c 2
 392 820 l 1
364 605 m 0
 268 605 183 537 183 327 c 0
 183 135 278 43 398 43 c 0
 512 43 576 131 576 310 c 0
 576 518 505 605 364 605 c 0
717 329 m 0
 717 129 592.149 -10 378 -10 c 0
 180 -10 42 121.989 42 310 c 0
 42 506 174 658 377 658 c 0
 590 658 717 527 717 329 c 0
EndSplineSet
Substitution2: "'c2sc' Capitals to Small Capitals lookup 9 subtable" oacute.sc
AlternateSubs2: "'aalt' Access All Alternates lookup 0 subtable" oacute.sc
Position2: "'cpsp' Capital Spacing lookup 0 subtable" dx=2 dy=0 dh=5 dv=0
EndChar

StartChar: Ocircumflex
Encoding: 212 212 148
Width: 759
GlyphClass: 2
Flags: MW
HStem: -10 53<338 455 338 485.075> 605 53<316 434.5> 690 21G<231 245>
VStem: 42 141<231 408> 576 141<229 414>
LayerCount: 2
Fore
SplineSet
373 805 m 1
 403 769 438 738 474 711 c 1
 458 690 l 1
 419 708 385 727 352 752 c 1
 315 725 283 707 245 690 c 1
 231 711 l 1
 268 739 299 771 330 805 c 1
 373 805 l 1
364 605 m 0
 268 605 183 537 183 327 c 0
 183 135 278 43 398 43 c 0
 512 43 576 131 576 310 c 0
 576 518 505 605 364 605 c 0
717 329 m 0
 717 129 592.149 -10 378 -10 c 0
 180 -10 42 121.989 42 310 c 0
 42 506 174 658 377 658 c 0
 590 658 717 527 717 329 c 0
EndSplineSet
Substitution2: "'c2sc' Capitals to Small Capitals lookup 9 subtable" ocircumflex.sc
AlternateSubs2: "'aalt' Access All Alternates lookup 0 subtable" ocircumflex.sc
Position2: "'cpsp' Capital Spacing lookup 0 subtable" dx=2 dy=0 dh=5 dv=0
EndChar

StartChar: Otilde
Encoding: 213 213 149
Width: 759
GlyphClass: 2
Flags: MW
HStem: -10 53<338 455 338 485.075> 605 53<316 434.5> 686 60<420 440> 742 61<279.5 302>
VStem: 42 141<231 408> 218 26<689 697> 479 28<794 804> 576 141<229 414>
LayerCount: 2
Fore
SplineSet
430 746 m 0xef
 452 746 465 755 479 804 c 1
 507 794 l 1
 494 726 464 686 416 686 c 0xef
 393 686 371 701 351 716 c 0
 331 729 311 742 293 742 c 0
 266 742 255 727 244 689 c 1
 218 697 l 1
 232 765 256 803 301 803 c 0xdf
 332 803 355 787 375 771 c 0
 393 757 410 746 430 746 c 0xef
364 605 m 0
 268 605 183 537 183 327 c 0
 183 135 278 43 398 43 c 0
 512 43 576 131 576 310 c 0
 576 518 505 605 364 605 c 0
717 329 m 0
 717 129 592.149 -10 378 -10 c 0
 180 -10 42 121.989 42 310 c 0
 42 506 174 658 377 658 c 0
 590 658 717 527 717 329 c 0
EndSplineSet
Substitution2: "'c2sc' Capitals to Small Capitals lookup 9 subtable" otilde.sc
AlternateSubs2: "'aalt' Access All Alternates lookup 0 subtable" otilde.sc
Position2: "'cpsp' Capital Spacing lookup 0 subtable" dx=2 dy=0 dh=5 dv=0
EndChar

StartChar: Odieresis
Encoding: 214 214 150
Width: 759
GlyphClass: 2
Flags: MW
HStem: -10 53<338 455 338 485.075> 605 53<316 434.5> 650 107<147.5 177 564 593.5>
VStem: 42 141<231 408> 108 108<688.5 718> 525 108<688.5 718> 576 141<229 414>
LayerCount: 2
Fore
SplineSet
525 703 m 0xa4
 525 733 549 757 579 757 c 0
 608 757 633 733 633 703 c 0
 633 674 608 650 579 650 c 0
 549 650 525 674 525 703 c 0xa4
108 703 m 0xa8
 108 733 133 757 162 757 c 0
 192 757 216 733 216 703 c 0
 216 674 192 650 162 650 c 0
 133 650 108 674 108 703 c 0xa8
364 605 m 0xd2
 268 605 183 537 183 327 c 0
 183 135 278 43 398 43 c 0
 512 43 576 131 576 310 c 0
 576 518 505 605 364 605 c 0xd2
717 329 m 0
 717 129 592.149 -10 378 -10 c 0
 180 -10 42 121.989 42 310 c 0
 42 506 174 658 377 658 c 0
 590 658 717 527 717 329 c 0
EndSplineSet
Substitution2: "'ss01' Stilgruppe 1 lookup 17 subtable" Odieresis.alt
Substitution2: "'c2sc' Capitals to Small Capitals lookup 9 subtable" odieresis.sc
AlternateSubs2: "'aalt' Access All Alternates lookup 0 subtable" odieresis.sc
Position2: "'cpsp' Capital Spacing lookup 0 subtable" dx=2 dy=0 dh=5 dv=0
EndChar

StartChar: multiply
Encoding: 215 215 151
Width: 527
GlyphClass: 2
Flags: W
LayerCount: 2
Fore
SplineSet
298 230 m 1
 421 108 l 1
 386 73 l 1
 264 195 l 1
 142 73 l 1
 106 108 l 1
 229 230 l 1
 106 353 l 1
 142 388 l 1
 264 265 l 1
 386 388 l 1
 421 353 l 1
 298 230 l 1
EndSplineSet
EndChar

StartChar: Oslash
Encoding: 216 216 152
Width: 759
GlyphClass: 2
Flags: MW
HStem: -10 53 605 53
VStem: 42 141<296.842 408> 576 141
LayerCount: 2
Fore
SplineSet
89 -40 m 1
 55 -13.999 l 1
 133.089 82.0664 l 1
 75.4678 138.409 42 217.411 42 310 c 0
 42 506 174 658 377 658 c 0
 450.582 658 513.901 642.366 565.267 613.738 c 1
 611.001 670 l 1
 645.001 646 l 1
 600.282 590.825 l 1
 675.546 533.377 717.001 442.123 717.001 329 c 0
 717.001 129 592.15 -10 378.001 -10 c 0
 294.628 -10 221.894 13.4023 165.62 54.5352 c 1
 89 -40 l 1
364 605.001 m 0
 268 605.001 183 537.002 183 327.002 c 0
 183 266.682 192.376 216.231 208.959 175.404 c 1
 512.235 548.499 l 1
 477.196 587.215 427.753 605.001 364 605.001 c 0
537.197 512.993 m 1
 230.14 134.143 l 1
 269.332 72.8887 329.605 43.002 398 43.002 c 0
 512 43.002 576 131.002 576 310.002 c 0
 576 398.869 563.04 465.649 537.197 512.993 c 1
EndSplineSet
Substitution2: "'c2sc' Capitals to Small Capitals lookup 9 subtable" oslash.sc
AlternateSubs2: "'aalt' Access All Alternates lookup 0 subtable" oslash.sc
Position2: "'cpsp' Capital Spacing lookup 0 subtable" dx=2 dy=0 dh=5 dv=0
EndChar

StartChar: Ugrave
Encoding: 217 217 153
Width: 703
GlyphClass: 2
Flags: MW
HStem: -10 60<290.438 439.506 290.438 441> 628 20G<78 78 223 223 523 523 625 625> 698 21G<393 402>
VStem: 86 128<236 269 269 445> 531 85<277 295 295 445>
LayerCount: 2
Fore
SplineSet
276 818 m 1
 397 734 l 2
 408 726 412 720 412 713 c 0
 412 703 407 698 397 698 c 0
 389 698 375 701 354 710 c 2
 200 773 l 1
 276 818 l 1
531 445 m 2
 531 520 529 588 521 645 c 1
 523 648 l 1
 523 648 549.667 645 574 645 c 0
 596.333 645 625 648 625 648 c 1
 626 645 l 1
 618 592 616 520 616 445 c 2
 616 295 l 2
 616 108 540 -10 342 -10 c 0
 237.693 -10 86 32 86 236 c 2
 86 445 l 2
 86 520 84 588 76 645 c 1
 78 648 l 1
 78 648 116 645 150 645 c 0
 185 645 223 648 223 648 c 1
 224 645 l 1
 216 592 214 520 214 445 c 2
 214 269 l 2
 214 194 217.876 50 363 50 c 0
 516.013 50 531 165 531 277 c 2
 531 445 l 2
EndSplineSet
Substitution2: "'c2sc' Capitals to Small Capitals lookup 9 subtable" ugrave.sc
AlternateSubs2: "'aalt' Access All Alternates lookup 0 subtable" ugrave.sc
Position2: "'cpsp' Capital Spacing lookup 0 subtable" dx=2 dy=0 dh=5 dv=0
EndChar

StartChar: Uacute
Encoding: 218 218 154
Width: 703
GlyphClass: 2
Flags: MW
HStem: -10 60<290.438 439.506 290.438 441> 628 20G<78 78 223 223 523 523 625 625> 697 21G<275.5 284.5>
VStem: 86 128<236 269 269 445> 531 85<277 295 295 445>
LayerCount: 2
Fore
SplineSet
405 819 m 1
 467 767 l 1
 323 709 l 2
 302 700 289 697 280 697 c 0
 271 697 266 702 266 712 c 0
 266 719 268.008 723.989 281 733 c 2
 405 819 l 1
531 445 m 2
 531 520 529 588 521 645 c 1
 523 648 l 1
 523 648 549.667 645 574 645 c 0
 596.333 645 625 648 625 648 c 1
 626 645 l 1
 618 592 616 520 616 445 c 2
 616 295 l 2
 616 108 540 -10 342 -10 c 0
 237.693 -10 86 32 86 236 c 2
 86 445 l 2
 86 520 84 588 76 645 c 1
 78 648 l 1
 78 648 116 645 150 645 c 0
 185 645 223 648 223 648 c 1
 224 645 l 1
 216 592 214 520 214 445 c 2
 214 269 l 2
 214 194 217.876 50 363 50 c 0
 516.013 50 531 165 531 277 c 2
 531 445 l 2
EndSplineSet
Substitution2: "'c2sc' Capitals to Small Capitals lookup 9 subtable" uacute.sc
AlternateSubs2: "'aalt' Access All Alternates lookup 0 subtable" uacute.sc
Position2: "'cpsp' Capital Spacing lookup 0 subtable" dx=2 dy=0 dh=5 dv=0
EndChar

StartChar: Ucircumflex
Encoding: 219 219 155
Width: 703
GlyphClass: 2
Flags: MW
HStem: -10 60<290.438 439.506 290.438 441> 628 20G<78 78 223 223 523 523 625 625> 690 21G<228 242>
VStem: 86 128<236 269 269 445> 531 85<277 295 295 445>
LayerCount: 2
Fore
SplineSet
370 805 m 1
 400 769 435 738 471 711 c 1
 455 690 l 1
 416 708 382 727 349 752 c 1
 312 725 280 707 242 690 c 1
 228 711 l 1
 265 739 296 771 327 805 c 1
 370 805 l 1
531 445 m 2
 531 520 529 588 521 645 c 1
 523 648 l 1
 523 648 549.667 645 574 645 c 0
 596.333 645 625 648 625 648 c 1
 626 645 l 1
 618 592 616 520 616 445 c 2
 616 295 l 2
 616 108 540 -10 342 -10 c 0
 237.693 -10 86 32 86 236 c 2
 86 445 l 2
 86 520 84 588 76 645 c 1
 78 648 l 1
 78 648 116 645 150 645 c 0
 185 645 223 648 223 648 c 1
 224 645 l 1
 216 592 214 520 214 445 c 2
 214 269 l 2
 214 194 217.876 50 363 50 c 0
 516.013 50 531 165 531 277 c 2
 531 445 l 2
EndSplineSet
Substitution2: "'c2sc' Capitals to Small Capitals lookup 9 subtable" ucircumflex.sc
AlternateSubs2: "'aalt' Access All Alternates lookup 0 subtable" ucircumflex.sc
Position2: "'cpsp' Capital Spacing lookup 0 subtable" dx=2 dy=0 dh=5 dv=0
EndChar

StartChar: Udieresis
Encoding: 220 220 156
Width: 703
GlyphClass: 2
Flags: MW
HStem: -10 60<290.438 439.506 290.438 441> 628 20G<78 78 223 223 523 523 625 625> 650 107<273.5 303 446 475.5>
VStem: 86 128<236 269 269 445> 234 108<688.5 718> 407 108<688.5 718> 531 85<277 295 295 445>
LayerCount: 2
Fore
SplineSet
407 703 m 0
 407 733 431 757 461 757 c 0
 490 757 515 733 515 703 c 0
 515 674 490 650 461 650 c 0
 431 650 407 674 407 703 c 0
234 703 m 0
 234 733 259 757 288 757 c 0
 318 757 342 733 342 703 c 0
 342 674 318 650 288 650 c 0
 259 650 234 674 234 703 c 0
531 445 m 2
 531 520 529 588 521 645 c 1
 523 648 l 1
 523 648 549.667 645 574 645 c 0
 596.333 645 625 648 625 648 c 1
 626 645 l 1
 618 592 616 520 616 445 c 2
 616 295 l 2
 616 108 540 -10 342 -10 c 0
 237.693 -10 86 32 86 236 c 2
 86 445 l 2
 86 520 84 588 76 645 c 1
 78 648 l 1
 78 648 116 645 150 645 c 0
 185 645 223 648 223 648 c 1
 224 645 l 1
 216 592 214 520 214 445 c 2
 214 269 l 2
 214 194 217.876 50 363 50 c 0
 516.013 50 531 165 531 277 c 2
 531 445 l 2
EndSplineSet
Substitution2: "'ss01' Stilgruppe 1 lookup 17 subtable" Udieresis.alt
Substitution2: "'c2sc' Capitals to Small Capitals lookup 9 subtable" udieresis.sc
AlternateSubs2: "'aalt' Access All Alternates lookup 0 subtable" udieresis.sc
Position2: "'cpsp' Capital Spacing lookup 0 subtable" dx=2 dy=0 dh=5 dv=0
EndChar

StartChar: Yacute
Encoding: 221 221 157
Width: 633
GlyphClass: 2
Flags: MW
HStem: -3 21G 628 20G 698 21G<230.5 239.5>
VStem: 245.956 130.349
LayerCount: 2
Fore
SplineSet
360 820 m 1
 422 768 l 1
 278 710 l 2
 257 701 244 698 235 698 c 0
 226 698 221 703 221 713 c 0
 221 720 223.008 724.989 236 734 c 2
 360 820 l 1
376.305 285.594 m 1
 377.191 186.485 379.938 44.9209 383.999 -3.00098 c 1
 367.999 -0.000976562 325.999 -0.000976562 310.999 -0.000976562 c 0
 295.999 -0.000976562 254.999 -0.000976562 238.999 -3.00098 c 1
 244.71 52.4805 245.762 177.438 245.955 275.073 c 1
 207.883 340.188 55.9834 588.021 15.999 647.998 c 1
 32.999 644.998 76.999 644.998 93.999 644.998 c 0
 110.999 644.998 154.999 644.998 171.999 647.998 c 1
 222.787 548.27 277.838 458.772 337.153 357.462 c 1
 392.283 445.059 453.681 549.719 501 647.999 c 1
 513 644.999 551 644.999 564 644.999 c 0
 576 644.999 593 644.999 606 647.999 c 1
 485.299 463.456 417.336 365.484 376.305 285.594 c 1
EndSplineSet
Substitution2: "'c2sc' Capitals to Small Capitals lookup 9 subtable" yacute.sc
AlternateSubs2: "'aalt' Access All Alternates lookup 0 subtable" yacute.sc
Position2: "'cpsp' Capital Spacing lookup 0 subtable" dx=2 dy=0 dh=5 dv=0
EndChar

StartChar: Thorn
Encoding: 222 222 158
Width: 589
GlyphClass: 2
Flags: MW
HStem: -3 21G<86 86 231 231> 147 50 466.065 58.199 476 50 628 20G
VStem: 95 128<200.938 200.938 200.938 444.998> 415 140
LayerCount: 2
Fore
SplineSet
95 445 m 2xde
 95 520 93 587.998 85 644.998 c 1
 87 647.998 l 1
 87 647.998 125 644.998 159 644.998 c 0
 194 644.998 232 647.998 232 647.998 c 1
 233 644.998 l 1
 227.887 611.122 225.225 569.484 223.969 524.263 c 1xee
 258.191 525.999 290.875 525.999 308.999 525.999 c 0
 493.999 525.999 554.999 413.999 554.999 342.999 c 0
 554.999 267.999 472.999 146.999 294.999 146.999 c 0
 263.149 146.999 238.752 148.655 223.315 152.722 c 1
 224.135 96.3213 226.717 44.7676 233 0 c 1
 231 -3 l 1
 231 -3 193 0 159 0 c 0
 124 0 86 -3 86 -3 c 1
 85 0 l 1
 93 54 95 125 95 200 c 2
 95 445 l 2xde
223 200.938 m 1
 234.116 198.536 256.674 196.998 290 196.998 c 0
 362 196.998 415 213.998 415 342.998 c 0
 415 462.998 367 475.998 308 475.998 c 0xde
 290.136 475.998 245.754 471.578 223.056 466.063 c 1
 223.018 459.077 223 452.051 223 444.998 c 2
 223 200.938 l 1
EndSplineSet
Substitution2: "'c2sc' Capitals to Small Capitals lookup 9 subtable" thorn.sc
AlternateSubs2: "'aalt' Access All Alternates lookup 0 subtable" thorn.sc
Position2: "'cpsp' Capital Spacing lookup 0 subtable" dx=2 dy=0 dh=5 dv=0
EndChar

StartChar: germandbls
Encoding: 223 223 159
Width: 592
GlyphClass: 2
Flags: MW
HStem: -10 46<363.5 393 363.5 424> -3 21G 376 53<30.5 65.5 41.5 65.5 41.5 77> 655 43<290.5 347.5>
VStem: 89 118<200 360 360 366> 380 117<548.5 601> 425 126<120.5 202.5>
LayerCount: 2
Fore
SplineSet
378 -10 m 0xba
 327.5 -10 277 13 269 18 c 1x7a
 268 21 l 1
 279 40 280 61 287 88 c 1
 298 89 l 1
 309 69 349 36 378 36 c 0
 408 36 425 55 425 156 c 0xba
 425 249 378 327 294 391 c 1
 294 413 l 1
 361 465 380 501 380 574 c 0
 380 628 374 655 321 655 c 0
 217 655 207 550 207 442 c 2
 207 200 l 2
 207 125 208 57 217 0 c 1
 215 -3 l 1
 215 -3 182 0 148 0 c 0
 113 0 80 -3 80 -3 c 1
 79 0 l 1
 88 54 89 125 89 200 c 2
 89 360 l 2
 89 372 86 376 77 376 c 2
 33 376 l 2
 28 376 27 377 27 381 c 2
 27 409 l 2
 27 417 33 429 50 429 c 0
 81 429 89 450 89 477 c 0
 89 642 251 698 330 698 c 0
 434 698 497 635 497 587 c 0x7c
 497 510 453 464 383 411 c 1
 383 409 l 1
 462 357 551 289 551 173 c 0
 551 68 470 -10 378 -10 c 0xba
EndSplineSet
Substitution2: "'ss03' Stilgruppe 3 lookup 19 subtable" germandbls.ss03
Substitution2: "'smcp' Gemeine nach Kapit+AOQA-lchen lookup 3 subtable" germandbls.sc
AlternateSubs2: "'aalt' Access All Alternates lookup 0 subtable" germandbls.sc germandbls.alt germandbls.scalt germandbls.ss03
EndChar

StartChar: agrave
Encoding: 224 224 160
Width: 518
GlyphClass: 2
Flags: MW
HStem: -10 60<134 222> 385 54<209.5 258.5>
VStem: 42 119<93.5 128 93.5 132> 311 106<75 219>
LayerCount: 2
Fore
SplineSet
216 674 m 1
 285 550 l 2
 289 543 294 532 294 524 c 0
 294 515 286 508 277 508 c 0
 269 508 259.123 513.141 242 528 c 2
 121 633 l 1
 123 644 l 1
 131 653 160 676 196 676 c 0
 201 676 212 675 216 674 c 1
311 219 m 1
 231 198 l 2
 175.172 183.345 161 149 161 107 c 0
 161 80 178 50 208 50 c 0
 236 50 268 72 294 93 c 0
 302 99 311 106 311 119 c 2
 311 219 l 1
417 85 m 0
 417 65 429.999 54 440.999 54 c 0
 454.999 54 467.999 68 476.999 75 c 1
 479.999 73 l 2
 491.361 67.2744 496.683 57.0137 501 46 c 1
 470 6 428.051 -10 389 -10 c 0
 346 -10 318 16 310 48 c 1
 308 48 l 1
 258 3 208.115 -10 169 -10 c 0
 99 -10 42 24 42 98 c 0
 42 166 122.039 223.837 218 247 c 2
 305 268 l 2
 308 269 311 273 311 280 c 0
 311 357.058 285 385 232 385 c 0
 187 385 145 351 119 306 c 1
 96 307 l 1
 70 373 l 1
 73 377 l 1
 97 398 169 439 241 439 c 0
 331 439 421 406.004 421 277 c 0
 421 266 417 114 417 85 c 0
EndSplineSet
Substitution2: "'smcp' Gemeine nach Kapit+AOQA-lchen lookup 3 subtable" agrave.sc
AlternateSubs2: "'aalt' Access All Alternates lookup 0 subtable" agrave.sc
EndChar

StartChar: aacute
Encoding: 225 225 161
Width: 518
GlyphClass: 2
Flags: MW
HStem: -10 60<134 222> 385 54<209.5 258.5>
VStem: 42 119<93.5 128 93.5 132> 311 106<75 219>
LayerCount: 2
Fore
SplineSet
256 674 m 1
 259 675 267 676 272 676 c 0
 302 676 321 662 329 652 c 1
 339 629 l 1
 219 521 l 2
 205 509 191 505 181 505 c 0
 173 505 165 513 165 519 c 0
 165 525 167 534 173 543 c 2
 256 674 l 1
311 219 m 1
 231 198 l 2
 175.172 183.345 161 149 161 107 c 0
 161 80 178 50 208 50 c 0
 236 50 268 72 294 93 c 0
 302 99 311 106 311 119 c 2
 311 219 l 1
417 85 m 0
 417 65 429.999 54 440.999 54 c 0
 454.999 54 467.999 68 476.999 75 c 1
 479.999 73 l 2
 491.361 67.2744 496.683 57.0137 501 46 c 1
 470 6 428.051 -10 389 -10 c 0
 346 -10 318 16 310 48 c 1
 308 48 l 1
 258 3 208.115 -10 169 -10 c 0
 99 -10 42 24 42 98 c 0
 42 166 122.039 223.837 218 247 c 2
 305 268 l 2
 308 269 311 273 311 280 c 0
 311 357.058 285 385 232 385 c 0
 187 385 145 351 119 306 c 1
 96 307 l 1
 70 373 l 1
 73 377 l 1
 97 398 169 439 241 439 c 0
 331 439 421 406.004 421 277 c 0
 421 266 417 114 417 85 c 0
EndSplineSet
Substitution2: "'smcp' Gemeine nach Kapit+AOQA-lchen lookup 3 subtable" aacute.sc
AlternateSubs2: "'aalt' Access All Alternates lookup 0 subtable" aacute.sc
EndChar

StartChar: acircumflex
Encoding: 226 226 162
Width: 518
GlyphClass: 2
Flags: MW
HStem: -10 60<134 222> 385 54<209.5 258.5> 629 20G<231 283 283 283>
VStem: 42 119<93.5 128 93.5 132> 311 106<75 219>
LayerCount: 2
Fore
SplineSet
283 649 m 1
 313 600 351 556 388 515 c 1
 363 496 l 1
 320 522 291 542 256 579 c 1
 218 540 190 522 150 496 c 1
 125 515 l 1
 161 556 201 601 231 649 c 1
 283 649 l 1
311 219 m 1
 231 198 l 2
 175.172 183.345 161 149 161 107 c 0
 161 80 178 50 208 50 c 0
 236 50 268 72 294 93 c 0
 302 99 311 106 311 119 c 2
 311 219 l 1
417 85 m 0
 417 65 429.999 54 440.999 54 c 0
 454.999 54 467.999 68 476.999 75 c 1
 479.999 73 l 2
 491.361 67.2744 496.683 57.0137 501 46 c 1
 470 6 428.051 -10 389 -10 c 0
 346 -10 318 16 310 48 c 1
 308 48 l 1
 258 3 208.115 -10 169 -10 c 0
 99 -10 42 24 42 98 c 0
 42 166 122.039 223.837 218 247 c 2
 305 268 l 2
 308 269 311 273 311 280 c 0
 311 357.058 285 385 232 385 c 0
 187 385 145 351 119 306 c 1
 96 307 l 1
 70 373 l 1
 73 377 l 1
 97 398 169 439 241 439 c 0
 331 439 421 406.004 421 277 c 0
 421 266 417 114 417 85 c 0
EndSplineSet
Substitution2: "'smcp' Gemeine nach Kapit+AOQA-lchen lookup 3 subtable" acircumflex.sc
AlternateSubs2: "'aalt' Access All Alternates lookup 0 subtable" acircumflex.sc
EndChar

StartChar: atilde
Encoding: 227 227 163
Width: 518
GlyphClass: 2
Flags: MW
HStem: -10 60<134 222> 385 54<209.5 258.5> 514 60<308 328> 570 61<167.5 190>
VStem: 42 119<93.5 128 93.5 132> 106 26<517 525> 311 106<75 219> 367 28<622 632>
LayerCount: 2
Fore
SplineSet
318 574 m 0xe5
 340 574 353 583 367 632 c 1
 395 622 l 1
 382 554 352 514 304 514 c 0xe5
 281 514 259 529 239 544 c 0
 219 557 199 570 181 570 c 0
 154 570 143 555 132 517 c 1
 106 525 l 1
 120 593 144 631 189 631 c 0xd5
 220 631 243 615 263 599 c 0
 281 585 298 574 318 574 c 0xe5
311 219 m 1xca
 231 198 l 2
 175.172 183.345 161 149 161 107 c 0
 161 80 178 50 208 50 c 0
 236 50 268 72 294 93 c 0
 302 99 311 106 311 119 c 2
 311 219 l 1xca
417 85 m 0
 417 65 429.999 54 440.999 54 c 0
 454.999 54 467.999 68 476.999 75 c 1
 479.999 73 l 2
 491.361 67.2744 496.683 57.0137 501 46 c 1
 470 6 428.051 -10 389 -10 c 0
 346 -10 318 16 310 48 c 1
 308 48 l 1
 258 3 208.115 -10 169 -10 c 0
 99 -10 42 24 42 98 c 0
 42 166 122.039 223.837 218 247 c 2
 305 268 l 2
 308 269 311 273 311 280 c 0
 311 357.058 285 385 232 385 c 0
 187 385 145 351 119 306 c 1
 96 307 l 1
 70 373 l 1
 73 377 l 1
 97 398 169 439 241 439 c 0
 331 439 421 406.004 421 277 c 0
 421 266 417 114 417 85 c 0
EndSplineSet
Substitution2: "'smcp' Gemeine nach Kapit+AOQA-lchen lookup 3 subtable" atilde.sc
AlternateSubs2: "'aalt' Access All Alternates lookup 0 subtable" atilde.sc
EndChar

StartChar: adieresis
Encoding: 228 228 164
Width: 518
GlyphClass: 2
Flags: MW
HStem: -10 60<134 222> 385 54<209.5 258.5> 518 107<141.5 171 322 351.5>
VStem: 42 119<93.5 128 93.5 132> 102 108<556.5 586> 283 108<556.5 586> 311 106<75 219>
LayerCount: 2
Fore
SplineSet
283 571 m 0xe4
 283 601 307 625 337 625 c 0
 366 625 391 601 391 571 c 0
 391 542 366 518 337 518 c 0
 307 518 283 542 283 571 c 0xe4
102 571 m 0xe8
 102 601 127 625 156 625 c 0
 186 625 210 601 210 571 c 0
 210 542 186 518 156 518 c 0
 127 518 102 542 102 571 c 0xe8
311 219 m 1xf2
 231 198 l 2
 175.172 183.345 161 149 161 107 c 0
 161 80 178 50 208 50 c 0
 236 50 268 72 294 93 c 0
 302 99 311 106 311 119 c 2
 311 219 l 1xf2
417 85 m 0
 417 65 429.999 54 440.999 54 c 0
 454.999 54 467.999 68 476.999 75 c 1
 479.999 73 l 2
 491.361 67.2744 496.683 57.0137 501 46 c 1
 470 6 428.051 -10 389 -10 c 0
 346 -10 318 16 310 48 c 1
 308 48 l 1
 258 3 208.115 -10 169 -10 c 0
 99 -10 42 24 42 98 c 0
 42 166 122.039 223.837 218 247 c 2
 305 268 l 2
 308 269 311 273 311 280 c 0
 311 357.058 285 385 232 385 c 0
 187 385 145 351 119 306 c 1
 96 307 l 1
 70 373 l 1
 73 377 l 1
 97 398 169 439 241 439 c 0
 331 439 421 406.004 421 277 c 0
 421 266 417 114 417 85 c 0
EndSplineSet
Substitution2: "'smcp' Gemeine nach Kapit+AOQA-lchen lookup 3 subtable" adieresis.sc
AlternateSubs2: "'aalt' Access All Alternates lookup 0 subtable" adieresis.sc
EndChar

StartChar: aring
Encoding: 229 229 165
Width: 518
GlyphClass: 2
Flags: MW
HStem: -10 60<134 222> 385 54<209.5 258.5> 499 27<244.5 275.5 244.5 283> 638 27<244.5 275>
VStem: 42 119<93.5 128 93.5 132> 174 32<568 597 568 605> 311 106<75 219> 314 31<568 597.5>
LayerCount: 2
Fore
SplineSet
260 638 m 0xfd
 229 638 206 612 206 582 c 0
 206 554 229 526 260 526 c 0
 291 526 314 554 314 582 c 0
 314 613 290 638 260 638 c 0xfd
174 582 m 0
 174 628 213 665 259 665 c 0
 305 665 345 629 345 582 c 0
 345 537 307 499 259 499 c 0
 213 499 174 536 174 582 c 0
311 219 m 1xfe
 231 198 l 2
 175.172 183.345 161 149 161 107 c 0
 161 80 178 50 208 50 c 0
 236 50 268 72 294 93 c 0
 302 99 311 106 311 119 c 2
 311 219 l 1xfe
417 85 m 0
 417 65 429.999 54 440.999 54 c 0
 454.999 54 467.999 68 476.999 75 c 1
 479.999 73 l 2
 491.361 67.2744 496.683 57.0137 501 46 c 1
 470 6 428.051 -10 389 -10 c 0
 346 -10 318 16 310 48 c 1
 308 48 l 1
 258 3 208.115 -10 169 -10 c 0
 99 -10 42 24 42 98 c 0
 42 166 122.039 223.837 218 247 c 2
 305 268 l 2
 308 269 311 273 311 280 c 0
 311 357.058 285 385 232 385 c 0
 187 385 145 351 119 306 c 1
 96 307 l 1
 70 373 l 1
 73 377 l 1
 97 398 169 439 241 439 c 0
 331 439 421 406.004 421 277 c 0
 421 266 417 114 417 85 c 0
EndSplineSet
Substitution2: "'smcp' Gemeine nach Kapit+AOQA-lchen lookup 3 subtable" aring.sc
AlternateSubs2: "'aalt' Access All Alternates lookup 0 subtable" aring.sc
EndChar

StartChar: ae
Encoding: 230 230 166
Width: 687
GlyphClass: 2
Flags: MW
HStem: -10 50<168.5 210 168.5 217.499> 215 40<296 296> 394 45<179.75 222.999 174.749 238.4 461.499 513>
VStem: 39 82 296 78 562 84
AnchorPoint: "Anker-5" 339 549 basechar 0
AnchorPoint: "Anker-4" 332 644 basechar 0
AnchorPoint: "Anker-3" 327 -109 basechar 0
AnchorPoint: "Anker-2" 167 -5 basechar 0
AnchorPoint: "Anker-1" 604 30 basechar 0
LayerCount: 2
Fore
SplineSet
296 215 m 1
 163 203 121 157 121 106 c 0
 121 61 145 40 192 40 c 0
 228 40 271 61 285 100 c 0
 291.41 117.857 296 165 296 215 c 1
375 258 m 1
 515 266 562 245 562 306 c 0
 562 338 537 394 489 394 c 0
 426 394 383 343 375 258 c 1
202 394 m 0
 157.5 394 114.999 350 88.999 305 c 1
 75.999 306 l 1
 59.999 373 l 1
 62.999 377 l 1
 87.499 397.5 138.499 439 210.999 439 c 0
 234.999 439 310.999 436 347.999 369 c 1
 380.999 414 432.999 439 489.999 439 c 0
 603.999 439 645.999 343 645.999 309 c 0
 645.999 278.13 639.999 254 619.999 237 c 1
 584.256 217.305 509.535 225.427 373.999 218 c 1
 373.999 112 422.999 44 497.999 44 c 0
 551.999 44 590.999 77 620.999 112 c 1
 640.999 84 l 1
 611.999 30 549.999 -10 483.999 -10 c 0
 392.999 -10 359.999 34 339.999 59 c 1
 293.999 15 244.999 -10 189.999 -10 c 0
 84.999 -10 38.999 33 38.999 101 c 0
 38.999 184 125.999 243 295.999 255 c 1
 294.813 348.623 274.8 394 202 394 c 0
EndSplineSet
Substitution2: "'smcp' Gemeine nach Kapit+AOQA-lchen lookup 3 subtable" ae.sc
EndChar

StartChar: ccedilla
Encoding: 231 231 167
Width: 466
GlyphClass: 2
Flags: MW
HStem: -179 25<196 221 196 242.5> -78 32<214.5 268> -10 65<262.966 306.211> 385 54<246.001 298.251>
VStem: 36 123 266 53<-126.5 -102.5>
LayerCount: 2
Fore
SplineSet
224 -78 m 0
 205 -78 195.001 -79 179.001 -84 c 1
 173.001 -78 l 1
 206.13 -4.0957 l 1
 98.0176 17.7529 36.001 98.4541 36.001 208 c 0
 36.001 350 146.001 439 280.001 439 c 0
 330.001 439 393.001 423 424.001 407 c 1
 426.001 404 l 1
 403.001 303 l 1
 385.001 302 l 1
 358.501 347.5 317.501 385 279.001 385 c 0
 213.001 385 159.001 336.122 159.001 234 c 0
 159.001 127.995 215.994 55 292.001 55 c 0
 332.013 55 371.001 68 409.001 116 c 1
 413.001 116 l 1
 425.667 109.094 431.765 100.534 434.001 91 c 1
 408.001 36 344.421 -10 268.001 -10 c 0
 257.932 -10 248.147 -9.57715 238.657 -8.74609 c 1
 222 -49 l 1
 230 -47 239 -46 248 -46 c 0
 288 -46 319 -70 319 -108 c 0
 319 -151 273 -179 212 -179 c 0
 180 -179 163 -173 138 -162 c 1
 148 -140 l 1
 175 -150 186 -154 206 -154 c 0
 236 -154 266 -140 266 -113 c 0
 266 -92 247 -78 224 -78 c 0
EndSplineSet
Substitution2: "'smcp' Gemeine nach Kapit+AOQA-lchen lookup 3 subtable" ccedilla.sc
AlternateSubs2: "'aalt' Access All Alternates lookup 0 subtable" ccedilla.sc
EndChar

StartChar: egrave
Encoding: 232 232 168
Width: 470
GlyphClass: 2
Flags: MW
HStem: -10 68<260.482 305> 243 44<163 306 306 311 163 429 160 306> 390 49<246.5 276>
VStem: 34 126<172.5 243 172.5 275> 320 127<296.5 302 254.5 336.5>
LayerCount: 2
Fore
SplineSet
230 674 m 1
 299 550 l 2
 303 543 308 532 308 524 c 0
 308 515 300 508 291 508 c 0
 283 508 273.123 513.141 256 528 c 2
 135 633 l 1
 137 644 l 1
 145 653 174 676 210 676 c 0
 215 676 226 675 230 674 c 1
163 287 m 1
 306 287 l 2
 316 287 320 292 320 301 c 0
 320 372 294 390 258 390 c 0
 235 390 178 376 163 287 c 1
434 114 m 1
 447.735 106.409 454 94 454 79 c 1
 416 27 341 -10 269 -10 c 0
 120 -10 34 84 34 199 c 0
 34 351 163 439 258 439 c 0
 390 439 447 344 447 260 c 0
 447 249 440 243 429 243 c 2
 160 243 l 1
 160 102 231.965 58 289 58 c 0
 344 58 399 76 434 114 c 1
EndSplineSet
Substitution2: "'smcp' Gemeine nach Kapit+AOQA-lchen lookup 3 subtable" egrave.sc
AlternateSubs2: "'aalt' Access All Alternates lookup 0 subtable" egrave.sc
EndChar

StartChar: eacute
Encoding: 233 233 169
Width: 470
GlyphClass: 2
Flags: MW
HStem: -10 68<260.482 305> 243 44<163 306 306 311 163 429 160 306> 390 49<246.5 276>
VStem: 34 126<172.5 243 172.5 275> 320 127<296.5 302 254.5 336.5>
LayerCount: 2
Fore
SplineSet
282 674 m 1
 285 675 293 676 298 676 c 0
 328 676 347 662 355 652 c 1
 365 629 l 1
 245 521 l 2
 231 509 217 505 207 505 c 0
 199 505 191 513 191 519 c 0
 191 525 193 534 199 543 c 2
 282 674 l 1
163 287 m 1
 306 287 l 2
 316 287 320 292 320 301 c 0
 320 372 294 390 258 390 c 0
 235 390 178 376 163 287 c 1
434 114 m 1
 447.735 106.409 454 94 454 79 c 1
 416 27 341 -10 269 -10 c 0
 120 -10 34 84 34 199 c 0
 34 351 163 439 258 439 c 0
 390 439 447 344 447 260 c 0
 447 249 440 243 429 243 c 2
 160 243 l 1
 160 102 231.965 58 289 58 c 0
 344 58 399 76 434 114 c 1
EndSplineSet
Substitution2: "'smcp' Gemeine nach Kapit+AOQA-lchen lookup 3 subtable" eacute.sc
AlternateSubs2: "'aalt' Access All Alternates lookup 0 subtable" eacute.sc
EndChar

StartChar: ecircumflex
Encoding: 234 234 170
Width: 470
GlyphClass: 2
Flags: MW
HStem: -10 68<260.482 305> 243 44<163 306 306 311 163 429 160 306> 390 49<246.5 276> 629 20G<233 285 285 285>
VStem: 34 126<172.5 243 172.5 275> 320 127<296.5 302 254.5 336.5>
LayerCount: 2
Fore
SplineSet
285 649 m 1
 315 600 353 556 390 515 c 1
 365 496 l 1
 322 522 293 542 258 579 c 1
 220 540 192 522 152 496 c 1
 127 515 l 1
 163 556 203 601 233 649 c 1
 285 649 l 1
163 287 m 1
 306 287 l 2
 316 287 320 292 320 301 c 0
 320 372 294 390 258 390 c 0
 235 390 178 376 163 287 c 1
434 114 m 1
 447.735 106.409 454 94 454 79 c 1
 416 27 341 -10 269 -10 c 0
 120 -10 34 84 34 199 c 0
 34 351 163 439 258 439 c 0
 390 439 447 344 447 260 c 0
 447 249 440 243 429 243 c 2
 160 243 l 1
 160 102 231.965 58 289 58 c 0
 344 58 399 76 434 114 c 1
EndSplineSet
Substitution2: "'smcp' Gemeine nach Kapit+AOQA-lchen lookup 3 subtable" ecircumflex.sc
AlternateSubs2: "'aalt' Access All Alternates lookup 0 subtable" ecircumflex.sc
EndChar

StartChar: edieresis
Encoding: 235 235 171
Width: 470
GlyphClass: 2
Flags: MW
HStem: -10 68<260.482 305> 243 44<163 306 306 311 163 429 160 306> 390 49<246.5 276> 518 107<158.5 188 339 368.5>
VStem: 34 126<172.5 243 172.5 275> 119 108<556.5 586> 300 108<556.5 586> 320 127<296.5 302 254.5 336.5>
LayerCount: 2
Fore
SplineSet
300 571 m 0xf2
 300 601 324 625 354 625 c 0
 383 625 408 601 408 571 c 0
 408 542 383 518 354 518 c 0
 324 518 300 542 300 571 c 0xf2
119 571 m 0xf4
 119 601 144 625 173 625 c 0
 203 625 227 601 227 571 c 0
 227 542 203 518 173 518 c 0
 144 518 119 542 119 571 c 0xf4
163 287 m 1
 306 287 l 2
 316 287 320 292 320 301 c 0xf1
 320 372 294 390 258 390 c 0
 235 390 178 376 163 287 c 1
434 114 m 1
 447.735 106.409 454 94 454 79 c 1
 416 27 341 -10 269 -10 c 0
 120 -10 34 84 34 199 c 0
 34 351 163 439 258 439 c 0
 390 439 447 344 447 260 c 0
 447 249 440 243 429 243 c 2
 160 243 l 1xf9
 160 102 231.965 58 289 58 c 0
 344 58 399 76 434 114 c 1
EndSplineSet
Substitution2: "'smcp' Gemeine nach Kapit+AOQA-lchen lookup 3 subtable" edieresis.sc
AlternateSubs2: "'aalt' Access All Alternates lookup 0 subtable" edieresis.sc
EndChar

StartChar: igrave
Encoding: 236 236 172
Width: 306
GlyphClass: 2
Flags: MW
HStem: -3 21G<85 85 220 220> 419 20G<213 216>
VStem: 94 118<180 235 235 251 142 272.5>
LayerCount: 2
Fore
SplineSet
130 674 m 1
 199 550 l 2
 203 543 208 532 208 524 c 0
 208 515 200 508 191 508 c 0
 183 508 173.123 513.141 156 528 c 2
 35 633 l 1
 37 644 l 1
 45 653 74 676 110 676 c 0
 115 676 126 675 130 674 c 1
94 235 m 2
 94 310 92 368 84 411 c 1
 86 414 l 1
 126 417 188 429 213 439 c 1
 219 439 222 436 222 429 c 0
 214 368 212 326 212 251 c 2
 212 180 l 2
 212 104 214 57 222 0 c 1
 220 -3 l 1
 220 -3 187 0 153 0 c 0
 118 0 85 -3 85 -3 c 1
 84 0 l 1
 92 54 94 105 94 180 c 2
 94 235 l 2
EndSplineSet
Substitution2: "'smcp' Gemeine nach Kapit+AOQA-lchen lookup 3 subtable" igrave.sc
AlternateSubs2: "'aalt' Access All Alternates lookup 0 subtable" igrave.sc
EndChar

StartChar: iacute
Encoding: 237 237 173
Width: 306
GlyphClass: 2
Flags: MW
HStem: -3 21G<85 85 220 220> 419 20G<213 216>
VStem: 94 118<180 235 235 251 142 272.5>
LayerCount: 2
Fore
SplineSet
186 674 m 1
 189 675 197 676 202 676 c 0
 232 676 251 662 259 652 c 1
 269 629 l 1
 149 521 l 2
 135 509 121 505 111 505 c 0
 103 505 95 513 95 519 c 0
 95 525 97 534 103 543 c 2
 186 674 l 1
94 235 m 2
 94 310 92 368 84 411 c 1
 86 414 l 1
 126 417 188 429 213 439 c 1
 219 439 222 436 222 429 c 0
 214 368 212 326 212 251 c 2
 212 180 l 2
 212 104 214 57 222 0 c 1
 220 -3 l 1
 220 -3 187 0 153 0 c 0
 118 0 85 -3 85 -3 c 1
 84 0 l 1
 92 54 94 105 94 180 c 2
 94 235 l 2
EndSplineSet
Substitution2: "'smcp' Gemeine nach Kapit+AOQA-lchen lookup 3 subtable" iacute.sc
AlternateSubs2: "'aalt' Access All Alternates lookup 0 subtable" iacute.sc
EndChar

StartChar: icircumflex
Encoding: 238 238 174
Width: 306
GlyphClass: 2
Flags: MW
HStem: -3 21G<85 85 220 220> 419 20G<213 216> 629 20G<122 174 174 174>
VStem: 94 118<180 235 235 251 142 272.5>
LayerCount: 2
Fore
SplineSet
174 649 m 1
 204 600 242 556 279 515 c 1
 254 496 l 1
 211 522 182 542 147 579 c 1
 109 540 81 522 41 496 c 1
 16 515 l 1
 52 556 92 601 122 649 c 1
 174 649 l 1
94 235 m 2
 94 310 92 368 84 411 c 1
 86 414 l 1
 126 417 188 429 213 439 c 1
 219 439 222 436 222 429 c 0
 214 368 212 326 212 251 c 2
 212 180 l 2
 212 104 214 57 222 0 c 1
 220 -3 l 1
 220 -3 187 0 153 0 c 0
 118 0 85 -3 85 -3 c 1
 84 0 l 1
 92 54 94 105 94 180 c 2
 94 235 l 2
EndSplineSet
Substitution2: "'smcp' Gemeine nach Kapit+AOQA-lchen lookup 3 subtable" icircumflex.sc
AlternateSubs2: "'aalt' Access All Alternates lookup 0 subtable" icircumflex.sc
EndChar

StartChar: idieresis
Encoding: 239 239 175
Width: 306
GlyphClass: 2
Flags: MW
HStem: -3 21G<85 85 220 220> 419 20G<213 216> 518 107<44.5 74 225 254.5>
VStem: 5 108<556.5 586> 94 118<180 235 235 251 142 272.5> 186 108<556.5 586>
LayerCount: 2
Fore
SplineSet
186 571 m 0xe4
 186 601 210 625 240 625 c 0
 269 625 294 601 294 571 c 0
 294 542 269 518 240 518 c 0
 210 518 186 542 186 571 c 0xe4
5 571 m 0xf0
 5 601 30 625 59 625 c 0
 89 625 113 601 113 571 c 0
 113 542 89 518 59 518 c 0
 30 518 5 542 5 571 c 0xf0
94 235 m 2xe8
 94 310 92 368 84 411 c 1
 86 414 l 1
 126 417 188 429 213 439 c 1
 219 439 222 436 222 429 c 0
 214 368 212 326 212 251 c 2
 212 180 l 2
 212 104 214 57 222 0 c 1
 220 -3 l 1
 220 -3 187 0 153 0 c 0
 118 0 85 -3 85 -3 c 1
 84 0 l 1
 92 54 94 105 94 180 c 2
 94 235 l 2xe8
EndSplineSet
Substitution2: "'smcp' Gemeine nach Kapit+AOQA-lchen lookup 3 subtable" idieresis.sc
AlternateSubs2: "'aalt' Access All Alternates lookup 0 subtable" idieresis.sc
EndChar

StartChar: eth
Encoding: 240 240 176
Width: 495
GlyphClass: 2
Flags: MW
HStem: -10 41<216.5 275.5 216.5 291> 398 41<211 265 211 271.5> 678 20G<145 145 357 357>
VStem: 34 90<168 263 168 294.5> 368 88<152.5 246>
LayerCount: 2
Fore
SplineSet
252 31 m 0
 299 31 368 61 368 223 c 0
 368 269 364 313 352 356 c 1
 329 385 293 398 250 398 c 0
 149 398 124 301 124 225 c 0
 124 111 181 31 252 31 c 0
34 208 m 0
 34 381 170 439 252 439 c 0
 278 439 304 435 329 425 c 1
 307 478 276 526 239 572 c 1
 130 499 l 1
 108 531 l 1
 213 602 l 1
 197 618 l 2
 176 640 150 659 126 676 c 1
 145 698 l 1
 180 679 216 655 251 627 c 1
 357 698 l 1
 379 666 l 1
 282 601 l 1
 300 583 l 2
 389.5 493.5 456 383 456 237 c 0
 456 68 347 -10 235 -10 c 0
 111 -10 34 104 34 208 c 0
EndSplineSet
Substitution2: "'smcp' Gemeine nach Kapit+AOQA-lchen lookup 3 subtable" eth.sc
AlternateSubs2: "'aalt' Access All Alternates lookup 0 subtable" eth.sc
EndChar

StartChar: ntilde
Encoding: 241 241 177
Width: 579
GlyphClass: 2
Flags: MW
HStem: -3 21G<75 75 210 210 367 367 502 502> 372 67<317.5 339.5> 514 60<347 367> 570 61<206.5 229>
VStem: 84 117.999 145 26<517 525> 376 118<180 269 269 281 142 304> 406 28<622 632>
LayerCount: 2
Fore
SplineSet
357 574 m 0xe5
 379 574 392 583 406 632 c 1
 434 622 l 1
 421 554 391 514 343 514 c 0xe5
 320 514 298 529 278 544 c 0
 258 557 238 570 220 570 c 0
 193 570 182 555 171 517 c 1
 145 525 l 1
 159 593 183 631 228 631 c 0xd5
 259 631 282 615 302 599 c 0
 320 585 337 574 357 574 c 0xe5
494 180 m 2xca
 494 104 495 57 504 0 c 1
 502 -3 l 1
 502 -3 469 0 435 0 c 0
 400 0 367 -3 367 -3 c 1
 366 0 l 1
 375 54 376 105 376 180 c 2
 376 269 l 2
 376 339 366 372 313 372 c 0
 269 372 252.999 358 201.999 298 c 1
 201.999 180 l 2
 201.999 104 203.5 57 212 0 c 1
 210 -3 l 1
 210 -3 177.333 0 143 0 c 0
 108 0 75 -3 75 -3 c 1
 74 0 l 1
 82.5 53.5 84 105 84 180 c 2
 84 235 l 2
 84 309.667 81.667 368.333 74 411 c 1
 76 414 l 1
 116.5 417 174.931 428.972 200 439 c 1
 206.333 439 209 436 209 429 c 1
 204 398.667 199.806 356.998 199.806 356.998 c 1
 201.999 356.998 l 1
 265.999 431.998 292 439 343 439 c 0
 433 439 494 370 494 281 c 2
 494 180 l 2xca
EndSplineSet
Substitution2: "'smcp' Gemeine nach Kapit+AOQA-lchen lookup 3 subtable" ntilde.sc
AlternateSubs2: "'aalt' Access All Alternates lookup 0 subtable" ntilde.sc
EndChar

StartChar: ograve
Encoding: 242 242 178
Width: 528
GlyphClass: 2
Flags: MW
HStem: -10 50<226 300.5 226 340.5> 389 50<216 301.5>
VStem: 36 128<189.5 271.5 189.5 273.5> 364 128<160.5 256.5>
LayerCount: 2
Fore
SplineSet
254 674 m 1
 323 550 l 2
 327 543 332 532 332 524 c 0
 332 515 324 508 315 508 c 0
 307 508 297.123 513.141 280 528 c 2
 159 633 l 1
 161 644 l 1
 169 653 198 676 234 676 c 0
 239 676 250 675 254 674 c 1
36 205 m 0
 36 342 123 439 266 439 c 0
 435 439 492 318 492 214 c 0
 492 107 417 -10 264 -10 c 0
 115 -10 36 95 36 205 c 0
259 389 m 0
 173 389 164 315 164 228 c 0
 164 151 174 40 278 40 c 0
 323 40 364 72 364 187 c 0
 364 326 344 389 259 389 c 0
EndSplineSet
Substitution2: "'smcp' Gemeine nach Kapit+AOQA-lchen lookup 3 subtable" ograve.sc
AlternateSubs2: "'aalt' Access All Alternates lookup 0 subtable" ograve.sc
EndChar

StartChar: oacute
Encoding: 243 243 179
Width: 528
GlyphClass: 2
Flags: MW
HStem: -10 50<226 300.5 226 340.5> 389 50<216 301.5>
VStem: 36 128<189.5 271.5 189.5 273.5> 364 128<160.5 256.5>
LayerCount: 2
Fore
SplineSet
292 674 m 1
 295 675 303 676 308 676 c 0
 338 676 357 662 365 652 c 1
 375 629 l 1
 255 521 l 2
 241 509 227 505 217 505 c 0
 209 505 201 513 201 519 c 0
 201 525 203 534 209 543 c 2
 292 674 l 1
36 205 m 0
 36 342 123 439 266 439 c 0
 435 439 492 318 492 214 c 0
 492 107 417 -10 264 -10 c 0
 115 -10 36 95 36 205 c 0
259 389 m 0
 173 389 164 315 164 228 c 0
 164 151 174 40 278 40 c 0
 323 40 364 72 364 187 c 0
 364 326 344 389 259 389 c 0
EndSplineSet
Substitution2: "'smcp' Gemeine nach Kapit+AOQA-lchen lookup 3 subtable" oacute.sc
AlternateSubs2: "'aalt' Access All Alternates lookup 0 subtable" oacute.sc
EndChar

StartChar: ocircumflex
Encoding: 244 244 180
Width: 528
GlyphClass: 2
Flags: MW
HStem: -10 50<226 300.5 226 340.5> 389 50<216 301.5> 629 20G<238 290 290 290>
VStem: 36 128<189.5 271.5 189.5 273.5> 364 128<160.5 256.5>
LayerCount: 2
Fore
SplineSet
290 649 m 1
 320 600 358 556 395 515 c 1
 370 496 l 1
 327 522 298 542 263 579 c 1
 225 540 197 522 157 496 c 1
 132 515 l 1
 168 556 208 601 238 649 c 1
 290 649 l 1
36 205 m 0
 36 342 123 439 266 439 c 0
 435 439 492 318 492 214 c 0
 492 107 417 -10 264 -10 c 0
 115 -10 36 95 36 205 c 0
259 389 m 0
 173 389 164 315 164 228 c 0
 164 151 174 40 278 40 c 0
 323 40 364 72 364 187 c 0
 364 326 344 389 259 389 c 0
EndSplineSet
Substitution2: "'smcp' Gemeine nach Kapit+AOQA-lchen lookup 3 subtable" ocircumflex.sc
AlternateSubs2: "'aalt' Access All Alternates lookup 0 subtable" ocircumflex.sc
EndChar

StartChar: otilde
Encoding: 245 245 181
Width: 528
GlyphClass: 2
Flags: MW
HStem: -10 50<226 300.5 226 340.5> 389 50<216 301.5> 514 60<319 339> 570 61<178.5 201>
VStem: 36 128<189.5 271.5 189.5 273.5> 117 26<517 525> 364 128<160.5 256.5> 378 28<622 632>
LayerCount: 2
Fore
SplineSet
329 574 m 0xe5
 351 574 364 583 378 632 c 1
 406 622 l 1
 393 554 363 514 315 514 c 0xe5
 292 514 270 529 250 544 c 0
 230 557 210 570 192 570 c 0
 165 570 154 555 143 517 c 1
 117 525 l 1
 131 593 155 631 200 631 c 0xd5
 231 631 254 615 274 599 c 0
 292 585 309 574 329 574 c 0xe5
36 205 m 0xca
 36 342 123 439 266 439 c 0
 435 439 492 318 492 214 c 0
 492 107 417 -10 264 -10 c 0
 115 -10 36 95 36 205 c 0xca
259 389 m 0
 173 389 164 315 164 228 c 0
 164 151 174 40 278 40 c 0
 323 40 364 72 364 187 c 0
 364 326 344 389 259 389 c 0
EndSplineSet
Substitution2: "'smcp' Gemeine nach Kapit+AOQA-lchen lookup 3 subtable" otilde.sc
AlternateSubs2: "'aalt' Access All Alternates lookup 0 subtable" otilde.sc
EndChar

StartChar: odieresis
Encoding: 246 246 182
Width: 528
GlyphClass: 2
Flags: MW
HStem: -10 50<226 300.5 226 340.5> 389 50<216 301.5> 518 107<159.5 189 340 369.5>
VStem: 36 128<189.5 271.5 189.5 273.5> 120 108<556.5 586> 301 108<556.5 586> 364 128<160.5 256.5>
LayerCount: 2
Fore
SplineSet
301 571 m 0xe4
 301 601 325 625 355 625 c 0
 384 625 409 601 409 571 c 0
 409 542 384 518 355 518 c 0
 325 518 301 542 301 571 c 0xe4
120 571 m 0xe8
 120 601 145 625 174 625 c 0
 204 625 228 601 228 571 c 0
 228 542 204 518 174 518 c 0
 145 518 120 542 120 571 c 0xe8
36 205 m 0xf2
 36 342 123 439 266 439 c 0
 435 439 492 318 492 214 c 0
 492 107 417 -10 264 -10 c 0
 115 -10 36 95 36 205 c 0xf2
259 389 m 0
 173 389 164 315 164 228 c 0
 164 151 174 40 278 40 c 0
 323 40 364 72 364 187 c 0
 364 326 344 389 259 389 c 0
EndSplineSet
Substitution2: "'smcp' Gemeine nach Kapit+AOQA-lchen lookup 3 subtable" odieresis.sc
AlternateSubs2: "'aalt' Access All Alternates lookup 0 subtable" odieresis.sc
EndChar

StartChar: divide
Encoding: 247 247 183
Width: 527
GlyphClass: 2
Flags: MW
HStem: 52.7803 103.092 208 49 320.78 103.092
VStem: 222.45 103.93
LayerCount: 2
Fore
SplineSet
222.45 370.23 m 1
 222.45 374.423 l 1
 231.67 398.729 245.08 412.977 272.738 423.873 c 1
 276.091 423.873 l 1
 302.912 414.653 317.16 400.404 326.38 374.423 c 1
 326.38 370.23 l 1
 316.322 340.896 302.073 327.485 276.091 320.78 c 1
 272.738 320.78 l 1
 243.403 327.485 230.832 340.059 222.45 370.23 c 1
222.45 102.23 m 1
 222.45 106.423 l 1
 231.67 130.729 245.08 144.977 272.738 155.873 c 1
 276.091 155.873 l 1
 302.912 146.653 317.16 132.404 326.38 106.423 c 1
 326.38 102.23 l 1
 316.322 72.8955 302.073 59.4854 276.091 52.7803 c 1
 272.738 52.7803 l 1
 243.403 59.4854 230.832 72.0576 222.45 102.23 c 1
461 257.001 m 1
 461 208.001 l 1
 66 208.001 l 1
 66 257.001 l 1
 461 257.001 l 1
EndSplineSet
EndChar

StartChar: oslash
Encoding: 248 248 184
Width: 528
GlyphClass: 2
Flags: MW
HStem: -10 50 389 50
VStem: 36 128 364 128
LayerCount: 2
Fore
SplineSet
424 454 m 1
 454.998 431 l 1
 420.062 388.464 l 1
 471.867 343.615 491.998 275.807 491.998 214.001 c 0
 491.998 107.001 416.998 -9.99902 263.998 -9.99902 c 0
 207.606 -9.99902 161.24 5.04102 125.391 29.7002 c 1
 77.999 -27.999 l 1
 47.999 -1.99902 l 1
 95.1523 55.1865 l 1
 56.1016 95.2949 35.999 149.512 35.999 205.001 c 0
 35.999 342.001 122.999 439.001 265.999 439.001 c 0
 316.13 439.001 356.407 428.354 388.264 410.661 c 1
 424 454 l 1
258.998 389 m 0
 172.998 389 163.999 314.999 163.999 227.999 c 0
 163.999 202.697 165.079 173.724 170.219 146.224 c 1
 338.152 349.889 l 1
 322.118 376.353 297.082 389 258.998 389 c 0
354.122 308.181 m 1
 183.842 100.862 l 1
 199.722 65.6582 227.995 39.998 277.999 39.998 c 0
 322.999 39.998 363.999 71.998 363.999 186.998 c 0
 363.999 237.04 361.407 277.232 354.122 308.181 c 1
EndSplineSet
Substitution2: "'smcp' Gemeine nach Kapit+AOQA-lchen lookup 3 subtable" oslash.sc
AlternateSubs2: "'aalt' Access All Alternates lookup 0 subtable" oslash.sc
EndChar

StartChar: ugrave
Encoding: 249 249 185
Width: 577
GlyphClass: 2
Flags: MW
HStem: -10 64<251 260.5> -3 21G<381 384 501 501> 412 20G<76 76 211 211 360 360 495 495>
VStem: 84 118<126 159 159 249 114.5 287> 368 118<64 192 154.5 192 192 249 154.5 287>
LayerCount: 2
Fore
SplineSet
248 674 m 1x38
 317 550 l 2
 321 543 326 532 326 524 c 0
 326 515 318 508 309 508 c 0
 301 508 291.123 513.141 274 528 c 2
 153 633 l 1
 155 644 l 1
 163 653 192 676 228 676 c 0
 233 676 244 675 248 674 c 1x38
368 64 m 1
 312 4 281 -10 240 -10 c 0
 141 -10 84 57 84 126 c 2
 84 249 l 2
 84 325 83 372 74 429 c 1
 76 432 l 1
 76 432 109 429 143 429 c 0
 178 429 211 432 211 432 c 1
 212 429 l 1
 203 376 202 324 202 249 c 2
 202 159 l 2
 202 70 236 54 266 54 c 0xb8
 310.8 54 341.915 97.1729 368 128 c 1
 368 249 l 2
 368 325 367 372 358 429 c 1
 360 432 l 1
 360 432 393 429 427 429 c 0
 462 429 495 432 495 432 c 1
 496 429 l 1
 487 376 486 324 486 249 c 2
 486 192 l 2
 486 117 495 43 503 0 c 1
 501 -3 l 1
 488 -1 450.127 0 437.5 0 c 0
 423 0 397.333 -1.33301 384 -3 c 0x78
 378 -3 375 -2 375 0 c 2
 370 64 l 1
 368 64 l 1
EndSplineSet
Substitution2: "'smcp' Gemeine nach Kapit+AOQA-lchen lookup 3 subtable" ugrave.sc
AlternateSubs2: "'aalt' Access All Alternates lookup 0 subtable" ugrave.sc
EndChar

StartChar: uacute
Encoding: 250 250 186
Width: 577
GlyphClass: 2
Flags: MW
HStem: -10 64<251 260.5> -3 21G<381 384 501 501> 412 20G<76 76 211 211 360 360 495 495>
VStem: 84 118<126 159 159 249 114.5 287> 368 118<64 192 154.5 192 192 249 154.5 287>
LayerCount: 2
Fore
SplineSet
318 674 m 1x38
 321 675 329 676 334 676 c 0
 364 676 383 662 391 652 c 1
 401 629 l 1
 281 521 l 2
 267 509 253 505 243 505 c 0
 235 505 227 513 227 519 c 0
 227 525 229 534 235 543 c 2
 318 674 l 1x38
368 64 m 1
 312 4 281 -10 240 -10 c 0
 141 -10 84 57 84 126 c 2
 84 249 l 2
 84 325 83 372 74 429 c 1
 76 432 l 1
 76 432 109 429 143 429 c 0
 178 429 211 432 211 432 c 1
 212 429 l 1
 203 376 202 324 202 249 c 2
 202 159 l 2
 202 70 236 54 266 54 c 0xb8
 310.8 54 341.915 97.1729 368 128 c 1
 368 249 l 2
 368 325 367 372 358 429 c 1
 360 432 l 1
 360 432 393 429 427 429 c 0
 462 429 495 432 495 432 c 1
 496 429 l 1
 487 376 486 324 486 249 c 2
 486 192 l 2
 486 117 495 43 503 0 c 1
 501 -3 l 1
 488 -1 450.127 0 437.5 0 c 0
 423 0 397.333 -1.33301 384 -3 c 0x78
 378 -3 375 -2 375 0 c 2
 370 64 l 1
 368 64 l 1
EndSplineSet
Substitution2: "'smcp' Gemeine nach Kapit+AOQA-lchen lookup 3 subtable" uacute.sc
AlternateSubs2: "'aalt' Access All Alternates lookup 0 subtable" uacute.sc
EndChar

StartChar: ucircumflex
Encoding: 251 251 187
Width: 577
GlyphClass: 2
Flags: MW
HStem: -10 64<251 260.5> -3 21G<381 384 501 501> 412 20G<76 76 211 211 360 360 495 495> 629 20G<272 324 324 324>
VStem: 84 118<126 159 159 249 114.5 287> 368 118<64 192 154.5 192 192 249 154.5 287>
LayerCount: 2
Fore
SplineSet
324 649 m 1x3c
 354 600 392 556 429 515 c 1
 404 496 l 1
 361 522 332 542 297 579 c 1
 259 540 231 522 191 496 c 1
 166 515 l 1
 202 556 242 601 272 649 c 1
 324 649 l 1x3c
368 64 m 1
 312 4 281 -10 240 -10 c 0
 141 -10 84 57 84 126 c 2
 84 249 l 2
 84 325 83 372 74 429 c 1
 76 432 l 1
 76 432 109 429 143 429 c 0
 178 429 211 432 211 432 c 1
 212 429 l 1
 203 376 202 324 202 249 c 2
 202 159 l 2
 202 70 236 54 266 54 c 0xbc
 310.8 54 341.915 97.1729 368 128 c 1
 368 249 l 2
 368 325 367 372 358 429 c 1
 360 432 l 1
 360 432 393 429 427 429 c 0
 462 429 495 432 495 432 c 1
 496 429 l 1
 487 376 486 324 486 249 c 2
 486 192 l 2
 486 117 495 43 503 0 c 1
 501 -3 l 1
 488 -1 450.127 0 437.5 0 c 0
 423 0 397.333 -1.33301 384 -3 c 0x7c
 378 -3 375 -2 375 0 c 2
 370 64 l 1
 368 64 l 1
EndSplineSet
Substitution2: "'smcp' Gemeine nach Kapit+AOQA-lchen lookup 3 subtable" ucircumflex.sc
AlternateSubs2: "'aalt' Access All Alternates lookup 0 subtable" ucircumflex.sc
EndChar

StartChar: udieresis
Encoding: 252 252 188
Width: 577
GlyphClass: 2
Flags: MW
HStem: -10 64<251 260.5> -3 21G<381 384 501 501> 412 20G<76 76 211 211 360 360 495 495> 518 107<199.5 229 380 409.5>
VStem: 84 118<126 159 159 249 114.5 287> 160 108<556.5 586> 341 108<556.5 586> 368 118<64 192 154.5 192 192 249 154.5 287>
LayerCount: 2
Fore
SplineSet
341 571 m 0x32
 341 601 365 625 395 625 c 0
 424 625 449 601 449 571 c 0
 449 542 424 518 395 518 c 0
 365 518 341 542 341 571 c 0x32
160 571 m 0x34
 160 601 185 625 214 625 c 0
 244 625 268 601 268 571 c 0
 268 542 244 518 214 518 c 0
 185 518 160 542 160 571 c 0x34
368 64 m 1x79
 312 4 281 -10 240 -10 c 0
 141 -10 84 57 84 126 c 2
 84 249 l 2
 84 325 83 372 74 429 c 1
 76 432 l 1
 76 432 109 429 143 429 c 0
 178 429 211 432 211 432 c 1
 212 429 l 1
 203 376 202 324 202 249 c 2
 202 159 l 2
 202 70 236 54 266 54 c 0xb9
 310.8 54 341.915 97.1729 368 128 c 1
 368 249 l 2
 368 325 367 372 358 429 c 1
 360 432 l 1
 360 432 393 429 427 429 c 0
 462 429 495 432 495 432 c 1
 496 429 l 1
 487 376 486 324 486 249 c 2
 486 192 l 2
 486 117 495 43 503 0 c 1
 501 -3 l 1
 488 -1 450.127 0 437.5 0 c 0
 423 0 397.333 -1.33301 384 -3 c 0
 378 -3 375 -2 375 0 c 2
 370 64 l 1
 368 64 l 1x79
EndSplineSet
Substitution2: "'smcp' Gemeine nach Kapit+AOQA-lchen lookup 3 subtable" udieresis.sc
AlternateSubs2: "'aalt' Access All Alternates lookup 0 subtable" udieresis.sc
EndChar

StartChar: yacute
Encoding: 253 253 189
Width: 524
GlyphClass: 2
Flags: MW
HStem: -237 21G 412 20G
LayerCount: 2
Fore
SplineSet
309 674 m 1
 312 675 320 676 325 676 c 0
 355 676 374 662 382 652 c 1
 392 629 l 1
 272 521 l 2
 258 509 244 505 234 505 c 0
 226 505 218 513 218 519 c 0
 218 525 220 534 226 543 c 2
 309 674 l 1
37 432 m 1
 51 429 94.999 428.999 107.999 428.999 c 0
 121.999 428.999 162.999 428.999 175.999 431.999 c 1
 209.026 331.179 249.584 232.626 292.482 129.116 c 1
 334.228 224.161 373.641 333.683 405 432 c 1
 415 429 453 429 463 429 c 0
 473 429 496 429 506 432 c 1
 473 365 254 -112 216 -237 c 1
 206 -234 177 -232 167 -232 c 0
 157 -232 123 -234 113 -237 c 1
 158.19 -161.683 192.835 -93.8047 224.85 -19.1484 c 1
 222.165 -12 l 2
 184.064 88.6807 75.8389 345.36 37 432 c 1
291.681 88.1846 m 1
 290.667 87.6387 l 1
 292.667 87.6387 l 1
 291.681 88.1846 l 1
EndSplineSet
Substitution2: "'smcp' Gemeine nach Kapit+AOQA-lchen lookup 3 subtable" yacute.sc
AlternateSubs2: "'aalt' Access All Alternates lookup 0 subtable" yacute.sc
EndChar

StartChar: thorn
Encoding: 254 254 190
Width: 515
GlyphClass: 2
Flags: MW
HStem: -235 21G<73.999 73.999 170.999 170.999> -10 39<239.5 301 239.5 310.908> 388 51<260.404 291> 678 20G<163.999 167.166>
VStem: 83 80 379 96<164.5 280.861>
AnchorPoint: "Anker-5" 279 551 basechar 0
AnchorPoint: "Anker-4" 278 646 basechar 0
LayerCount: 2
Fore
SplineSet
163 306 m 1
 163 72 l 1
 197 31 231 29 248 29 c 0
 354 29 379 121 379 208 c 0
 379 353.723 313 388 269 388 c 0
 234 388 185 359 163 306 c 1
163 -32 m 2
 163 -107.234 164.499 -175 172.999 -232 c 1
 170.999 -235 l 1
 170.999 -235 157.332 -232 122.999 -232 c 0
 87.999 -232 73.999 -235 73.999 -235 c 1
 72.999 -232 l 1
 81.499 -178.5 82.999 -106.503 82.999 -32 c 2
 82.999 482 l 2
 82.999 558 80.666 627.333 72.999 670 c 1
 74.999 673 l 1
 115.499 676 138.93 687.972 163.999 698 c 1
 170.332 698 172.999 695 172.999 688 c 0
 165.332 626.667 162.999 575 162.999 500 c 2
 162.999 392 l 1
 161.999 359 l 1
 181.276 390.325 225.809 439 295 439 c 0
 392 439 475 340 475 235 c 0
 475 86.0439 368.816 -10 253 -10 c 0
 217 -10 189 -2 163 12 c 1
 163 -32 l 2
EndSplineSet
Substitution2: "'smcp' Gemeine nach Kapit+AOQA-lchen lookup 3 subtable" thorn.sc
AlternateSubs2: "'aalt' Access All Alternates lookup 0 subtable" thorn.sc
EndChar

StartChar: ydieresis
Encoding: 255 255 191
Width: 524
GlyphClass: 2
Flags: MW
HStem: -237 21G 412 20G 518 107<189.5 219 370 399.5>
VStem: 150 108<556.5 586> 331 108<556.5 586>
LayerCount: 2
Fore
SplineSet
331 571 m 0
 331 601 355 625 385 625 c 0
 414 625 439 601 439 571 c 0
 439 542 414 518 385 518 c 0
 355 518 331 542 331 571 c 0
150 571 m 0
 150 601 175 625 204 625 c 0
 234 625 258 601 258 571 c 0
 258 542 234 518 204 518 c 0
 175 518 150 542 150 571 c 0
37 432 m 1
 51 429 94.999 428.999 107.999 428.999 c 0
 121.999 428.999 162.999 428.999 175.999 431.999 c 1
 209.026 331.179 249.584 232.626 292.482 129.116 c 1
 334.228 224.161 373.641 333.683 405 432 c 1
 415 429 453 429 463 429 c 0
 473 429 496 429 506 432 c 1
 473 365 254 -112 216 -237 c 1
 206 -234 177 -232 167 -232 c 0
 157 -232 123 -234 113 -237 c 1
 158.19 -161.683 192.835 -93.8047 224.85 -19.1484 c 1
 222.165 -12 l 2
 184.064 88.6807 75.8389 345.36 37 432 c 1
291.681 88.1846 m 1
 290.667 87.6387 l 1
 292.667 87.6387 l 1
 291.681 88.1846 l 1
EndSplineSet
Substitution2: "'smcp' Gemeine nach Kapit+AOQA-lchen lookup 3 subtable" ydieresis.sc
AlternateSubs2: "'aalt' Access All Alternates lookup 0 subtable" ydieresis.sc
EndChar

StartChar: Amacron
Encoding: 256 256 192
Width: 675
GlyphClass: 2
Flags: MW
HStem: -3 21G 221 53 638 20G 723 50<191.5 483 207 471>
LayerCount: 2
Fore
SplineSet
471 723 m 2
 197 723 l 2
 186 723 182 732 182 741 c 0
 182 753 194 773 207 773 c 2
 483 773 l 2
 493 773 497 764 497 756 c 0
 497 743 485 723 471 723 c 2
317.557 499.774 m 1
 221.641 275.916 l 1
 253.373 275.538 297.058 273.999 325.999 273.999 c 0
 349.697 273.999 381.094 274.458 409.509 275.064 c 1
 384.729 339.381 354.381 414.363 317.557 499.774 c 1
198.276 219.171 m 1
 164.174 135.074 134.786 56.1982 118.999 -3.00195 c 1
 106.999 -0.00195312 84.999 -0.00195312 73.999 -0.00195312 c 0
 62.999 -0.00195312 29.999 -0.00195312 17.999 -3.00195 c 1
 312.999 657.998 l 1
 382.999 657.998 l 1
 474.999 438.998 606.999 97.998 656.999 -3.00195 c 1
 639.999 -0.00195312 592.999 -0.00195312 575.999 -0.00195312 c 0
 558.999 -0.00195312 521.999 -0.00195312 504.999 -3.00195 c 1
 498.996 18.6748 477.283 93.7236 430.47 219.691 c 1
 397.748 220.413 363.121 220.998 330.999 220.998 c 0
 295.343 220.998 236.228 220.105 198.276 219.171 c 1
EndSplineSet
Position2: "'cpsp' Capital Spacing lookup 0 subtable" dx=2 dy=0 dh=5 dv=0
EndChar

StartChar: amacron
Encoding: 257 257 193
Width: 518
GlyphClass: 2
Flags: MW
HStem: -10 60<134 222> 385 54<209.5 258.5> 535 50<79.5 371 95 359>
VStem: 42 119<93.5 128 93.5 132> 311 106<75 219>
LayerCount: 2
Fore
SplineSet
359 535 m 2
 85 535 l 2
 74 535 70 544 70 553 c 0
 70 565 82 585 95 585 c 2
 371 585 l 2
 381 585 385 576 385 568 c 0
 385 555 373 535 359 535 c 2
311 219 m 1
 231 198 l 2
 175.172 183.345 161 149 161 107 c 0
 161 80 178 50 208 50 c 0
 236 50 268 72 294 93 c 0
 302 99 311 106 311 119 c 2
 311 219 l 1
417 85 m 0
 417 65 429.999 54 440.999 54 c 0
 454.999 54 467.999 68 476.999 75 c 1
 479.999 73 l 2
 491.361 67.2744 496.683 57.0137 501 46 c 1
 470 6 428.051 -10 389 -10 c 0
 346 -10 318 16 310 48 c 1
 308 48 l 1
 258 3 208.115 -10 169 -10 c 0
 99 -10 42 24 42 98 c 0
 42 166 122.039 223.837 218 247 c 2
 305 268 l 2
 308 269 311 273 311 280 c 0
 311 357.058 285 385 232 385 c 0
 187 385 145 351 119 306 c 1
 96 307 l 1
 70 373 l 1
 73 377 l 1
 97 398 169 439 241 439 c 0
 331 439 421 406.004 421 277 c 0
 421 266 417 114 417 85 c 0
EndSplineSet
EndChar

StartChar: Abreve
Encoding: 258 258 194
Width: 675
GlyphClass: 2
Flags: MW
HStem: -3 21G 221 53 638 20G 691 52<303.5 354.5 303.5 363>
VStem: 194 28<804 804> 438 27<804 804>
LayerCount: 2
Fore
SplineSet
465 804 m 1
 459 733 396 691 330 691 c 0
 257 691 199 734 194 804 c 1
 222 804 l 1
 230 765 277 743 330 743 c 0
 379 743 431 765 438 804 c 1
 465 804 l 1
317.557 499.774 m 1
 221.641 275.916 l 1
 253.373 275.538 297.058 273.999 325.999 273.999 c 0
 349.697 273.999 381.094 274.458 409.509 275.064 c 1
 384.729 339.381 354.381 414.363 317.557 499.774 c 1
198.276 219.171 m 1
 164.174 135.074 134.786 56.1982 118.999 -3.00195 c 1
 106.999 -0.00195312 84.999 -0.00195312 73.999 -0.00195312 c 0
 62.999 -0.00195312 29.999 -0.00195312 17.999 -3.00195 c 1
 312.999 657.998 l 1
 382.999 657.998 l 1
 474.999 438.998 606.999 97.998 656.999 -3.00195 c 1
 639.999 -0.00195312 592.999 -0.00195312 575.999 -0.00195312 c 0
 558.999 -0.00195312 521.999 -0.00195312 504.999 -3.00195 c 1
 498.996 18.6748 477.283 93.7236 430.47 219.691 c 1
 397.748 220.413 363.121 220.998 330.999 220.998 c 0
 295.343 220.998 236.228 220.105 198.276 219.171 c 1
EndSplineSet
Substitution2: "'c2sc' Capitals to Small Capitals lookup 9 subtable" abreve.sc
Position2: "'cpsp' Capital Spacing lookup 0 subtable" dx=2 dy=0 dh=5 dv=0
EndChar

StartChar: abreve
Encoding: 259 259 195
Width: 518
GlyphClass: 2
Flags: MW
HStem: -10 60<134 222> 385 54<209.5 258.5> 494 64<237.5 292.5 237.5 294.5> 632 20G<161 161 376 376>
VStem: 42 119<93.5 128 93.5 132> 128 33 311 106<75 219> 376 32<637 652>
LayerCount: 2
Fore
SplineSet
161 652 m 1xf5
 163 598 206 558 269 558 c 0
 316 558 373 588 376 652 c 1
 408 637 l 1
 398 532 320 494 269 494 c 0
 188 494 135 556 128 637 c 1
 161 652 l 1xf5
311 219 m 1xfa
 231 198 l 2
 175.172 183.345 161 149 161 107 c 0
 161 80 178 50 208 50 c 0
 236 50 268 72 294 93 c 0
 302 99 311 106 311 119 c 2
 311 219 l 1xfa
417 85 m 0
 417 65 429.999 54 440.999 54 c 0
 454.999 54 467.999 68 476.999 75 c 1
 479.999 73 l 2
 491.361 67.2744 496.683 57.0137 501 46 c 1
 470 6 428.051 -10 389 -10 c 0
 346 -10 318 16 310 48 c 1
 308 48 l 1
 258 3 208.115 -10 169 -10 c 0
 99 -10 42 24 42 98 c 0
 42 166 122.039 223.837 218 247 c 2
 305 268 l 2
 308 269 311 273 311 280 c 0
 311 357.058 285 385 232 385 c 0
 187 385 145 351 119 306 c 1
 96 307 l 1
 70 373 l 1
 73 377 l 1
 97 398 169 439 241 439 c 0
 331 439 421 406.004 421 277 c 0
 421 266 417 114 417 85 c 0
EndSplineSet
Substitution2: "'smcp' Gemeine nach Kapit+AOQA-lchen lookup 3 subtable" abreve.sc
AlternateSubs2: "'aalt' Access All Alternates lookup 0 subtable" abreve.sc
EndChar

StartChar: Aogonek
Encoding: 260 260 196
Width: 675
GlyphClass: 2
Flags: MW
HStem: -219 44 -3 21G<18 18 505 505> 221 53 638 20G<313 383 383 383>
VStem: 367 66<-142.5 -108.272>
LayerCount: 2
Fore
SplineSet
545 -163 m 1
 518 -196 480 -219.001 446 -219.001 c 0
 397 -219.001 367 -190.001 367 -143.001 c 0
 367 -73.543 434.936 -14.915 496.559 26.0439 c 1
 485.493 62.752 464.687 127.62 430.471 219.692 c 1
 397.749 220.414 363.122 220.999 331 220.999 c 0
 295.344 220.999 236.229 220.106 198.277 219.172 c 1
 164.175 135.075 134.787 56.2002 119 -3 c 1
 107 0 85 0 74 0 c 0
 63 0 30 0 18 -3 c 1
 313 658 l 1
 383 658 l 1
 475 439 607 98 657 -3 c 1
 640 0 593 0 576 0 c 0
 559 0 522 0 505 -3 c 1
 504.979 -2.9248 l 1
 458.761 -49.498 433 -83.6855 433 -132 c 0
 433 -153 449 -175 475 -175 c 0
 492 -175 514 -160 528 -145 c 1
 531 -146 l 1
 545 -163 l 1
317.557 499.773 m 1
 221.641 275.915 l 1
 253.373 275.537 297.058 273.998 325.999 273.998 c 0
 349.697 273.998 381.094 274.457 409.509 275.063 c 1
 384.729 339.38 354.381 414.362 317.557 499.773 c 1
EndSplineSet
Substitution2: "'c2sc' Capitals to Small Capitals lookup 9 subtable" aogonek.sc
Position2: "'cpsp' Capital Spacing lookup 0 subtable" dx=2 dy=0 dh=5 dv=0
EndChar

